{
.appVersion = "1156";
DisplayStrings = (
"070770\012050550",
"5",
"7",
"/literSign",
",",
":,;",
":,;"
);
classes = (
{
automatic = 1;

glyphs = (
{
color = 10;
glyphname = A;
lastChange = "2018-07-15 18:01:19 +0000";
layers = (
{
anchors = (
{
name = bottom;
position = "{678, 0}";
},
{
name = ogonek;
position = "{1222, 10}";
},
{
name = top;
position = "{682, 1419}";
}
);
guideLines = (
{
angle = 109.0197;
position = "{986, 132}";
},
{
angle = 109.0197;
position = "{1211, 132}";
}
);
layerId = "DD6F9F34-BC40-4E8F-B1D3-DF3B42A9710F";
paths = (
{
closed = 1;
nodes = (
"430 0 LINE SMOOTH",
"453 0 OFFCURVE",
"464 36 OFFCURVE",
"464 51 CURVE SMOOTH",
"464 72 OFFCURVE",
"457 85 OFFCURVE",
"431 88 CURVE",
"349 93 OFFCURVE",
"285 86 OFFCURVE",
"285 120 CURVE SMOOTH",
"285 123 OFFCURVE",
"285 127 OFFCURVE",
"287 132 CURVE SMOOTH",
"423 537 LINE",
"364 494 LINE",
"920 494 LINE",
"860 537 LINE",
"1000 132 LINE SMOOTH",
"1002 127 OFFCURVE",
"1003 122 OFFCURVE",
"1003 118 CURVE SMOOTH",
"1003 87 OFFCURVE",
"947 92 OFFCURVE",
"866 88 CURVE",
"840 85 OFFCURVE",
"833 72 OFFCURVE",
"833 51 CURVE SMOOTH",
"833 36 OFFCURVE",
"844 0 OFFCURVE",
"867 0 CURVE SMOOTH",
"1368 0 LINE SMOOTH",
"1390 0 OFFCURVE",
"1402 36 OFFCURVE",
"1402 51 CURVE SMOOTH",
"1402 81 OFFCURVE",
"1394 85 OFFCURVE",
"1366 88 CURVE SMOOTH",
"1317 93 OFFCURVE",
"1246 77 OFFCURVE",
"1215 165 CURVE SMOOTH",
"760 1441 LINE",
"600 1441 LINE",
"162 165 LINE SMOOTH",
"131 76 OFFCURVE",
"58 93 OFFCURVE",
"9 88 CURVE SMOOTH",
"-19 85 OFFCURVE",
"-27 81 OFFCURVE",
"-27 51 CURVE SMOOTH",
"-27 24 OFFCURVE",
"-15 0 OFFCURVE",
"7 0 CURVE SMOOTH"
);
},
{
closed = 1;
nodes = (
"639 1187 LINE",
"860 537 LINE",
"890 580 LINE",
"393 580 LINE",
"424 537 LINE"
);
}
);
width = 1374;
},
{
anchors = (
{
name = bottom;
position = "{750, 0}";
},
{
name = ogonek;
position = "{1351, 10}";
},
{
name = top;
position = "{763, 1419}";
}
);
background = {
paths = (
{
closed = 1;
nodes = (
"467 0 LINE SMOOTH",
"490 0 OFFCURVE",
"491 36 OFFCURVE",
"491 51 CURVE SMOOTH",
"491 72 OFFCURVE",
"484 86 OFFCURVE",
"458 88 CURVE SMOOTH",
"365 96 OFFCURVE",
"283 101 OFFCURVE",
"295 132 CURVE SMOOTH",
"389 379 LINE",
"922 379 LINE",
"1015 160 LINE SMOOTH",
"1049 73 OFFCURVE",
"990 92 OFFCURVE",
"873 88 CURVE SMOOTH",
"847 87 OFFCURVE",
"840 72 OFFCURVE",
"840 51 CURVE SMOOTH",
"840 36 OFFCURVE",
"851 0 OFFCURVE",
"874 0 CURVE SMOOTH",
"1545 0 LINE SMOOTH",
"1567 0 OFFCURVE",
"1579 36 OFFCURVE",
"1579 51 CURVE SMOOTH",
"1579 82 OFFCURVE",
"1560 88 OFFCURVE",
"1534 90 CURVE SMOOTH",
"1491 93 OFFCURVE",
"1427 88 OFFCURVE",
"1392 165 CURVE SMOOTH {name = hr02;}",
"784 1452 LINE",
"710 1452 LINE",
"169 165 LINE SMOOTH",
"117 38 OFFCURVE",
"-20 131 OFFCURVE",
"-20 51 CURVE SMOOTH {name = hr03;}",
"-20 36 OFFCURVE",
"-18 0 OFFCURVE",
"4 0 CURVE SMOOTH {name = hr01;}"
);
},
{
closed = 1;
nodes = (
"654 1040 LINE",
"872 495 LINE",
"433 495 LINE"
);
}
);
};
guideLines = (
{
angle = 67.1056;
position = "{403, 777}";
},
{
angle = 67.1056;
position = "{541, 743}";
},
{
angle = 110.477;
position = "{823, 714}";
},
{
angle = 110.477;
position = "{1217, 714}";
},
{
angle = 270;
position = "{774, 770}";
}
);
layerId = "62CA62AF-CD91-478A-AB8B-28A62CC47DA0";
paths = (
{
closed = 1;
nodes = (
"446 0 LINE SMOOTH",
"469 0 OFFCURVE",
"480 36 OFFCURVE",
"480 51 CURVE SMOOTH",
"480 72 OFFCURVE",
"473 85 OFFCURVE",
"447 88 CURVE",
"366 92 OFFCURVE",
"300 87 OFFCURVE",
"300 119 CURVE SMOOTH",
"300 123 OFFCURVE",
"301 127 OFFCURVE",
"303 132 CURVE SMOOTH",
"465 537 LINE",
"403 495 LINE",
"933 494 LINE",
"872 536 LINE",
"1021 132 LINE SMOOTH",
"1023 126 OFFCURVE",
"1024 121 OFFCURVE",
"1024 116 CURVE SMOOTH",
"1024 87 OFFCURVE",
"976 92 OFFCURVE",
"897 88 CURVE",
"871 85 OFFCURVE",
"864 72 OFFCURVE",
"864 51 CURVE SMOOTH",
"864 36 OFFCURVE",
"875 0 OFFCURVE",
"898 0 CURVE SMOOTH",
"1530 0 LINE SMOOTH",
"1552 0 OFFCURVE",
"1564 36 OFFCURVE",
"1564 51 CURVE SMOOTH",
"1564 81 OFFCURVE",
"1556 85 OFFCURVE",
"1528 88 CURVE SMOOTH",
"1479 93 OFFCURVE",
"1403 75 OFFCURVE",
"1367 165 CURVE SMOOTH",
"852 1441 LINE",
"676 1441 LINE",
"178 165 LINE SMOOTH",
"144 79 OFFCURVE",
"74 93 OFFCURVE",
"25 88 CURVE SMOOTH",
"-3 85 OFFCURVE",
"-11 81 OFFCURVE",
"-11 51 CURVE SMOOTH",
"-11 24 OFFCURVE",
"1 0 OFFCURVE",
"23 0 CURVE SMOOTH"
);
},
{
closed = 1;
nodes = (
"673 1055 LINE",
"871 538 LINE",
"900 580 LINE",
"445 580 LINE",
"472 539 LINE"
);
}
);
width = 1553;
}
);
leftKerningGroup = A;
rightKerningGroup = A;
unicode = 0041;
},
{
color = 10;
glyphname = Aogonek;
lastChange = "2018-07-16 02:58:34 +0000";
layers = (
{
components = (
{
name = A;
}
);
layerId = "DD6F9F34-BC40-4E8F-B1D3-DF3B42A9710F";
paths = (
{
closed = 1;
nodes = (
"1142 0 LINE",
"1013 0 OFFCURVE",
"877 -89 OFFCURVE",
"877 -194 CURVE SMOOTH",
"877 -299 OFFCURVE",
"966 -370 OFFCURVE",
"1096 -370 CURVE SMOOTH",
"1156 -370 OFFCURVE",
"1241 -351 OFFCURVE",
"1285 -323 CURVE SMOOTH",
"1299 -314 OFFCURVE",
"1305 -294 OFFCURVE",
"1305 -277 CURVE SMOOTH",
"1305 -258 OFFCURVE",
"1298 -241 OFFCURVE",
"1285 -243 CURVE SMOOTH",
"1251 -248 OFFCURVE",
"1235 -259 OFFCURVE",
"1203 -259 CURVE SMOOTH",
"1114 -259 OFFCURVE",
"1063 -221 OFFCURVE",
"1063 -160 CURVE SMOOTH",
"1063 -84 OFFCURVE",
"1106 -49 OFFCURVE",
"1227 0 CURVE",
"1198 50 LINE"
);
}
);
width = 1374;
},
{
components = (
{
name = A;
}
);
layerId = "62CA62AF-CD91-478A-AB8B-28A62CC47DA0";
paths = (
{
closed = 1;
nodes = (
"1218 0 LINE",
"999 -52 OFFCURVE",
"931 -157 OFFCURVE",
"931 -264 CURVE SMOOTH",
"931 -370 OFFCURVE",
"1043 -444 OFFCURVE",
"1200 -444 CURVE SMOOTH",
"1273 -444 OFFCURVE",
"1377 -422 OFFCURVE",
"1429 -387 CURVE SMOOTH",
"1446 -376 OFFCURVE",
"1453 -343 OFFCURVE",
"1453 -311 CURVE SMOOTH",
"1453 -275 OFFCURVE",
"1443 -241 OFFCURVE",
"1429 -246 CURVE SMOOTH",
"1388 -259 OFFCURVE",
"1368 -265 OFFCURVE",
"1330 -265 CURVE SMOOTH",
"1222 -265 OFFCURVE",
"1181 -234 OFFCURVE",
"1181 -184 CURVE SMOOTH",
"1181 -116 OFFCURVE",
"1273 -39 OFFCURVE",
"1388 0 CURVE",
"1293 32 LINE"
);
}
);
width = 1553;
}
);
leftKerningGroup = A;
rightKerningGroup = A;
unicode = 0104;
},
{
color = 10;
glyphname = Aringacute;
lastChange = "2018-07-16 15:38:01 +0000";
layers = (
{
components = (
{
name = A;
},
{
alignment = -1;
name = ringcomb.case;
transform = "{1, 0, 0, 1, 680, 265}";
}
);
layerId = "DD6F9F34-BC40-4E8F-B1D3-DF3B42A9710F";
paths = (
{
closed = 1;
nodes = (
"961 1868 OFFCURVE",
"1057 1904 OFFCURVE",
"1082 1928 CURVE SMOOTH",
"1100 1945 OFFCURVE",
"1113 1969 OFFCURVE",
"1113 1995 CURVE SMOOTH",
"1113 2013 OFFCURVE",
"1106 2031 OFFCURVE",
"1090 2049 CURVE SMOOTH",
"1072 2069 OFFCURVE",
"1050 2076 OFFCURVE",
"1031 2076 CURVE SMOOTH",
"1004 2076 OFFCURVE",
"978 2063 OFFCURVE",
"961 2047 CURVE SMOOTH",
"936 2023 OFFCURVE",
"912 1974 OFFCURVE",
"822 1860 CURVE",
"868 1813 LINE"
);
}
);
width = 1374;
},
{
components = (
{
name = A;
},
{
alignment = -1;
name = ringcomb.case;
transform = "{1, 0, 0, 1, 761, 286}";
}
);
layerId = "62CA62AF-CD91-478A-AB8B-28A62CC47DA0";
paths = (
{
closed = 1;
nodes = (
"1132 1890 OFFCURVE",
"1241 1923 OFFCURVE",
"1270 1948 CURVE SMOOTH",
"1288 1964 OFFCURVE",
"1299 1994 OFFCURVE",
"1299 2025 CURVE SMOOTH",
"1299 2052 OFFCURVE",
"1291 2079 OFFCURVE",
"1270 2100 CURVE SMOOTH",
"1250 2120 OFFCURVE",
"1225 2129 OFFCURVE",
"1199 2129 CURVE SMOOTH",
"1165 2129 OFFCURVE",
"1131 2115 OFFCURVE",
"1113 2097 CURVE SMOOTH",
"1086 2070 OFFCURVE",
"1038 1995 OFFCURVE",
"928 1890 CURVE",
"985 1800 LINE {name = hr00;}"
);
}
);
width = 1553;
}
);
leftKerningGroup = A;
rightKerningGroup = A;
unicode = 01FA;
},
{
color = 10;
glyphname = AE;
lastChange = "2018-07-15 18:01:19 +0000";
layers = (
{
anchors = (
{
name = top;
position = "{1030, 1419}";
}
);
layerId = "DD6F9F34-BC40-4E8F-B1D3-DF3B42A9710F";
paths = (
{
closed = 1;
nodes = (
"391 0 LINE SMOOTH",
"414 0 OFFCURVE",
"425 36 OFFCURVE",
"425 51 CURVE SMOOTH",
"425 72 OFFCURVE",
"418 85 OFFCURVE",
"392 88 CURVE",
"288 92 OFFCURVE",
"229 97 OFFCURVE",
"229 126 CURVE SMOOTH",
"229 130 OFFCURVE",
"231 136 OFFCURVE",
"234 142 CURVE SMOOTH",
"499 657 LINE",
"871 657 LINE",
"871 152 LINE SMOOTH",
"871 108 OFFCURVE",
"780 93 OFFCURVE",
"716 88 CURVE",
"690 85 OFFCURVE",
"683 72 OFFCURVE",
"683 51 CURVE SMOOTH",
"683 36 OFFCURVE",
"694 0 OFFCURVE",
"717 0 CURVE SMOOTH",
"1812 1 LINE",
"1855 412 LINE",
"1855 435 OFFCURVE",
"1829 446 OFFCURVE",
"1814 446 CURVE SMOOTH",
"1793 446 OFFCURVE",
"1770 439 OFFCURVE",
"1767 413 CURVE SMOOTH",
"1761 364 OFFCURVE",
"1636 101 OFFCURVE",
"1543 101 CURVE SMOOTH",
"1167 101 LINE",
"1123 105 OFFCURVE",
"1078 124 OFFCURVE",
"1078 197 CURVE SMOOTH",
"1078 657 LINE",
"1332 657 LINE SMOOTH",
"1388 657 OFFCURVE",
"1428 516 OFFCURVE",
"1433 473 CURVE SMOOTH",
"1436 447 OFFCURVE",
"1469 440 OFFCURVE",
"1490 440 CURVE SMOOTH",
"1505 440 OFFCURVE",
"1531 451 OFFCURVE",
"1531 474 CURVE SMOOTH",
"1531 917 LINE SMOOTH",
"1531 940 OFFCURVE",
"1505 951 OFFCURVE",
"1490 951 CURVE SMOOTH",
"1469 951 OFFCURVE",
"1436 944 OFFCURVE",
"1433 918 CURVE SMOOTH",
"1428 878 OFFCURVE",
"1390 750 OFFCURVE",
"1338 743 CURVE",
"1078 743 LINE",
"1079 1320 LINE",
"1473 1320 LINE SMOOTH",
"1581 1320 OFFCURVE",
"1673 1102 OFFCURVE",
"1679 1053 CURVE SMOOTH",
"1682 1027 OFFCURVE",
"1705 1020 OFFCURVE",
"1726 1020 CURVE SMOOTH",
"1741 1020 OFFCURVE",
"1767 1031 OFFCURVE",
"1767 1054 CURVE",
"1732 1418 LINE",
"494 1419 LINE SMOOTH",
"471 1419 OFFCURVE",
"460 1393 OFFCURVE",
"460 1378 CURVE SMOOTH",
"460 1348 OFFCURVE",
"468 1333 OFFCURVE",
"496 1331 CURVE SMOOTH",
"553 1326 OFFCURVE",
"646 1322 OFFCURVE",
"729 1318 CURVE",
"100 165 LINE SMOOTH",
"54 83 OFFCURVE",
"-12 93 OFFCURVE",
"-61 88 CURVE SMOOTH",
"-89 85 OFFCURVE",
"-97 81 OFFCURVE",
"-97 51 CURVE SMOOTH",
"-97 36 OFFCURVE",
"-85 0 OFFCURVE",
"-63 0 CURVE SMOOTH"
);
},
{
closed = 1;
nodes = (
"837 1313 LINE",
"849 1312 OFFCURVE",
"860 1312 OFFCURVE",
"872 1311 CURVE",
"872 743 LINE",
"544 743 LINE"
);
}
);
width = 1988;
},
{
anchors = (
{
name = top;
position = "{1168, 1419}";
}
);
layerId = "62CA62AF-CD91-478A-AB8B-28A62CC47DA0";
paths = (
{
closed = 1;
nodes = (
"470 0 LINE SMOOTH",
"493 0 OFFCURVE",
"504 36 OFFCURVE",
"504 51 CURVE SMOOTH",
"504 72 OFFCURVE",
"497 85 OFFCURVE",
"471 88 CURVE {name = hr02;}",
"343 88 OFFCURVE",
"296 102 OFFCURVE",
"296 140 CURVE SMOOTH",
"296 153 OFFCURVE",
"301 168 OFFCURVE",
"310 186 CURVE SMOOTH",
"493 550 LINE",
"1000 550 LINE",
"1000 152 LINE SMOOTH",
"1000 108 OFFCURVE",
"909 93 OFFCURVE",
"845 88 CURVE {name = hr03;}",
"819 85 OFFCURVE",
"812 72 OFFCURVE",
"812 51 CURVE SMOOTH",
"812 36 OFFCURVE",
"823 0 OFFCURVE",
"846 0 CURVE SMOOTH",
"2123 0 LINE",
"2123 372 LINE",
"2125 395 OFFCURVE",
"2094 406 OFFCURVE",
"2074 406 CURVE SMOOTH",
"2043 406 OFFCURVE",
"2013 395 OFFCURVE",
"2005 370 CURVE SMOOTH",
"1989 320 OFFCURVE",
"1960 101 OFFCURVE",
"1817 101 CURVE SMOOTH",
"1428 101 LINE SMOOTH",
"1384 101 OFFCURVE",
"1339 124 OFFCURVE",
"1339 197 CURVE SMOOTH",
"1339 682 LINE",
"1610 682 LINE SMOOTH",
"1666 682 OFFCURVE",
"1711 546 OFFCURVE",
"1714 503 CURVE",
"1717 477 OFFCURVE",
"1742 470 OFFCURVE",
"1763 470 CURVE SMOOTH",
"1778 470 OFFCURVE",
"1804 481 OFFCURVE",
"1804 504 CURVE SMOOTH",
"1804 947 LINE SMOOTH",
"1804 970 OFFCURVE",
"1778 981 OFFCURVE",
"1763 981 CURVE SMOOTH",
"1742 981 OFFCURVE",
"1720 975 OFFCURVE",
"1717 949 CURVE SMOOTH",
"1712 909 OFFCURVE",
"1668 785 OFFCURVE",
"1616 778 CURVE",
"1339 778 LINE",
"1339 1320 LINE",
"1735 1320 LINE SMOOTH",
"1867 1320 OFFCURVE",
"1890 1176 OFFCURVE",
"1942 1093 CURVE SMOOTH",
"1957 1069 OFFCURVE",
"1981 1060 OFFCURVE",
"2002 1060 CURVE SMOOTH",
"2017 1060 OFFCURVE",
"2043 1071 OFFCURVE",
"2043 1094 CURVE",
"2008 1419 LINE",
"523 1419 LINE SMOOTH",
"500 1419 OFFCURVE",
"489 1393 OFFCURVE",
"489 1378 CURVE SMOOTH",
"489 1348 OFFCURVE",
"497 1333 OFFCURVE",
"525 1331 CURVE SMOOTH {name = hr04;}",
"574 1327 OFFCURVE",
"669 1319 OFFCURVE",
"765 1310 CURVE",
"154 165 LINE SMOOTH",
"110 82 OFFCURVE",
"17 93 OFFCURVE",
"-32 88 CURVE SMOOTH",
"-60 85 OFFCURVE",
"-68 81 OFFCURVE",
"-68 51 CURVE SMOOTH",
"-68 36 OFFCURVE",
"-56 0 OFFCURVE",
"-34 0 CURVE SMOOTH {name = hr01;}"
);
},
{
closed = 1;
nodes = (
"870 1300 LINE {name = hr06;}",
"922 1294 OFFCURVE",
"968 1288 OFFCURVE",
"1000 1283 CURVE",
"1000 646 LINE",
"541 646 LINE"
);
}
);
width = 2191;
}
);
leftKerningGroup = A;
rightKerningGroup = E;
unicode = 00C6;
},
{
color = 10;
glyphname = B;
lastChange = "2018-07-16 02:48:31 +0000";
layers = (
{
anchors = (
{
name = bottom;
position = "{688, 0}";
},
{
name = top;
position = "{694, 1419}";
}
);
background = {
paths = (
{
closed = 1;
nodes = (
"727 0 LINE SMOOTH",
"966 0 OFFCURVE",
"1242 124 OFFCURVE",
"1242 416 CURVE SMOOTH",
"1242 677 OFFCURVE",
"1033 758 OFFCURVE",
"869 776 CURVE",
"1019 806 OFFCURVE",
"1157 913 OFFCURVE",
"1157 1100 CURVE SMOOTH",
"1157 1349 OFFCURVE",
"886 1419 OFFCURVE",
"645 1419 CURVE SMOOTH",
"463 1419 LINE",
"455 1322 LINE",
"588 1322 LINE SMOOTH",
"762 1322 OFFCURVE",
"949 1277 OFFCURVE",
"949 1073 CURVE SMOOTH",
"949 847 OFFCURVE",
"769 817 OFFCURVE",
"651 817 CURVE SMOOTH",
"450 817 LINE SMOOTH",
"450 817 OFFCURVE",
"450 721 OFFCURVE",
"450 721 CURVE",
"654 721 LINE SMOOTH",
"743 721 OFFCURVE",
"1026 713 OFFCURVE",
"1026 418 CURVE SMOOTH",
"1026 141 OFFCURVE",
"802 101 OFFCURVE",
"658 101 CURVE SMOOTH",
"503 101 OFFCURVE",
"495 138 OFFCURVE",
"495 138 CURVE",
"455 0 LINE"
);
},
{
closed = 1;
nodes = (
"609 0 LINE SMOOTH",
"631 0 OFFCURVE",
"643 16 OFFCURVE",
"643 31 CURVE SMOOTH",
"643 61 OFFCURVE",
"635 65 OFFCURVE",
"607 68 CURVE SMOOTH",
"558 73 OFFCURVE",
"495 19 OFFCURVE",
"495 105 CURVE SMOOTH",
"495 1347 LINE",
"543 1395 LINE",
"463 1419 LINE",
"105 1419 LINE SMOOTH",
"82 1419 OFFCURVE",
"71 1383 OFFCURVE",
"71 1368 CURVE SMOOTH",
"71 1338 OFFCURVE",
"79 1334 OFFCURVE",
"107 1331 CURVE",
"180 1326 OFFCURVE",
"289 1320 OFFCURVE",
"289 1234 CURVE SMOOTH",
"288 152 LINE SMOOTH",
"288 108 OFFCURVE",
"192 93 OFFCURVE",
"113 88 CURVE",
"87 85 OFFCURVE",
"80 72 OFFCURVE",
"80 51 CURVE SMOOTH",
"80 36 OFFCURVE",
"91 0 OFFCURVE",
"114 0 CURVE SMOOTH"
);
}
);
};
layerId = "DD6F9F34-BC40-4E8F-B1D3-DF3B42A9710F";
paths = (
{
closed = 1;
nodes = (
"752 0 LINE SMOOTH",
"991 0 OFFCURVE",
"1267 124 OFFCURVE",
"1267 416 CURVE SMOOTH",
"1267 691 OFFCURVE",
"1036 766 OFFCURVE",
"869 778 CURVE",
"865 771 LINE",
"1026 793 OFFCURVE",
"1182 901 OFFCURVE",
"1182 1100 CURVE SMOOTH",
"1182 1349 OFFCURVE",
"911 1419 OFFCURVE",
"670 1419 CURVE SMOOTH",
"130 1419 LINE SMOOTH",
"107 1419 OFFCURVE",
"96 1383 OFFCURVE",
"96 1368 CURVE SMOOTH",
"96 1338 OFFCURVE",
"104 1334 OFFCURVE",
"132 1331 CURVE",
"205 1326 OFFCURVE",
"314 1320 OFFCURVE",
"314 1234 CURVE SMOOTH",
"313 152 LINE SMOOTH",
"313 108 OFFCURVE",
"217 93 OFFCURVE",
"138 88 CURVE",
"112 85 OFFCURVE",
"105 72 OFFCURVE",
"105 51 CURVE SMOOTH",
"105 36 OFFCURVE",
"116 0 OFFCURVE",
"139 0 CURVE SMOOTH"
);
},
{
closed = 1;
nodes = (
"520 1334 LINE",
"633 1334 LINE SMOOTH",
"802 1334 OFFCURVE",
"971 1268 OFFCURVE",
"971 1085 CURVE SMOOTH",
"971 881 OFFCURVE",
"761 814 OFFCURVE",
"606 814 CURVE SMOOTH",
"520 814 LINE"
);
},
{
closed = 1;
nodes = (
"521 102 OFFCURVE",
"520 139 OFFCURVE",
"520 139 CURVE SMOOTH",
"520 718 LINE",
"609 718 LINE SMOOTH",
"754 718 OFFCURVE",
"1048 725 OFFCURVE",
"1048 421 CURVE SMOOTH",
"1048 140 OFFCURVE",
"814 102 OFFCURVE",
"676 102 CURVE SMOOTH"
);
}
);
width = 1339;
},
{
anchors = (
{
name = bottom;
position = "{779, 0}";
},
{
name = top;
position = "{778, 1419}";
}
);
layerId = "62CA62AF-CD91-478A-AB8B-28A62CC47DA0";
paths = (
{
closed = 1;
nodes = (
"890 0 LINE SMOOTH",
"1284 0 OFFCURVE",
"1476 139 OFFCURVE",
"1476 421 CURVE SMOOTH",
"1476 638 OFFCURVE",
"1284 767 OFFCURVE",
"998 767 CURVE",
"998 762 LINE",
"1205 762 OFFCURVE",
"1379 881 OFFCURVE",
"1379 1110 CURVE SMOOTH",
"1379 1329 OFFCURVE",
"1180 1419 OFFCURVE",
"829 1419 CURVE SMOOTH",
"135 1419 LINE SMOOTH",
"112 1419 OFFCURVE",
"101 1383 OFFCURVE",
"101 1368 CURVE SMOOTH",
"101 1338 OFFCURVE",
"109 1334 OFFCURVE",
"137 1331 CURVE",
"210 1326 OFFCURVE",
"319 1320 OFFCURVE",
"319 1234 CURVE SMOOTH",
"318 152 LINE SMOOTH",
"318 108 OFFCURVE",
"222 93 OFFCURVE",
"143 88 CURVE",
"117 85 OFFCURVE",
"110 72 OFFCURVE",
"110 51 CURVE SMOOTH {name = hr00;}",
"110 36 OFFCURVE",
"121 0 OFFCURVE",
"144 0 CURVE SMOOTH"
);
},
{
closed = 1;
nodes = (
"655 1322 LINE",
"768 1322 LINE SMOOTH",
"937 1322 OFFCURVE",
"1052 1256 OFFCURVE",
"1052 1073 CURVE SMOOTH",
"1052 869 OFFCURVE",
"896 802 OFFCURVE",
"741 802 CURVE SMOOTH",
"655 802 LINE"
);
},
{
closed = 1;
nodes = (
"656 101 OFFCURVE",
"655 138 OFFCURVE",
"655 138 CURVE",
"655 706 LINE",
"744 706 LINE SMOOTH",
"888 706 OFFCURVE",
"1112 713 OFFCURVE",
"1112 418 CURVE SMOOTH",
"1112 141 OFFCURVE",
"950 101 OFFCURVE",
"811 101 CURVE SMOOTH"
);
}
);
width = 1551;
}
);
leftKerningGroup = H;
rightKerningGroup = B;
unicode = 0042;
},
{
color = 10;
glyphname = C;
lastChange = "2018-07-16 15:38:27 +0000";
layers = (
{
anchors = (
{
name = bottom;
position = "{722, 0}";
},
{
name = top;
position = "{752, 1419}";
}
);
layerId = "DD6F9F34-BC40-4E8F-B1D3-DF3B42A9710F";
paths = (
{
closed = 1;
nodes = (
"1005 -30 OFFCURVE",
"1180 80 OFFCURVE",
"1183 108 CURVE SMOOTH",
"1215 372 LINE",
"1215 395 OFFCURVE",
"1170 406 OFFCURVE",
"1154 406 CURVE SMOOTH",
"1132 406 OFFCURVE",
"1122 399 OFFCURVE",
"1117 373 CURVE SMOOTH",
"1084 200 OFFCURVE",
"983 65 OFFCURVE",
"751 65 CURVE SMOOTH",
"592 65 OFFCURVE",
"314 152 OFFCURVE",
"314 706 CURVE SMOOTH",
"314 1289 OFFCURVE",
"568 1353 OFFCURVE",
"739 1353 CURVE SMOOTH",
"975 1353 OFFCURVE",
"1097 1207 OFFCURVE",
"1144 1039 CURVE",
"1147 1017 OFFCURVE",
"1162 1010 OFFCURVE",
"1179 1010 CURVE SMOOTH",
"1183 1010 OFFCURVE",
"1186 1011 OFFCURVE",
"1190 1011 CURVE SMOOTH",
"1206 1013 OFFCURVE",
"1229 1028 OFFCURVE",
"1226 1051 CURVE",
"1204 1361 LINE",
"1133 1392 OFFCURVE",
"1006 1449 OFFCURVE",
"741 1449 CURVE SMOOTH",
"453 1449 OFFCURVE",
"65 1235 OFFCURVE",
"65 706 CURVE SMOOTH",
"65 144 OFFCURVE",
"431 -30 OFFCURVE",
"752 -30 CURVE SMOOTH"
);
}
);
width = 1315;
},
{
anchors = (
{
name = bottom;
position = "{805, 0}";
},
{
name = top;
position = "{859, 1419}";
}
);
layerId = "62CA62AF-CD91-478A-AB8B-28A62CC47DA0";
paths = (
{
closed = 1;
nodes = (
"1127 -30 OFFCURVE",
"1328 80 OFFCURVE",
"1331 108 CURVE SMOOTH",
"1359 402 LINE",
"1359 425 OFFCURVE",
"1304 436 OFFCURVE",
"1288 436 CURVE SMOOTH",
"1266 436 OFFCURVE",
"1245 429 OFFCURVE",
"1240 403 CURVE SMOOTH",
"1205 221 OFFCURVE",
"1091 65 OFFCURVE",
"888 65 CURVE SMOOTH",
"728 65 OFFCURVE",
"457 152 OFFCURVE",
"457 706 CURVE SMOOTH",
"457 1289 OFFCURVE",
"703 1353 OFFCURVE",
"866 1353 CURVE SMOOTH",
"1094 1353 OFFCURVE",
"1178 1210 OFFCURVE",
"1211 1039 CURVE SMOOTH",
"1215 1017 OFFCURVE",
"1260 1010 OFFCURVE",
"1288 1010 CURVE SMOOTH",
"1294 1010 OFFCURVE",
"1298 1011 OFFCURVE",
"1302 1011 CURVE SMOOTH",
"1319 1013 OFFCURVE",
"1361 1028 OFFCURVE",
"1358 1051 CURVE",
"1341 1361 LINE",
"1287 1360 OFFCURVE",
"1193 1449 OFFCURVE",
"868 1449 CURVE SMOOTH",
"516 1449 OFFCURVE",
"78 1235 OFFCURVE",
"78 706 CURVE SMOOTH {name = hr00;}",
"78 144 OFFCURVE",
"488 -30 OFFCURVE",
"889 -30 CURVE SMOOTH"
);
}
);
width = 1465;
}
);
leftKerningGroup = O;
rightKerningGroup = C;
unicode = 0043;
},
{
color = 10;
glyphname = D;
lastChange = "2018-07-13 20:14:31 +0000";
layers = (
{
anchors = (
{
name = bottom;
position = "{766, 0}";
},
{
name = center;
position = "{766, 710}";
},
{
name = top;
position = "{766, 1419}";
}
);
background = {
paths = (
{
closed = 1;
nodes = (
"600 1419 LINE",
"135 1419 LINE SMOOTH",
"112 1419 OFFCURVE",
"101 1383 OFFCURVE",
"101 1368 CURVE SMOOTH",
"101 1338 OFFCURVE",
"109 1334 OFFCURVE",
"137 1331 CURVE SMOOTH",
"198 1326 OFFCURVE",
"289 1320 OFFCURVE",
"289 1234 CURVE SMOOTH",
"288 152 LINE SMOOTH",
"288 108 OFFCURVE",
"207 93 OFFCURVE",
"143 88 CURVE SMOOTH",
"117 85 OFFCURVE",
"110 72 OFFCURVE",
"110 51 CURVE SMOOTH",
"110 36 OFFCURVE",
"121 0 OFFCURVE",
"144 0 CURVE SMOOTH",
"609 0 LINE SMOOTH",
"643 0 OFFCURVE",
"663 16 OFFCURVE",
"663 31 CURVE SMOOTH",
"663 61 OFFCURVE",
"651 65 OFFCURVE",
"607 68 CURVE SMOOTH",
"558 73 OFFCURVE",
"495 49 OFFCURVE",
"495 135 CURVE SMOOTH",
"496 1342 LINE"
);
},
{
closed = 1;
nodes = (
"460 1417 OFFCURVE",
"446 1322 OFFCURVE",
"446 1322 CURVE",
"446 1322 OFFCURVE",
"533 1322 OFFCURVE",
"718 1322 CURVE SMOOTH",
"951 1322 OFFCURVE",
"1209 1229 OFFCURVE",
"1209 734 CURVE SMOOTH",
"1209 161 OFFCURVE",
"941 101 OFFCURVE",
"698 101 CURVE SMOOTH",
"524 101 OFFCURVE",
"495 140 OFFCURVE",
"495 168 CURVE",
"495 168 OFFCURVE",
"455 0 OFFCURVE",
"455 0 CURVE",
"455 0 OFFCURVE",
"536 0 OFFCURVE",
"767 0 CURVE SMOOTH",
"1067 0 OFFCURVE",
"1455 217 OFFCURVE",
"1455 738 CURVE SMOOTH",
"1455 1083 OFFCURVE",
"1269 1417 OFFCURVE",
"725 1419 CURVE",
"463 1419 LINE"
);
}
);
};
layerId = "DD6F9F34-BC40-4E8F-B1D3-DF3B42A9710F";
paths = (
{
closed = 1;
nodes = (
"778 0 LINE SMOOTH",
"1078 0 OFFCURVE",
"1456 217 OFFCURVE",
"1456 738 CURVE SMOOTH",
"1456 1083 OFFCURVE",
"1270 1417 OFFCURVE",
"726 1419 CURVE",
"130 1419 LINE SMOOTH",
"107 1419 OFFCURVE",
"96 1383 OFFCURVE",
"96 1368 CURVE SMOOTH",
"96 1338 OFFCURVE",
"104 1334 OFFCURVE",
"132 1331 CURVE SMOOTH",
"193 1324 OFFCURVE",
"284 1320 OFFCURVE",
"284 1234 CURVE SMOOTH",
"284 152 LINE SMOOTH",
"284 108 OFFCURVE",
"203 93 OFFCURVE",
"139 88 CURVE",
"113 85 OFFCURVE",
"106 72 OFFCURVE",
"106 51 CURVE SMOOTH {name = hr00;}",
"106 36 OFFCURVE",
"117 0 OFFCURVE",
"140 0 CURVE SMOOTH"
);
},
{
closed = 1;
nodes = (
"497 1322 LINE",
"694 1322 LINE SMOOTH",
"927 1322 OFFCURVE",
"1210 1229 OFFCURVE",
"1210 734 CURVE SMOOTH",
"1210 161 OFFCURVE",
"947 101 OFFCURVE",
"704 101 CURVE SMOOTH",
"530 101 OFFCURVE",
"496 140 OFFCURVE",
"496 168 CURVE SMOOTH"
);
}
);
width = 1534;
},
{
anchors = (
{
name = bottom;
position = "{826, 0}";
},
{
name = center;
position = "{826, 710}";
},
{
name = top;
position = "{826, 1419}";
}
);
layerId = "62CA62AF-CD91-478A-AB8B-28A62CC47DA0";
paths = (
{
closed = 1;
nodes = (
"903 0 LINE SMOOTH",
"1203 0 OFFCURVE",
"1641 217 OFFCURVE",
"1641 738 CURVE SMOOTH",
"1641 1083 OFFCURVE",
"1375 1417 OFFCURVE",
"831 1419 CURVE",
"135 1419 LINE SMOOTH",
"112 1419 OFFCURVE",
"101 1383 OFFCURVE",
"101 1368 CURVE SMOOTH",
"101 1338 OFFCURVE",
"109 1334 OFFCURVE",
"137 1331 CURVE SMOOTH",
"198 1324 OFFCURVE",
"289 1320 OFFCURVE",
"289 1234 CURVE SMOOTH",
"289 152 LINE SMOOTH",
"289 108 OFFCURVE",
"208 93 OFFCURVE",
"144 88 CURVE",
"118 85 OFFCURVE",
"111 72 OFFCURVE",
"111 51 CURVE SMOOTH {name = hr00;}",
"111 36 OFFCURVE",
"122 0 OFFCURVE",
"145 0 CURVE SMOOTH"
);
},
{
closed = 1;
nodes = (
"627 1322 LINE",
"824 1322 LINE SMOOTH",
"1057 1322 OFFCURVE",
"1251 1229 OFFCURVE",
"1251 734 CURVE SMOOTH",
"1251 161 OFFCURVE",
"1077 101 OFFCURVE",
"834 101 CURVE SMOOTH",
"660 101 OFFCURVE",
"626 140 OFFCURVE",
"626 168 CURVE SMOOTH"
);
}
);
width = 1708;
}
);
leftKerningGroup = H;
rightKerningGroup = O;
unicode = 0044;
},
{
color = 10;
glyphname = Eth;
lastChange = "2018-07-13 20:14:48 +0000";
layers = (
{
components = (
{
name = D;
transform = "{1, 0, 0, 1, -1, 0}";
}
);
layerId = "DD6F9F34-BC40-4E8F-B1D3-DF3B42A9710F";
paths = (
{
closed = 1;
nodes = (
"787 694 LINE",
"801 700 OFFCURVE",
"811 722 OFFCURVE",
"811 747 CURVE SMOOTH",
"811 763 OFFCURVE",
"803 780 OFFCURVE",
"787 781 CURVE",
"148 781 LINE",
"134 775 OFFCURVE",
"124 753 OFFCURVE",
"124 728 CURVE SMOOTH",
"124 712 OFFCURVE",
"132 695 OFFCURVE",
"148 694 CURVE"
);
}
);
width = 1534;
},
{
components = (
{
name = D;
transform = "{1, 0, 0, 1, -28, 0}";
}
);
layerId = "62CA62AF-CD91-478A-AB8B-28A62CC47DA0";
paths = (
{
closed = 1;
nodes = (
"890 694 LINE",
"904 700 OFFCURVE",
"914 722 OFFCURVE",
"914 747 CURVE SMOOTH",
"914 763 OFFCURVE",
"906 790 OFFCURVE",
"890 791 CURVE",
"121 791 LINE",
"107 785 OFFCURVE",
"97 753 OFFCURVE",
"97 728 CURVE SMOOTH",
"97 712 OFFCURVE",
"105 695 OFFCURVE",
"121 694 CURVE"
);
}
);
width = 1708;
}
);
leftKerningGroup = H;
rightKerningGroup = O;
unicode = 00D0;
},
{
color = 10;
glyphname = E;
lastChange = "2018-07-16 15:40:07 +0000";
layers = (
{
anchors = (
{
name = bottom;
position = "{708, 0}";
},
{
name = top;
position = "{674, 1419}";
}
);
background = {
paths = (
{
closed = 1;
nodes = (
"609 0 LINE SMOOTH",
"631 0 OFFCURVE",
"643 16 OFFCURVE",
"643 31 CURVE SMOOTH",
"643 61 OFFCURVE",
"659 100 OFFCURVE",
"607 100 CURVE SMOOTH",
"558 100 OFFCURVE",
"495 111 OFFCURVE",
"495 197 CURVE SMOOTH",
"496 1335 LINE",
"600 1419 LINE",
"135 1419 LINE SMOOTH",
"112 1419 OFFCURVE",
"101 1383 OFFCURVE",
"101 1368 CURVE SMOOTH",
"101 1338 OFFCURVE",
"109 1334 OFFCURVE",
"137 1331 CURVE SMOOTH",
"198 1326 OFFCURVE",
"289 1320 OFFCURVE",
"289 1234 CURVE SMOOTH",
"288 152 LINE SMOOTH",
"288 108 OFFCURVE",
"207 93 OFFCURVE",
"143 88 CURVE SMOOTH",
"117 85 OFFCURVE",
"110 72 OFFCURVE",
"110 51 CURVE SMOOTH",
"110 36 OFFCURVE",
"121 0 OFFCURVE",
"144 0 CURVE SMOOTH"
);
},
{
closed = 1;
nodes = (
"1253 1 LINE",
"1296 372 LINE",
"1296 395 OFFCURVE",
"1281 406 OFFCURVE",
"1256 406 CURVE SMOOTH",
"1235 406 OFFCURVE",
"1207 398 OFFCURVE",
"1199 373 CURVE SMOOTH",
"1186 332 OFFCURVE",
"1072 101 OFFCURVE",
"979 101 CURVE SMOOTH",
"377 101 LINE",
"344 1 LINE"
);
},
{
closed = 1;
nodes = (
"936 470 OFFCURVE",
"962 481 OFFCURVE",
"962 504 CURVE SMOOTH",
"962 947 LINE SMOOTH",
"962 970 OFFCURVE",
"936 981 OFFCURVE",
"921 981 CURVE SMOOTH",
"900 981 OFFCURVE",
"872 974 OFFCURVE",
"869 948 CURVE SMOOTH",
"864 908 OFFCURVE",
"826 780 OFFCURVE",
"774 773 CURVE",
"399 773 LINE",
"399 687 LINE",
"768 687 LINE SMOOTH",
"824 687 OFFCURVE",
"864 546 OFFCURVE",
"869 503 CURVE SMOOTH",
"872 477 OFFCURVE",
"900 470 OFFCURVE",
"921 470 CURVE SMOOTH"
);
},
{
closed = 1;
nodes = (
"1183 1060 OFFCURVE",
"1209 1071 OFFCURVE",
"1209 1094 CURVE SMOOTH",
"1174 1418 LINE",
"600 1419 LINE",
"377 1320 LINE",
"909 1320 LINE SMOOTH",
"1017 1320 OFFCURVE",
"1110 1134 OFFCURVE",
"1115 1093 CURVE SMOOTH",
"1118 1067 OFFCURVE",
"1147 1060 OFFCURVE",
"1168 1060 CURVE SMOOTH"
);
}
);
};
layerId = "DD6F9F34-BC40-4E8F-B1D3-DF3B42A9710F";
paths = (
{
closed = 1;
nodes = (
"105 36 OFFCURVE",
"116 0 OFFCURVE",
"139 0 CURVE SMOOTH",
"1199 1 LINE",
"1249 373 LINE",
"1246 396 OFFCURVE",
"1225 407 OFFCURVE",
"1200 407 CURVE SMOOTH",
"1179 407 OFFCURVE",
"1138 399 OFFCURVE",
"1132 374 CURVE SMOOTH",
"1084 173 OFFCURVE",
"992 102 OFFCURVE",
"872 102 CURVE SMOOTH",
"587 101 LINE",
"543 105 OFFCURVE",
"498 124 OFFCURVE",
"498 197 CURVE SMOOTH",
"498 682 LINE",
"726 683 LINE SMOOTH",
"782 683 OFFCURVE",
"827 547 OFFCURVE",
"830 504 CURVE",
"833 478 OFFCURVE",
"858 471 OFFCURVE",
"879 471 CURVE SMOOTH",
"894 471 OFFCURVE",
"920 482 OFFCURVE",
"920 505 CURVE SMOOTH",
"920 948 LINE SMOOTH",
"920 971 OFFCURVE",
"894 982 OFFCURVE",
"879 982 CURVE SMOOTH",
"858 982 OFFCURVE",
"836 976 OFFCURVE",
"833 950 CURVE SMOOTH",
"828 910 OFFCURVE",
"784 786 OFFCURVE",
"732 779 CURVE",
"498 778 LINE",
"498 1320 LINE",
"838 1321 LINE SMOOTH",
"946 1321 OFFCURVE",
"964 1244 OFFCURVE",
"1044 1094 CURVE SMOOTH",
"1060 1064 OFFCURVE",
"1087 1061 OFFCURVE",
"1108 1061 CURVE SMOOTH",
"1123 1061 OFFCURVE",
"1147 1072 OFFCURVE",
"1145 1095 CURVE SMOOTH",
"1110 1420 LINE",
"130 1419 LINE SMOOTH",
"107 1419 OFFCURVE",
"96 1383 OFFCURVE",
"96 1368 CURVE SMOOTH",
"96 1338 OFFCURVE",
"104 1334 OFFCURVE",
"132 1331 CURVE SMOOTH",
"193 1324 OFFCURVE",
"284 1320 OFFCURVE",
"284 1234 CURVE SMOOTH",
"284 152 LINE SMOOTH",
"284 108 OFFCURVE",
"202 93 OFFCURVE",
"138 88 CURVE",
"112 85 OFFCURVE",
"105 72 OFFCURVE",
"105 51 CURVE SMOOTH {name = hr00;}"
);
}
);
width = 1338;
},
{
anchors = (
{
name = bottom;
position = "{800, 0}";
},
{
name = top;
position = "{791, 1419}";
}
);
layerId = "62CA62AF-CD91-478A-AB8B-28A62CC47DA0";
paths = (
{
closed = 1;
nodes = (
"110 36 OFFCURVE",
"121 0 OFFCURVE",
"144 0 CURVE SMOOTH",
"1369 0 LINE",
"1409 372 LINE",
"1406 395 OFFCURVE",
"1375 406 OFFCURVE",
"1350 406 CURVE SMOOTH",
"1329 406 OFFCURVE",
"1293 397 OFFCURVE",
"1282 373 CURVE SMOOTH",
"1190 173 OFFCURVE",
"1118 101 OFFCURVE",
"998 101 CURVE SMOOTH",
"714 101 LINE",
"670 105 OFFCURVE",
"625 124 OFFCURVE",
"625 197 CURVE SMOOTH",
"625 682 LINE",
"888 682 LINE SMOOTH",
"944 682 OFFCURVE",
"989 546 OFFCURVE",
"992 503 CURVE",
"995 477 OFFCURVE",
"1020 470 OFFCURVE",
"1041 470 CURVE SMOOTH",
"1056 470 OFFCURVE",
"1092 481 OFFCURVE",
"1092 504 CURVE SMOOTH",
"1092 947 LINE SMOOTH",
"1092 970 OFFCURVE",
"1056 981 OFFCURVE",
"1041 981 CURVE SMOOTH",
"1020 981 OFFCURVE",
"998 975 OFFCURVE",
"995 949 CURVE SMOOTH",
"990 909 OFFCURVE",
"946 785 OFFCURVE",
"894 778 CURVE",
"625 778 LINE",
"625 1320 LINE",
"1014 1320 LINE SMOOTH",
"1122 1320 OFFCURVE",
"1140 1243 OFFCURVE",
"1220 1093 CURVE SMOOTH",
"1236 1063 OFFCURVE",
"1271 1060 OFFCURVE",
"1292 1060 CURVE SMOOTH",
"1307 1060 OFFCURVE",
"1331 1071 OFFCURVE",
"1329 1094 CURVE SMOOTH",
"1294 1419 LINE",
"135 1419 LINE SMOOTH",
"112 1419 OFFCURVE",
"101 1383 OFFCURVE",
"101 1368 CURVE SMOOTH",
"101 1338 OFFCURVE",
"109 1334 OFFCURVE",
"137 1331 CURVE SMOOTH",
"198 1324 OFFCURVE",
"289 1320 OFFCURVE",
"289 1234 CURVE SMOOTH",
"289 152 LINE SMOOTH",
"289 108 OFFCURVE",
"207 93 OFFCURVE",
"143 88 CURVE",
"117 85 OFFCURVE",
"110 72 OFFCURVE",
"110 51 CURVE SMOOTH {name = hr00;}"
);
}
);
width = 1477;
}
);
leftKerningGroup = H;
rightKerningGroup = E;
unicode = 0045;
},
{
color = 10;
glyphname = Eogonek;
lastChange = "2018-07-16 02:58:20 +0000";
layers = (
{
components = (
{
name = E;
}
);
layerId = "DD6F9F34-BC40-4E8F-B1D3-DF3B42A9710F";
paths = (
{
closed = 1;
nodes = (
"1033 0 LINE",
"904 0 OFFCURVE",
"768 -89 OFFCURVE",
"768 -194 CURVE SMOOTH",
"768 -299 OFFCURVE",
"857 -370 OFFCURVE",
"987 -370 CURVE SMOOTH",
"1047 -370 OFFCURVE",
"1132 -351 OFFCURVE",
"1176 -323 CURVE SMOOTH",
"1190 -314 OFFCURVE",
"1196 -294 OFFCURVE",
"1196 -277 CURVE SMOOTH",
"1196 -258 OFFCURVE",
"1189 -241 OFFCURVE",
"1176 -243 CURVE SMOOTH",
"1142 -248 OFFCURVE",
"1126 -259 OFFCURVE",
"1094 -259 CURVE SMOOTH",
"1005 -259 OFFCURVE",
"954 -221 OFFCURVE",
"954 -160 CURVE SMOOTH",
"954 -84 OFFCURVE",
"997 -49 OFFCURVE",
"1118 0 CURVE",
"1089 50 LINE"
);
}
);
width = 1338;
},
{
components = (
{
name = E;
}
);
layerId = "62CA62AF-CD91-478A-AB8B-28A62CC47DA0";
paths = (
{
closed = 1;
nodes = (
"1109 0 LINE",
"890 -52 OFFCURVE",
"822 -157 OFFCURVE",
"822 -264 CURVE SMOOTH",
"822 -370 OFFCURVE",
"934 -444 OFFCURVE",
"1091 -444 CURVE SMOOTH",
"1164 -444 OFFCURVE",
"1268 -422 OFFCURVE",
"1320 -387 CURVE SMOOTH",
"1337 -376 OFFCURVE",
"1344 -343 OFFCURVE",
"1344 -311 CURVE SMOOTH",
"1344 -275 OFFCURVE",
"1334 -241 OFFCURVE",
"1320 -246 CURVE SMOOTH",
"1279 -260 OFFCURVE",
"1259 -265 OFFCURVE",
"1221 -265 CURVE SMOOTH",
"1113 -265 OFFCURVE",
"1072 -234 OFFCURVE",
"1072 -184 CURVE SMOOTH",
"1072 -116 OFFCURVE",
"1164 -39 OFFCURVE",
"1279 0 CURVE",
"1184 32 LINE"
);
}
);
width = 1553;
}
);
leftKerningGroup = H;
rightKerningGroup = E;
unicode = 0118;
},
{
color = 10;
glyphname = F;
lastChange = "2018-07-16 02:53:20 +0000";
layers = (
{
anchors = (
{
name = top;
position = "{690, 1419}";
}
);
layerId = "DD6F9F34-BC40-4E8F-B1D3-DF3B42A9710F";
paths = (
{
closed = 1;
nodes = (
"744 0 LINE SMOOTH",
"767 0 OFFCURVE",
"778 36 OFFCURVE",
"778 51 CURVE SMOOTH",
"778 81 OFFCURVE",
"764 88 OFFCURVE",
"742 88 CURVE SMOOTH",
"657 88 OFFCURVE",
"520 111 OFFCURVE",
"520 197 CURVE SMOOTH",
"520 655 LINE",
"778 655 LINE SMOOTH",
"834 655 OFFCURVE",
"874 514 OFFCURVE",
"879 471 CURVE SMOOTH",
"882 445 OFFCURVE",
"910 438 OFFCURVE",
"931 438 CURVE SMOOTH",
"946 438 OFFCURVE",
"972 449 OFFCURVE",
"972 472 CURVE SMOOTH",
"972 915 LINE SMOOTH",
"972 938 OFFCURVE",
"946 949 OFFCURVE",
"931 949 CURVE SMOOTH",
"910 949 OFFCURVE",
"882 942 OFFCURVE",
"879 916 CURVE SMOOTH",
"874 876 OFFCURVE",
"836 748 OFFCURVE",
"784 741 CURVE",
"520 741 LINE",
"520 1320 LINE",
"899 1320 LINE SMOOTH",
"1007 1320 OFFCURVE",
"1102 1108 OFFCURVE",
"1107 1069 CURVE SMOOTH",
"1110 1043 OFFCURVE",
"1129 1036 OFFCURVE",
"1150 1036 CURVE SMOOTH",
"1165 1036 OFFCURVE",
"1191 1047 OFFCURVE",
"1191 1070 CURVE",
"1154 1418 LINE",
"130 1419 LINE SMOOTH",
"107 1419 OFFCURVE",
"96 1383 OFFCURVE",
"96 1368 CURVE SMOOTH",
"96 1338 OFFCURVE",
"104 1334 OFFCURVE",
"132 1331 CURVE",
"205 1326 OFFCURVE",
"314 1320 OFFCURVE",
"314 1234 CURVE SMOOTH",
"313 152 LINE SMOOTH",
"313 108 OFFCURVE",
"217 93 OFFCURVE",
"138 88 CURVE",
"112 85 OFFCURVE",
"105 72 OFFCURVE",
"105 51 CURVE SMOOTH",
"105 36 OFFCURVE",
"116 0 OFFCURVE",
"139 0 CURVE SMOOTH"
);
}
);
width = 1227;
},
{
anchors = (
{
name = top;
position = "{736, 1419}";
}
);
layerId = "62CA62AF-CD91-478A-AB8B-28A62CC47DA0";
paths = (
{
closed = 1;
nodes = (
"879 0 LINE SMOOTH",
"902 0 OFFCURVE",
"913 36 OFFCURVE",
"913 51 CURVE SMOOTH",
"913 81 OFFCURVE",
"899 88 OFFCURVE",
"877 88 CURVE SMOOTH",
"792 88 OFFCURVE",
"655 111 OFFCURVE",
"655 197 CURVE SMOOTH",
"655 650 LINE",
"928 650 LINE SMOOTH",
"984 650 OFFCURVE",
"1029 514 OFFCURVE",
"1032 471 CURVE",
"1035 445 OFFCURVE",
"1060 438 OFFCURVE",
"1081 438 CURVE SMOOTH",
"1096 438 OFFCURVE",
"1122 449 OFFCURVE",
"1122 472 CURVE SMOOTH",
"1122 915 LINE SMOOTH",
"1122 938 OFFCURVE",
"1096 949 OFFCURVE",
"1081 949 CURVE SMOOTH",
"1060 949 OFFCURVE",
"1038 943 OFFCURVE",
"1035 917 CURVE SMOOTH",
"1030 877 OFFCURVE",
"986 753 OFFCURVE",
"934 746 CURVE",
"655 746 LINE",
"655 1320 LINE",
"1032 1320 LINE SMOOTH",
"1140 1320 OFFCURVE",
"1162 1219 OFFCURVE",
"1242 1069 CURVE SMOOTH",
"1258 1039 OFFCURVE",
"1298 1036 OFFCURVE",
"1319 1036 CURVE SMOOTH",
"1334 1036 OFFCURVE",
"1356 1047 OFFCURVE",
"1356 1070 CURVE",
"1317 1418 LINE",
"135 1419 LINE SMOOTH",
"112 1419 OFFCURVE",
"101 1383 OFFCURVE",
"101 1368 CURVE SMOOTH",
"101 1338 OFFCURVE",
"109 1334 OFFCURVE",
"137 1331 CURVE",
"210 1326 OFFCURVE",
"319 1320 OFFCURVE",
"319 1234 CURVE SMOOTH",
"319 152 LINE SMOOTH",
"319 108 OFFCURVE",
"222 93 OFFCURVE",
"143 88 CURVE",
"117 85 OFFCURVE",
"110 72 OFFCURVE",
"110 51 CURVE SMOOTH {name = hr00;}",
"110 36 OFFCURVE",
"121 0 OFFCURVE",
"144 0 CURVE SMOOTH"
);
}
);
width = 1375;
}
);
leftKerningGroup = H;
rightKerningGroup = F;
unicode = 0046;
},
{
color = 10;
glyphname = G;
lastChange = "2018-07-16 02:54:20 +0000";
layers = (
{
anchors = (
{
name = bottom;
position = "{785, 0}";
},
{
name = top;
position = "{789, 1419}";
}
);
layerId = "DD6F9F34-BC40-4E8F-B1D3-DF3B42A9710F";
paths = (
{
closed = 1;
nodes = (
"1078 -30 OFFCURVE",
"1257 79 OFFCURVE",
"1289 123 CURVE",
"1282 489 LINE",
"1282 533 OFFCURVE",
"1348 548 OFFCURVE",
"1407 553 CURVE SMOOTH",
"1433 555 OFFCURVE",
"1440 569 OFFCURVE",
"1440 590 CURVE SMOOTH",
"1440 605 OFFCURVE",
"1429 641 OFFCURVE",
"1406 641 CURVE SMOOTH",
"891 641 LINE SMOOTH",
"868 641 OFFCURVE",
"857 605 OFFCURVE",
"857 590 CURVE SMOOTH",
"857 560 OFFCURVE",
"865 556 OFFCURVE",
"893 553 CURVE",
"970 548 OFFCURVE",
"1079 542 OFFCURVE",
"1079 456 CURVE SMOOTH",
"1079 199 LINE SMOOTH",
"1079 135 OFFCURVE",
"1008 65 OFFCURVE",
"800 65 CURVE SMOOTH",
"630 65 OFFCURVE",
"333 217 OFFCURVE",
"333 706 CURVE SMOOTH",
"333 1260 OFFCURVE",
"629 1354 OFFCURVE",
"781 1353 CURVE SMOOTH",
"1017 1351 OFFCURVE",
"1139 1207 OFFCURVE",
"1186 1039 CURVE",
"1189 1017 OFFCURVE",
"1205 1010 OFFCURVE",
"1223 1010 CURVE SMOOTH",
"1227 1010 OFFCURVE",
"1230 1011 OFFCURVE",
"1234 1011 CURVE SMOOTH",
"1250 1011 OFFCURVE",
"1273 1028 OFFCURVE",
"1270 1051 CURVE",
"1248 1361 LINE",
"1177 1392 OFFCURVE",
"1048 1449 OFFCURVE",
"783 1449 CURVE SMOOTH",
"487 1449 OFFCURVE",
"84 1256 OFFCURVE",
"84 706 CURVE SMOOTH",
"84 153 OFFCURVE",
"482 -30 OFFCURVE",
"754 -30 CURVE SMOOTH"
);
}
);
width = 1485;
},
{
anchors = (
{
name = bottom;
position = "{890, 0}";
},
{
name = top;
position = "{894, 1419}";
}
);
layerId = "62CA62AF-CD91-478A-AB8B-28A62CC47DA0";
paths = (
{
closed = 1;
nodes = (
"1200 -30 OFFCURVE",
"1422 79 OFFCURVE",
"1452 123 CURVE",
"1451 489 LINE SMOOTH",
"1451 533 OFFCURVE",
"1501 546 OFFCURVE",
"1560 553 CURVE SMOOTH",
"1586 556 OFFCURVE",
"1593 569 OFFCURVE",
"1593 590 CURVE SMOOTH",
"1593 605 OFFCURVE",
"1582 641 OFFCURVE",
"1559 641 CURVE SMOOTH",
"934 641 LINE SMOOTH",
"911 641 OFFCURVE",
"900 605 OFFCURVE",
"900 590 CURVE SMOOTH",
"900 560 OFFCURVE",
"908 555 OFFCURVE",
"936 553 CURVE SMOOTH",
"1013 547 OFFCURVE",
"1122 542 OFFCURVE",
"1122 456 CURVE SMOOTH",
"1122 194 LINE SMOOTH",
"1122 131 OFFCURVE",
"1089 65 OFFCURVE",
"903 65 CURVE SMOOTH",
"736 65 OFFCURVE",
"456 217 OFFCURVE",
"456 706 CURVE SMOOTH",
"456 1260 OFFCURVE",
"750 1353 OFFCURVE",
"894 1353 CURVE SMOOTH",
"1138 1353 OFFCURVE",
"1238 1207 OFFCURVE",
"1284 1039 CURVE",
"1288 1017 OFFCURVE",
"1330 1010 OFFCURVE",
"1356 1010 CURVE SMOOTH",
"1362 1010 OFFCURVE",
"1366 1011 OFFCURVE",
"1370 1011 CURVE SMOOTH",
"1387 1011 OFFCURVE",
"1428 1028 OFFCURVE",
"1426 1051 CURVE SMOOTH",
"1404 1361 LINE",
"1334 1392 OFFCURVE",
"1156 1449 OFFCURVE",
"896 1449 CURVE SMOOTH",
"552 1449 OFFCURVE",
"77 1256 OFFCURVE",
"77 706 CURVE SMOOTH {name = hr00;}",
"77 153 OFFCURVE",
"570 -30 OFFCURVE",
"886 -30 CURVE SMOOTH"
);
}
);
width = 1653;
}
);
leftKerningGroup = O;
rightKerningGroup = G;
unicode = 0047;
},
{
color = 10;
glyphname = H;
lastChange = "2018-07-16 04:06:35 +0000";
layers = (
{
anchors = (
{
name = bottom;
position = "{832, 0}";
},
{
name = center;
position = "{832, 710}";
},
{
name = top;
position = "{832, 1419}";
},
{
name = topleft;
position = "{17, 1419}";
}
);
layerId = "DD6F9F34-BC40-4E8F-B1D3-DF3B42A9710F";
paths = (
{
closed = 1;
nodes = (
"631 0 LINE SMOOTH",
"654 0 OFFCURVE",
"665 36 OFFCURVE",
"665 51 CURVE SMOOTH",
"665 81 OFFCURVE",
"657 85 OFFCURVE",
"629 88 CURVE SMOOTH",
"568 95 OFFCURVE",
"477 99 OFFCURVE",
"477 185 CURVE SMOOTH",
"478 1267 LINE SMOOTH",
"478 1311 OFFCURVE",
"559 1326 OFFCURVE",
"623 1331 CURVE SMOOTH",
"649 1333 OFFCURVE",
"656 1347 OFFCURVE",
"656 1368 CURVE SMOOTH",
"656 1383 OFFCURVE",
"645 1419 OFFCURVE",
"622 1419 CURVE SMOOTH",
"130 1419 LINE SMOOTH",
"107 1419 OFFCURVE",
"96 1383 OFFCURVE",
"96 1368 CURVE SMOOTH",
"96 1338 OFFCURVE",
"104 1334 OFFCURVE",
"132 1331 CURVE SMOOTH",
"193 1324 OFFCURVE",
"274 1320 OFFCURVE",
"274 1234 CURVE",
"273 152 LINE SMOOTH",
"273 108 OFFCURVE",
"202 93 OFFCURVE",
"138 88 CURVE SMOOTH",
"112 86 OFFCURVE",
"105 72 OFFCURVE",
"105 51 CURVE SMOOTH",
"105 36 OFFCURVE",
"116 0 OFFCURVE",
"139 0 CURVE SMOOTH"
);
},
{
closed = 1;
nodes = (
"1539 0 LINE SMOOTH",
"1562 0 OFFCURVE",
"1573 36 OFFCURVE",
"1573 51 CURVE SMOOTH",
"1573 81 OFFCURVE",
"1565 85 OFFCURVE",
"1537 88 CURVE SMOOTH",
"1476 95 OFFCURVE",
"1385 99 OFFCURVE",
"1385 185 CURVE SMOOTH",
"1386 1267 LINE SMOOTH",
"1386 1311 OFFCURVE",
"1467 1326 OFFCURVE",
"1531 1331 CURVE SMOOTH",
"1557 1333 OFFCURVE",
"1564 1347 OFFCURVE",
"1564 1368 CURVE SMOOTH",
"1564 1383 OFFCURVE",
"1553 1419 OFFCURVE",
"1530 1419 CURVE SMOOTH",
"1028 1419 LINE SMOOTH",
"1005 1419 OFFCURVE",
"994 1383 OFFCURVE",
"994 1368 CURVE SMOOTH",
"994 1338 OFFCURVE",
"1002 1334 OFFCURVE",
"1030 1331 CURVE SMOOTH",
"1091 1324 OFFCURVE",
"1182 1320 OFFCURVE",
"1182 1234 CURVE SMOOTH",
"1181 152 LINE SMOOTH",
"1181 108 OFFCURVE",
"1100 93 OFFCURVE",
"1036 88 CURVE SMOOTH",
"1010 86 OFFCURVE",
"1003 72 OFFCURVE",
"1003 51 CURVE SMOOTH",
"1003 36 OFFCURVE",
"1014 0 OFFCURVE",
"1037 0 CURVE SMOOTH"
);
},
{
closed = 1;
nodes = (
"1219 700 LINE",
"1219 796 LINE",
"416 796 LINE",
"416 700 LINE"
);
}
);
width = 1669;
},
{
anchors = (
{
name = bottom;
position = "{931, 0}";
},
{
name = center;
position = "{931, 710}";
},
{
name = top;
position = "{931, 1419}";
},
{
name = topleft;
position = "{16, 1419}";
}
);
layerId = "62CA62AF-CD91-478A-AB8B-28A62CC47DA0";
paths = (
{
closed = 1;
nodes = (
"769 0 LINE SMOOTH",
"792 0 OFFCURVE",
"803 36 OFFCURVE",
"803 51 CURVE SMOOTH",
"803 81 OFFCURVE",
"795 85 OFFCURVE",
"767 88 CURVE SMOOTH",
"706 93 OFFCURVE",
"616 99 OFFCURVE",
"616 185 CURVE SMOOTH",
"616 1267 LINE SMOOTH",
"616 1311 OFFCURVE",
"693 1326 OFFCURVE",
"761 1331 CURVE",
"787 1334 OFFCURVE",
"794 1347 OFFCURVE",
"794 1368 CURVE SMOOTH",
"794 1383 OFFCURVE",
"783 1419 OFFCURVE",
"760 1419 CURVE SMOOTH",
"135 1419 LINE SMOOTH",
"112 1419 OFFCURVE",
"101 1383 OFFCURVE",
"101 1368 CURVE SMOOTH",
"101 1338 OFFCURVE",
"109 1334 OFFCURVE",
"137 1331 CURVE SMOOTH",
"198 1326 OFFCURVE",
"279 1320 OFFCURVE",
"279 1234 CURVE SMOOTH",
"279 152 LINE SMOOTH",
"279 108 OFFCURVE",
"207 93 OFFCURVE",
"143 88 CURVE",
"117 85 OFFCURVE",
"110 72 OFFCURVE",
"110 51 CURVE SMOOTH {name = hr00;}",
"110 36 OFFCURVE",
"121 0 OFFCURVE",
"144 0 CURVE SMOOTH"
);
},
{
closed = 1;
nodes = (
"1735 0 LINE SMOOTH",
"1758 0 OFFCURVE",
"1769 36 OFFCURVE",
"1769 51 CURVE SMOOTH",
"1769 81 OFFCURVE",
"1761 85 OFFCURVE",
"1733 88 CURVE SMOOTH",
"1672 95 OFFCURVE",
"1582 99 OFFCURVE",
"1582 185 CURVE SMOOTH",
"1582 1267 LINE SMOOTH",
"1582 1311 OFFCURVE",
"1659 1326 OFFCURVE",
"1727 1331 CURVE",
"1753 1334 OFFCURVE",
"1760 1347 OFFCURVE",
"1760 1368 CURVE SMOOTH",
"1760 1383 OFFCURVE",
"1749 1419 OFFCURVE",
"1726 1419 CURVE SMOOTH",
"1091 1419 LINE SMOOTH",
"1068 1419 OFFCURVE",
"1057 1383 OFFCURVE",
"1057 1368 CURVE SMOOTH",
"1057 1338 OFFCURVE",
"1065 1334 OFFCURVE",
"1093 1331 CURVE SMOOTH",
"1154 1324 OFFCURVE",
"1245 1320 OFFCURVE",
"1245 1234 CURVE SMOOTH",
"1245 152 LINE SMOOTH",
"1245 108 OFFCURVE",
"1163 93 OFFCURVE",
"1099 88 CURVE",
"1073 85 OFFCURVE",
"1066 72 OFFCURVE",
"1066 51 CURVE SMOOTH",
"1066 36 OFFCURVE",
"1077 0 OFFCURVE",
"1100 0 CURVE SMOOTH"
);
},
{
closed = 1;
nodes = (
"1331 692 LINE",
"1331 814 LINE",
"534 814 LINE",
"534 692 LINE"
);
}
);
width = 1870;
}
);
leftKerningGroup = H;
rightKerningGroup = H;
unicode = 0048;
},
{
color = 10;
glyphname = Hbar;
lastChange = "2018-07-16 02:53:30 +0000";
layers = (
{
anchors = (
{
name = bottom;
position = "{832, 0}";
},
{
name = center;
position = "{832, 710}";
},
{
name = top;
position = "{832, 1419}";
},
{
name = topleft;
position = "{17, 1419}";
}
);
layerId = "DD6F9F34-BC40-4E8F-B1D3-DF3B42A9710F";
paths = (
{
closed = 1;
nodes = (
"1541 0 LINE SMOOTH",
"1564 0 OFFCURVE",
"1575 36 OFFCURVE",
"1575 51 CURVE SMOOTH",
"1575 81 OFFCURVE",
"1567 85 OFFCURVE",
"1539 88 CURVE SMOOTH",
"1478 93 OFFCURVE",
"1387 99 OFFCURVE",
"1387 185 CURVE SMOOTH",
"1388 1267 LINE SMOOTH",
"1388 1311 OFFCURVE",
"1469 1326 OFFCURVE",
"1533 1331 CURVE SMOOTH",
"1559 1334 OFFCURVE",
"1566 1347 OFFCURVE",
"1566 1368 CURVE SMOOTH",
"1566 1383 OFFCURVE",
"1555 1419 OFFCURVE",
"1532 1419 CURVE SMOOTH",
"1027 1419 LINE SMOOTH",
"1004 1419 OFFCURVE",
"993 1383 OFFCURVE",
"993 1368 CURVE SMOOTH",
"993 1338 OFFCURVE",
"1001 1334 OFFCURVE",
"1029 1331 CURVE SMOOTH",
"1090 1326 OFFCURVE",
"1181 1320 OFFCURVE",
"1181 1234 CURVE SMOOTH",
"1180 152 LINE SMOOTH",
"1180 108 OFFCURVE",
"1099 93 OFFCURVE",
"1035 88 CURVE SMOOTH",
"1009 85 OFFCURVE",
"1002 72 OFFCURVE",
"1002 51 CURVE SMOOTH",
"1002 36 OFFCURVE",
"1013 0 OFFCURVE",
"1036 0 CURVE SMOOTH"
);
},
{
closed = 1;
nodes = (
"636 0 LINE SMOOTH",
"659 0 OFFCURVE",
"670 36 OFFCURVE",
"670 51 CURVE SMOOTH",
"670 81 OFFCURVE",
"662 85 OFFCURVE",
"634 88 CURVE SMOOTH",
"573 93 OFFCURVE",
"482 99 OFFCURVE",
"482 185 CURVE SMOOTH",
"483 1267 LINE SMOOTH",
"483 1311 OFFCURVE",
"564 1326 OFFCURVE",
"628 1331 CURVE SMOOTH",
"654 1334 OFFCURVE",
"661 1347 OFFCURVE",
"661 1368 CURVE SMOOTH",
"661 1383 OFFCURVE",
"650 1419 OFFCURVE",
"627 1419 CURVE SMOOTH",
"132 1419 LINE SMOOTH",
"109 1419 OFFCURVE",
"98 1383 OFFCURVE",
"98 1368 CURVE SMOOTH",
"98 1338 OFFCURVE",
"106 1334 OFFCURVE",
"134 1331 CURVE SMOOTH",
"195 1326 OFFCURVE",
"276 1320 OFFCURVE",
"276 1234 CURVE",
"275 152 LINE SMOOTH",
"275 108 OFFCURVE",
"204 93 OFFCURVE",
"140 88 CURVE SMOOTH",
"114 85 OFFCURVE",
"107 72 OFFCURVE",
"107 51 CURVE SMOOTH",
"107 36 OFFCURVE",
"118 0 OFFCURVE",
"141 0 CURVE SMOOTH"
);
},
{
closed = 1;
nodes = (
"1218 545 LINE",
"1218 631 LINE",
"421 631 LINE",
"421 545 LINE"
);
},
{
closed = 1;
nodes = (
"1569 887 LINE",
"1583 893 OFFCURVE",
"1593 935 OFFCURVE",
"1593 960 CURVE SMOOTH",
"1593 976 OFFCURVE",
"1585 993 OFFCURVE",
"1569 994 CURVE",
"123 994 LINE",
"109 988 OFFCURVE",
"99 966 OFFCURVE",
"99 941 CURVE SMOOTH",
"99 925 OFFCURVE",
"107 888 OFFCURVE",
"123 887 CURVE"
);
}
);
width = 1669;
},
{
anchors = (
{
name = bottom;
position = "{902, 0}";
},
{
name = center;
position = "{902, 710}";
},
{
name = top;
position = "{902, 1419}";
},
{
name = topleft;
position = "{-13, 1419}";
}
);
layerId = "62CA62AF-CD91-478A-AB8B-28A62CC47DA0";
paths = (
{
closed = 1;
nodes = (
"1707 0 LINE SMOOTH",
"1730 0 OFFCURVE",
"1741 36 OFFCURVE",
"1741 51 CURVE SMOOTH",
"1741 81 OFFCURVE",
"1733 85 OFFCURVE",
"1705 88 CURVE SMOOTH",
"1644 93 OFFCURVE",
"1554 99 OFFCURVE",
"1554 185 CURVE SMOOTH",
"1554 1267 LINE SMOOTH",
"1554 1311 OFFCURVE",
"1631 1326 OFFCURVE",
"1699 1331 CURVE",
"1725 1334 OFFCURVE",
"1732 1347 OFFCURVE",
"1732 1368 CURVE SMOOTH",
"1732 1383 OFFCURVE",
"1721 1419 OFFCURVE",
"1698 1419 CURVE SMOOTH",
"1063 1419 LINE SMOOTH",
"1040 1419 OFFCURVE",
"1029 1383 OFFCURVE",
"1029 1368 CURVE SMOOTH",
"1029 1338 OFFCURVE",
"1037 1334 OFFCURVE",
"1065 1331 CURVE SMOOTH",
"1126 1326 OFFCURVE",
"1217 1320 OFFCURVE",
"1217 1234 CURVE SMOOTH",
"1217 152 LINE SMOOTH",
"1217 108 OFFCURVE",
"1135 93 OFFCURVE",
"1071 88 CURVE",
"1045 85 OFFCURVE",
"1038 72 OFFCURVE",
"1038 51 CURVE SMOOTH",
"1038 36 OFFCURVE",
"1049 0 OFFCURVE",
"1072 0 CURVE SMOOTH"
);
},
{
closed = 1;
nodes = (
"740 0 LINE SMOOTH",
"763 0 OFFCURVE",
"774 36 OFFCURVE",
"774 51 CURVE SMOOTH",
"774 81 OFFCURVE",
"766 85 OFFCURVE",
"738 88 CURVE SMOOTH",
"677 93 OFFCURVE",
"587 99 OFFCURVE",
"587 185 CURVE SMOOTH",
"587 1267 LINE SMOOTH",
"587 1311 OFFCURVE",
"664 1326 OFFCURVE",
"732 1331 CURVE",
"758 1334 OFFCURVE",
"765 1347 OFFCURVE",
"765 1368 CURVE SMOOTH",
"765 1383 OFFCURVE",
"754 1419 OFFCURVE",
"731 1419 CURVE SMOOTH",
"106 1419 LINE SMOOTH",
"83 1419 OFFCURVE",
"72 1383 OFFCURVE",
"72 1368 CURVE SMOOTH",
"72 1338 OFFCURVE",
"80 1334 OFFCURVE",
"108 1331 CURVE SMOOTH",
"169 1326 OFFCURVE",
"250 1320 OFFCURVE",
"250 1234 CURVE SMOOTH",
"250 152 LINE SMOOTH",
"250 108 OFFCURVE",
"178 93 OFFCURVE",
"114 88 CURVE",
"88 85 OFFCURVE",
"81 72 OFFCURVE",
"81 51 CURVE SMOOTH {name = hr00;}",
"81 36 OFFCURVE",
"92 0 OFFCURVE",
"115 0 CURVE SMOOTH"
);
},
{
closed = 1;
nodes = (
"1302 493 LINE",
"1302 629 LINE",
"505 629 LINE",
"505 493 LINE"
);
},
{
closed = 1;
nodes = (
"1731 887 LINE",
"1745 893 OFFCURVE",
"1755 935 OFFCURVE",
"1755 960 CURVE SMOOTH",
"1755 976 OFFCURVE",
"1747 993 OFFCURVE",
"1731 994 CURVE",
"93 994 LINE",
"79 988 OFFCURVE",
"69 966 OFFCURVE",
"69 941 CURVE SMOOTH",
"69 925 OFFCURVE",
"77 888 OFFCURVE",
"93 887 CURVE"
);
}
);
width = 1870;
}
);
leftKerningGroup = H;
rightKerningGroup = H;
unicode = 0126;
},
{
color = 10;
glyphname = I;
lastChange = "2018-07-16 02:57:01 +0000";
layers = (
{
anchors = (
{
name = bottom;
position = "{410, 0}";
},
{
name = ogonek;
position = "{689, 10}";
},
{
name = top;
position = "{397, 1419}";
},
{
name = topleft;
position = "{-9, 1419}";
}
);
layerId = "DD6F9F34-BC40-4E8F-B1D3-DF3B42A9710F";
paths = (
{
closed = 1;
nodes = (
"656 0 LINE SMOOTH",
"679 0 OFFCURVE",
"690 36 OFFCURVE",
"690 51 CURVE SMOOTH",
"690 81 OFFCURVE",
"682 85 OFFCURVE",
"654 88 CURVE SMOOTH",
"593 95 OFFCURVE",
"502 99 OFFCURVE",
"502 185 CURVE SMOOTH",
"503 1267 LINE SMOOTH",
"503 1311 OFFCURVE",
"584 1326 OFFCURVE",
"648 1331 CURVE SMOOTH",
"674 1333 OFFCURVE",
"681 1347 OFFCURVE",
"681 1368 CURVE SMOOTH",
"681 1383 OFFCURVE",
"670 1419 OFFCURVE",
"647 1419 CURVE SMOOTH",
"142 1419 LINE SMOOTH",
"119 1419 OFFCURVE",
"108 1383 OFFCURVE",
"108 1368 CURVE SMOOTH",
"108 1338 OFFCURVE",
"116 1334 OFFCURVE",
"144 1331 CURVE SMOOTH",
"205 1324 OFFCURVE",
"296 1320 OFFCURVE",
"296 1234 CURVE SMOOTH",
"295 152 LINE SMOOTH",
"295 108 OFFCURVE",
"214 93 OFFCURVE",
"150 88 CURVE SMOOTH",
"124 86 OFFCURVE",
"117 72 OFFCURVE",
"117 51 CURVE SMOOTH",
"117 36 OFFCURVE",
"128 0 OFFCURVE",
"151 0 CURVE SMOOTH"
);
}
);
width = 798;
},
{
anchors = (
{
name = bottom;
position = "{467, 0}";
},
{
name = ogonek;
position = "{823, 10}";
},
{
name = top;
position = "{456, 1419}";
},
{
name = topleft;
position = "{21, 1419}";
}
);
layerId = "62CA62AF-CD91-478A-AB8B-28A62CC47DA0";
paths = (
{
closed = 1;
nodes = (
"779 0 LINE SMOOTH",
"802 0 OFFCURVE",
"813 36 OFFCURVE",
"813 51 CURVE SMOOTH",
"813 81 OFFCURVE",
"805 85 OFFCURVE",
"777 88 CURVE SMOOTH",
"716 93 OFFCURVE",
"625 99 OFFCURVE",
"625 185 CURVE SMOOTH",
"626 1267 LINE SMOOTH",
"626 1311 OFFCURVE",
"703 1326 OFFCURVE",
"771 1331 CURVE SMOOTH",
"797 1334 OFFCURVE",
"804 1347 OFFCURVE",
"804 1368 CURVE SMOOTH",
"804 1383 OFFCURVE",
"793 1419 OFFCURVE",
"770 1419 CURVE SMOOTH",
"135 1419 LINE SMOOTH",
"112 1419 OFFCURVE",
"101 1383 OFFCURVE",
"101 1368 CURVE SMOOTH",
"101 1338 OFFCURVE",
"109 1334 OFFCURVE",
"137 1331 CURVE SMOOTH",
"198 1326 OFFCURVE",
"289 1320 OFFCURVE",
"289 1234 CURVE SMOOTH",
"288 152 LINE SMOOTH",
"288 108 OFFCURVE",
"207 93 OFFCURVE",
"143 88 CURVE SMOOTH",
"117 85 OFFCURVE",
"110 72 OFFCURVE",
"110 51 CURVE SMOOTH {name = hr00;}",
"110 36 OFFCURVE",
"121 0 OFFCURVE",
"144 0 CURVE SMOOTH"
);
}
);
width = 913;
}
);
leftKerningGroup = I;
rightKerningGroup = I;
unicode = 0049;
},
{
color = 10;
glyphname = Iogonek;
lastChange = "2018-07-16 04:16:58 +0000";
layers = (
{
components = (
{
name = I;
}
);
layerId = "DD6F9F34-BC40-4E8F-B1D3-DF3B42A9710F";
paths = (
{
closed = 1;
nodes = (
"383 0 LINE",
"231 -36 OFFCURVE",
"138 -119 OFFCURVE",
"138 -224 CURVE SMOOTH",
"138 -329 OFFCURVE",
"247 -407 OFFCURVE",
"377 -407 CURVE SMOOTH",
"437 -407 OFFCURVE",
"523 -389 OFFCURVE",
"566 -360 CURVE SMOOTH",
"580 -351 OFFCURVE",
"586 -323 OFFCURVE",
"586 -297 CURVE SMOOTH",
"586 -268 OFFCURVE",
"579 -241 OFFCURVE",
"566 -243 CURVE SMOOTH",
"532 -249 OFFCURVE",
"516 -259 OFFCURVE",
"484 -259 CURVE SMOOTH",
"395 -259 OFFCURVE",
"361 -233 OFFCURVE",
"361 -172 CURVE SMOOTH",
"361 -96 OFFCURVE",
"436 -32 OFFCURVE",
"532 0 CURVE",
"495 69 LINE"
);
}
);
width = 798;
},
{
components = (
{
name = I;
}
);
layerId = "62CA62AF-CD91-478A-AB8B-28A62CC47DA0";
paths = (
{
closed = 1;
nodes = (
"443 0 LINE",
"224 -52 OFFCURVE",
"156 -157 OFFCURVE",
"156 -264 CURVE SMOOTH",
"156 -370 OFFCURVE",
"268 -444 OFFCURVE",
"425 -444 CURVE SMOOTH",
"498 -444 OFFCURVE",
"602 -422 OFFCURVE",
"654 -387 CURVE SMOOTH",
"671 -376 OFFCURVE",
"678 -343 OFFCURVE",
"678 -311 CURVE SMOOTH",
"678 -275 OFFCURVE",
"668 -241 OFFCURVE",
"654 -246 CURVE SMOOTH",
"613 -260 OFFCURVE",
"593 -265 OFFCURVE",
"555 -265 CURVE SMOOTH",
"447 -265 OFFCURVE",
"406 -234 OFFCURVE",
"406 -184 CURVE SMOOTH",
"406 -116 OFFCURVE",
"498 -39 OFFCURVE",
"613 0 CURVE",
"518 32 LINE"
);
}
);
width = 913;
}
);
leftKerningGroup = I;
rightKerningGroup = I;
unicode = 012E;
},
{
color = 10;
glyphname = J;
lastChange = "2018-07-16 03:50:42 +0000";
layers = (
{
anchors = (
{
name = bottom;
position = "{403, 0}";
},
{
name = top;
position = "{713, 1419}";
}
);
layerId = "DD6F9F34-BC40-4E8F-B1D3-DF3B42A9710F";
paths = (
{
closed = 1;
nodes = (
"542 -30 OFFCURVE",
"813 48 OFFCURVE",
"813 439 CURVE SMOOTH",
"813 1267 LINE SMOOTH",
"813 1311 OFFCURVE",
"880 1326 OFFCURVE",
"939 1331 CURVE SMOOTH",
"965 1333 OFFCURVE",
"972 1347 OFFCURVE",
"972 1368 CURVE SMOOTH",
"972 1383 OFFCURVE",
"961 1419 OFFCURVE",
"938 1419 CURVE SMOOTH",
"473 1419 LINE SMOOTH",
"450 1419 OFFCURVE",
"439 1383 OFFCURVE",
"439 1368 CURVE SMOOTH",
"439 1338 OFFCURVE",
"447 1334 OFFCURVE",
"475 1331 CURVE",
"548 1326 OFFCURVE",
"607 1320 OFFCURVE",
"607 1234 CURVE SMOOTH",
"606 406 LINE SMOOTH",
"606 161 OFFCURVE",
"522 59 OFFCURVE",
"382 59 CURVE SMOOTH",
"314 59 OFFCURVE",
"258 82 OFFCURVE",
"218 113 CURVE",
"262 439 LINE",
"262 453 OFFCURVE",
"229 471 OFFCURVE",
"188 471 CURVE SMOOTH",
"95 471 OFFCURVE",
"31 397 OFFCURVE",
"31 278 CURVE SMOOTH",
"31 213 OFFCURVE",
"52 137 OFFCURVE",
"115 76 CURVE",
"203 1 OFFCURVE",
"301 -30 OFFCURVE",
"391 -30 CURVE SMOOTH"
);
}
);
width = 1060;
},
{
anchors = (
{
name = bottom;
position = "{477, 0}";
},
{
name = top;
position = "{790, 1419}";
}
);
layerId = "62CA62AF-CD91-478A-AB8B-28A62CC47DA0";
paths = (
{
closed = 1;
nodes = (
"656 -30 OFFCURVE",
"961 48 OFFCURVE",
"961 439 CURVE SMOOTH",
"961 1267 LINE SMOOTH",
"961 1311 OFFCURVE",
"1026 1327 OFFCURVE",
"1127 1331 CURVE SMOOTH",
"1153 1332 OFFCURVE",
"1160 1347 OFFCURVE",
"1160 1368 CURVE SMOOTH",
"1160 1383 OFFCURVE",
"1149 1419 OFFCURVE",
"1126 1419 CURVE SMOOTH",
"421 1419 LINE SMOOTH",
"398 1419 OFFCURVE",
"387 1383 OFFCURVE",
"387 1368 CURVE SMOOTH",
"387 1338 OFFCURVE",
"395 1334 OFFCURVE",
"423 1331 CURVE",
"504 1326 OFFCURVE",
"625 1320 OFFCURVE",
"625 1234 CURVE SMOOTH",
"624 406 LINE SMOOTH",
"624 161 OFFCURVE",
"561 59 OFFCURVE",
"420 59 CURVE SMOOTH",
"370 59 OFFCURVE",
"327 69 OFFCURVE",
"291 84 CURVE",
"350 462 LINE",
"350 497 OFFCURVE",
"302 541 OFFCURVE",
"226 541 CURVE SMOOTH",
"90 541 OFFCURVE",
"19 455 OFFCURVE",
"19 318 CURVE SMOOTH",
"19 238 OFFCURVE",
"48 153 OFFCURVE",
"117 94 CURVE SMOOTH {name = hr00;}",
"211 13 OFFCURVE",
"333 -30 OFFCURVE",
"429 -30 CURVE SMOOTH"
);
}
);
width = 1219;
}
);
leftKerningGroup = J;
rightKerningGroup = U;
unicode = 004A;
},
{
color = 10;
glyphname = K;
lastChange = "2018-07-16 03:53:59 +0000";
layers = (
{
anchors = (
{
name = bottom;
position = "{771, 0}";
},
{
name = top;
position = "{760, 1419}";
}
);
layerId = "DD6F9F34-BC40-4E8F-B1D3-DF3B42A9710F";
paths = (
{
closed = 1;
nodes = (
"634 0 LINE SMOOTH",
"657 0 OFFCURVE",
"668 36 OFFCURVE",
"668 51 CURVE SMOOTH",
"668 81 OFFCURVE",
"660 85 OFFCURVE",
"632 88 CURVE SMOOTH",
"571 95 OFFCURVE",
"490 99 OFFCURVE",
"490 185 CURVE SMOOTH",
"491 1267 LINE SMOOTH",
"491 1311 OFFCURVE",
"562 1326 OFFCURVE",
"626 1331 CURVE",
"652 1334 OFFCURVE",
"659 1347 OFFCURVE",
"659 1368 CURVE SMOOTH",
"659 1383 OFFCURVE",
"648 1419 OFFCURVE",
"625 1419 CURVE SMOOTH",
"130 1419 LINE SMOOTH",
"107 1419 OFFCURVE",
"96 1383 OFFCURVE",
"96 1368 CURVE SMOOTH",
"96 1338 OFFCURVE",
"104 1334 OFFCURVE",
"132 1331 CURVE SMOOTH",
"193 1324 OFFCURVE",
"284 1320 OFFCURVE",
"284 1234 CURVE SMOOTH",
"283 152 LINE SMOOTH",
"283 108 OFFCURVE",
"202 93 OFFCURVE",
"138 88 CURVE",
"112 85 OFFCURVE",
"105 72 OFFCURVE",
"105 51 CURVE SMOOTH",
"105 36 OFFCURVE",
"116 0 OFFCURVE",
"139 0 CURVE SMOOTH"
);
},
{
closed = 1;
nodes = (
"1399 0 LINE SMOOTH",
"1421 0 OFFCURVE",
"1433 17 OFFCURVE",
"1433 32 CURVE SMOOTH",
"1433 62 OFFCURVE",
"1425 86 OFFCURVE",
"1397 89 CURVE SMOOTH",
"1348 94 OFFCURVE",
"1249 157 OFFCURVE",
"1201 222 CURVE SMOOTH",
"1080 386 OFFCURVE",
"866 689 OFFCURVE",
"738 773 CURVE",
"1147 1263 LINE",
"1200 1302 OFFCURVE",
"1276 1330 OFFCURVE",
"1344 1330 CURVE SMOOTH",
"1366 1330 OFFCURVE",
"1377 1343 OFFCURVE",
"1377 1367 CURVE SMOOTH",
"1377 1382 OFFCURVE",
"1366 1418 OFFCURVE",
"1343 1418 CURVE SMOOTH",
"911 1418 LINE SMOOTH",
"888 1418 OFFCURVE",
"877 1382 OFFCURVE",
"877 1367 CURVE SMOOTH",
"877 1346 OFFCURVE",
"882 1333 OFFCURVE",
"908 1330 CURVE SMOOTH",
"944 1326 OFFCURVE",
"1022 1321 OFFCURVE",
"1022 1293 CURVE SMOOTH",
"1022 1288 OFFCURVE",
"1020 1283 OFFCURVE",
"1014 1276 CURVE SMOOTH",
"531 692 LINE",
"674 674 OFFCURVE",
"873 304 OFFCURVE",
"1002 114 CURVE SMOOTH",
"1048 46 OFFCURVE",
"1094 0 OFFCURVE",
"1139 0 CURVE SMOOTH"
);
}
);
width = 1422;
},
{
anchors = (
{
name = bottom;
position = "{915, 0}";
},
{
name = top;
position = "{913, 1419}";
}
);
layerId = "62CA62AF-CD91-478A-AB8B-28A62CC47DA0";
paths = (
{
closed = 1;
nodes = (
"769 0 LINE SMOOTH",
"792 0 OFFCURVE",
"803 36 OFFCURVE",
"803 51 CURVE SMOOTH",
"803 81 OFFCURVE",
"795 85 OFFCURVE",
"767 88 CURVE SMOOTH",
"706 95 OFFCURVE",
"625 99 OFFCURVE",
"625 185 CURVE SMOOTH",
"626 1267 LINE SMOOTH",
"626 1311 OFFCURVE",
"707 1327 OFFCURVE",
"761 1331 CURVE SMOOTH",
"787 1333 OFFCURVE",
"794 1347 OFFCURVE",
"794 1368 CURVE SMOOTH",
"794 1383 OFFCURVE",
"783 1419 OFFCURVE",
"760 1419 CURVE SMOOTH",
"135 1419 LINE SMOOTH",
"112 1419 OFFCURVE",
"101 1383 OFFCURVE",
"101 1368 CURVE SMOOTH",
"101 1338 OFFCURVE",
"109 1334 OFFCURVE",
"137 1331 CURVE SMOOTH",
"198 1324 OFFCURVE",
"289 1320 OFFCURVE",
"289 1234 CURVE SMOOTH",
"288 162 LINE SMOOTH",
"288 118 OFFCURVE",
"207 93 OFFCURVE",
"143 88 CURVE",
"117 85 OFFCURVE",
"110 72 OFFCURVE",
"110 51 CURVE SMOOTH {name = hr00;}",
"110 36 OFFCURVE",
"121 0 OFFCURVE",
"144 0 CURVE SMOOTH"
);
},
{
closed = 1;
nodes = (
"1612 0 LINE SMOOTH",
"1634 0 OFFCURVE",
"1646 31 OFFCURVE",
"1646 46 CURVE SMOOTH",
"1646 76 OFFCURVE",
"1638 86 OFFCURVE",
"1610 89 CURVE SMOOTH",
"1561 94 OFFCURVE",
"1465 156 OFFCURVE",
"1368 293 CURVE SMOOTH",
"1242 472 OFFCURVE",
"1021 760 OFFCURVE",
"916 807 CURVE",
"1351 1260 LINE SMOOTH",
"1396 1307 OFFCURVE",
"1484 1330 OFFCURVE",
"1552 1330 CURVE SMOOTH",
"1574 1330 OFFCURVE",
"1585 1343 OFFCURVE",
"1585 1367 CURVE SMOOTH",
"1585 1382 OFFCURVE",
"1574 1418 OFFCURVE",
"1551 1418 CURVE SMOOTH",
"1069 1418 LINE SMOOTH",
"1046 1418 OFFCURVE",
"1035 1382 OFFCURVE",
"1035 1367 CURVE SMOOTH",
"1035 1346 OFFCURVE",
"1040 1333 OFFCURVE",
"1066 1330 CURVE SMOOTH",
"1103 1326 OFFCURVE",
"1181 1321 OFFCURVE",
"1181 1294 CURVE SMOOTH",
"1181 1289 OFFCURVE",
"1178 1283 OFFCURVE",
"1172 1276 CURVE SMOOTH",
"633 692 LINE",
"796 704 OFFCURVE",
"931 324 OFFCURVE",
"1082 122 CURVE SMOOTH",
"1136 50 OFFCURVE",
"1191 0 OFFCURVE",
"1248 0 CURVE SMOOTH"
);
}
);
width = 1673;
}
);
leftKerningGroup = H;
rightKerningGroup = K;
unicode = 004B;
},
{
color = 10;
glyphname = L;
lastChange = "2018-07-16 04:17:44 +0000";
layers = (
{
anchors = (
{
name = bottom;
position = "{615, 0}";
},
{
name = center;
position = "{615, 710}";
},
{
name = top;
position = "{615, 1419}";
},
{
name = topright;
position = "{1005, 994}";
}
);
layerId = "DD6F9F34-BC40-4E8F-B1D3-DF3B42A9710F";
paths = (
{
closed = 1;
nodes = (
"1146 1 LINE",
"1205 439 LINE SMOOTH",
"1208 462 OFFCURVE",
"1190 473 OFFCURVE",
"1165 473 CURVE SMOOTH",
"1144 473 OFFCURVE",
"1125 464 OFFCURVE",
"1117 440 CURVE SMOOTH",
"1069 295 OFFCURVE",
"970 101 OFFCURVE",
"877 101 CURVE SMOOTH",
"582 101 LINE SMOOTH",
"533 101 OFFCURVE",
"490 111 OFFCURVE",
"490 177 CURVE SMOOTH",
"491 1237 LINE SMOOTH",
"491 1311 OFFCURVE",
"580 1331 OFFCURVE",
"646 1331 CURVE SMOOTH",
"672 1331 OFFCURVE",
"679 1347 OFFCURVE",
"679 1368 CURVE SMOOTH",
"679 1383 OFFCURVE",
"668 1419 OFFCURVE",
"645 1419 CURVE SMOOTH",
"130 1419 LINE SMOOTH",
"107 1419 OFFCURVE",
"96 1383 OFFCURVE",
"96 1368 CURVE SMOOTH",
"96 1338 OFFCURVE",
"104 1334 OFFCURVE",
"132 1331 CURVE SMOOTH",
"193 1324 OFFCURVE",
"284 1320 OFFCURVE",
"284 1234 CURVE SMOOTH",
"283 152 LINE SMOOTH",
"283 108 OFFCURVE",
"202 93 OFFCURVE",
"138 88 CURVE",
"112 85 OFFCURVE",
"105 72 OFFCURVE",
"105 51 CURVE SMOOTH",
"105 36 OFFCURVE",
"116 0 OFFCURVE",
"139 0 CURVE"
);
}
);
width = 1236;
},
{
anchors = (
{
name = bottom;
position = "{677, 0}";
},
{
name = center;
position = "{677, 710}";
},
{
name = top;
position = "{677, 1419}";
},
{
name = topright;
position = "{1115, 975}";
}
);
layerId = "62CA62AF-CD91-478A-AB8B-28A62CC47DA0";
paths = (
{
closed = 1;
nodes = (
"1312 0 LINE",
"1371 439 LINE SMOOTH",
"1374 462 OFFCURVE",
"1339 473 OFFCURVE",
"1314 473 CURVE SMOOTH",
"1293 473 OFFCURVE",
"1243 464 OFFCURVE",
"1235 440 CURVE SMOOTH",
"1187 295 OFFCURVE",
"1085 101 OFFCURVE",
"992 101 CURVE SMOOTH",
"718 101 LINE SMOOTH",
"669 101 OFFCURVE",
"626 111 OFFCURVE",
"626 177 CURVE SMOOTH",
"626 1237 LINE SMOOTH",
"626 1311 OFFCURVE",
"707 1331 OFFCURVE",
"821 1331 CURVE SMOOTH",
"847 1331 OFFCURVE",
"854 1347 OFFCURVE",
"854 1368 CURVE SMOOTH",
"854 1383 OFFCURVE",
"843 1419 OFFCURVE",
"820 1419 CURVE SMOOTH",
"135 1419 LINE SMOOTH",
"112 1419 OFFCURVE",
"101 1383 OFFCURVE",
"101 1368 CURVE SMOOTH",
"101 1338 OFFCURVE",
"109 1333 OFFCURVE",
"137 1331 CURVE SMOOTH",
"208 1326 OFFCURVE",
"289 1320 OFFCURVE",
"289 1234 CURVE SMOOTH",
"289 162 LINE SMOOTH",
"289 118 OFFCURVE",
"208 93 OFFCURVE",
"144 88 CURVE",
"118 85 OFFCURVE",
"111 72 OFFCURVE",
"111 51 CURVE SMOOTH {name = hr00;}",
"111 36 OFFCURVE",
"122 0 OFFCURVE",
"145 0 CURVE SMOOTH"
);
}
);
width = 1404;
}
);
leftKerningGroup = H;
rightKerningGroup = L;
unicode = 004C;
},
{
color = 10;
glyphname = Lslash;
lastChange = "2018-07-16 15:28:46 +0000";
layers = (
{
components = (
{
name = L;
transform = "{1, 0, 0, 1, -11, 0}";
}
);
layerId = "DD6F9F34-BC40-4E8F-B1D3-DF3B42A9710F";
paths = (
{
closed = 1;
nodes = (
"760 899 LINE",
"764 903 OFFCURVE",
"766 912 OFFCURVE",
"766 923 CURVE SMOOTH",
"766 940 OFFCURVE",
"762 962 OFFCURVE",
"756 976 CURVE SMOOTH",
"750 991 OFFCURVE",
"736 1004 OFFCURVE",
"721 999 CURVE",
"108 752 LINE",
"102 746 OFFCURVE",
"99 735 OFFCURVE",
"99 723 CURVE SMOOTH",
"99 714 OFFCURVE",
"101 704 OFFCURVE",
"105 694 CURVE SMOOTH",
"111 679 OFFCURVE",
"132 647 OFFCURVE",
"147 652 CURVE"
);
}
);
width = 1236;
},
{
components = (
{
name = L;
transform = "{1, 0, 0, 1, -27, 0}";
}
);
layerId = "62CA62AF-CD91-478A-AB8B-28A62CC47DA0";
paths = (
{
closed = 1;
nodes = (
"844 899 LINE",
"848 903 OFFCURVE",
"850 912 OFFCURVE",
"850 923 CURVE SMOOTH",
"850 940 OFFCURVE",
"846 962 OFFCURVE",
"840 976 CURVE SMOOTH",
"834 991 OFFCURVE",
"820 1004 OFFCURVE",
"805 999 CURVE",
"92 752 LINE",
"86 746 OFFCURVE",
"83 735 OFFCURVE",
"83 723 CURVE SMOOTH",
"83 714 OFFCURVE",
"85 704 OFFCURVE",
"89 694 CURVE SMOOTH",
"95 679 OFFCURVE",
"116 647 OFFCURVE",
"131 652 CURVE"
);
}
);
width = 1404;
}
);
leftKerningGroup = H;
rightKerningGroup = L;
unicode = 0141;
},
{
color = 10;
glyphname = M;
lastChange = "2018-07-16 03:14:50 +0000";
layers = (
{
anchors = (
{
name = bottom;
position = "{961, 0}";
},
{
name = top;
position = "{989, 1311}";
}
);
layerId = "DD6F9F34-BC40-4E8F-B1D3-DF3B42A9710F";
paths = (
{
closed = 1;
nodes = (
"589 0 LINE SMOOTH",
"612 0 OFFCURVE",
"623 36 OFFCURVE",
"623 51 CURVE SMOOTH",
"623 81 OFFCURVE",
"615 85 OFFCURVE",
"587 88 CURVE",
"514 93 OFFCURVE",
"395 99 OFFCURVE",
"395 185 CURVE SMOOTH",
"395 1281 LINE",
"432 1281 LINE",
"910 0 LINE",
"961 0 LINE",
"1397 1281 LINE",
"1425 1281 LINE",
"1424 152 LINE SMOOTH",
"1424 108 OFFCURVE",
"1333 93 OFFCURVE",
"1269 88 CURVE",
"1243 85 OFFCURVE",
"1236 72 OFFCURVE",
"1236 51 CURVE SMOOTH",
"1236 36 OFFCURVE",
"1247 0 OFFCURVE",
"1270 0 CURVE SMOOTH",
"1785 0 LINE SMOOTH",
"1808 0 OFFCURVE",
"1819 36 OFFCURVE",
"1819 51 CURVE SMOOTH",
"1819 81 OFFCURVE",
"1811 85 OFFCURVE",
"1783 88 CURVE SMOOTH",
"1722 95 OFFCURVE",
"1631 99 OFFCURVE",
"1631 185 CURVE SMOOTH",
"1632 1267 LINE SMOOTH",
"1632 1311 OFFCURVE",
"1713 1326 OFFCURVE",
"1777 1331 CURVE",
"1803 1334 OFFCURVE",
"1810 1347 OFFCURVE",
"1810 1368 CURVE SMOOTH",
"1810 1383 OFFCURVE",
"1799 1419 OFFCURVE",
"1776 1419 CURVE SMOOTH",
"1338 1419 LINE",
"1328 1373 OFFCURVE",
"1312 1326 OFFCURVE",
"1285 1246 CURVE SMOOTH",
"983 366 LINE",
"971 366 LINE",
"609 1419 LINE",
"115 1419 LINE",
"92 1418 OFFCURVE",
"81 1383 OFFCURVE",
"81 1368 CURVE SMOOTH",
"81 1338 OFFCURVE",
"89 1334 OFFCURVE",
"117 1331 CURVE",
"190 1326 OFFCURVE",
"298 1320 OFFCURVE",
"298 1234 CURVE SMOOTH",
"298 184 LINE SMOOTH",
"298 100 OFFCURVE",
"202 93 OFFCURVE",
"123 88 CURVE",
"97 85 OFFCURVE",
"90 72 OFFCURVE",
"90 51 CURVE SMOOTH",
"90 36 OFFCURVE",
"101 0 OFFCURVE",
"124 0 CURVE SMOOTH"
);
}
);
width = 1899;
},
{
anchors = (
{
name = bottom;
position = "{1011, 0}";
},
{
name = top;
position = "{1082, 1326}";
}
);
layerId = "62CA62AF-CD91-478A-AB8B-28A62CC47DA0";
paths = (
{
closed = 1;
nodes = (
"573 0 LINE SMOOTH",
"596 0 OFFCURVE",
"607 36 OFFCURVE",
"607 51 CURVE SMOOTH",
"607 81 OFFCURVE",
"599 85 OFFCURVE",
"571 88 CURVE",
"498 93 OFFCURVE",
"379 99 OFFCURVE",
"379 185 CURVE SMOOTH",
"379 1281 LINE",
"417 1281 LINE",
"967 0 LINE",
"1018 0 LINE",
"1478 1281 LINE",
"1506 1281 LINE",
"1506 152 LINE SMOOTH",
"1506 108 OFFCURVE",
"1415 93 OFFCURVE",
"1351 88 CURVE",
"1325 85 OFFCURVE",
"1318 72 OFFCURVE",
"1318 51 CURVE SMOOTH",
"1318 36 OFFCURVE",
"1329 0 OFFCURVE",
"1352 0 CURVE SMOOTH",
"1997 0 LINE SMOOTH",
"2020 0 OFFCURVE",
"2031 36 OFFCURVE",
"2031 51 CURVE SMOOTH",
"2031 81 OFFCURVE",
"2023 85 OFFCURVE",
"1995 88 CURVE SMOOTH",
"1934 95 OFFCURVE",
"1844 99 OFFCURVE",
"1844 185 CURVE SMOOTH",
"1844 1267 LINE SMOOTH",
"1844 1311 OFFCURVE",
"1921 1326 OFFCURVE",
"1989 1331 CURVE",
"2015 1334 OFFCURVE",
"2022 1347 OFFCURVE",
"2022 1368 CURVE SMOOTH",
"2022 1383 OFFCURVE",
"2011 1419 OFFCURVE",
"1988 1419 CURVE SMOOTH",
"1411 1419 LINE",
"1411 1398 OFFCURVE",
"1401 1350 OFFCURVE",
"1394 1331 CURVE SMOOTH",
"1084 497 LINE",
"741 1414 LINE",
"741 1419 LINE",
"99 1419 LINE",
"76 1418 OFFCURVE",
"65 1383 OFFCURVE",
"65 1368 CURVE SMOOTH",
"65 1338 OFFCURVE",
"73 1334 OFFCURVE",
"101 1331 CURVE",
"174 1326 OFFCURVE",
"282 1320 OFFCURVE",
"282 1234 CURVE SMOOTH",
"282 184 LINE SMOOTH",
"282 100 OFFCURVE",
"186 93 OFFCURVE",
"107 88 CURVE",
"81 85 OFFCURVE",
"74 72 OFFCURVE",
"74 51 CURVE SMOOTH {name = hr00;}",
"74 36 OFFCURVE",
"85 0 OFFCURVE",
"108 0 CURVE SMOOTH"
);
}
);
width = 2096;
}
);
leftKerningGroup = M;
rightKerningGroup = M;
unicode = 004D;
userData = {
com.typemytype.robofont.guides = (
{
angle = 0;
isGlobal = 0;
magnetic = 5;
x = 0;
y = 1281;
}
);
};
},
{
color = 10;
glyphname = N;
lastChange = "2018-07-16 03:02:42 +0000";
layers = (
{
anchors = (
{
name = bottom;
position = "{739, 0}";
},
{
name = top;
position = "{787, 1419}";
}
);
layerId = "DD6F9F34-BC40-4E8F-B1D3-DF3B42A9710F";
paths = (
{
closed = 1;
nodes = (
"502 0 LINE SMOOTH",
"525 0 OFFCURVE",
"536 36 OFFCURVE",
"536 51 CURVE SMOOTH",
"536 81 OFFCURVE",
"528 85 OFFCURVE",
"500 88 CURVE SMOOTH",
"439 95 OFFCURVE",
"330 99 OFFCURVE",
"330 185 CURVE SMOOTH",
"330 1154 LINE",
"347 1154 LINE",
"1186 -8 LINE",
"1196 -20 OFFCURVE",
"1219 -30 OFFCURVE",
"1240 -30 CURVE SMOOTH",
"1268 -30 OFFCURVE",
"1304 -16 OFFCURVE",
"1300 40 CURVE SMOOTH",
"1297 78 OFFCURVE",
"1294 88 OFFCURVE",
"1294 113 CURVE SMOOTH",
"1294 1234 LINE SMOOTH",
"1294 1320 OFFCURVE",
"1408 1324 OFFCURVE",
"1469 1331 CURVE SMOOTH",
"1495 1334 OFFCURVE",
"1502 1347 OFFCURVE",
"1502 1368 CURVE SMOOTH",
"1502 1383 OFFCURVE",
"1491 1419 OFFCURVE",
"1468 1419 CURVE SMOOTH",
"1013 1419 LINE SMOOTH",
"990 1419 OFFCURVE",
"979 1383 OFFCURVE",
"979 1368 CURVE SMOOTH",
"979 1338 OFFCURVE",
"987 1334 OFFCURVE",
"1015 1331 CURVE SMOOTH",
"1076 1324 OFFCURVE",
"1195 1320 OFFCURVE",
"1195 1234 CURVE SMOOTH",
"1195 313 LINE",
"1183 313 LINE",
"406 1419 LINE",
"68 1419 LINE SMOOTH",
"45 1419 OFFCURVE",
"34 1383 OFFCURVE",
"34 1368 CURVE SMOOTH",
"34 1338 OFFCURVE",
"42 1334 OFFCURVE",
"70 1331 CURVE SMOOTH",
"131 1324 OFFCURVE",
"231 1320 OFFCURVE",
"231 1234 CURVE SMOOTH",
"231 172 LINE SMOOTH",
"231 108 OFFCURVE",
"140 93 OFFCURVE",
"76 88 CURVE",
"50 85 OFFCURVE",
"43 72 OFFCURVE",
"43 51 CURVE SMOOTH",
"43 36 OFFCURVE",
"54 0 OFFCURVE",
"77 0 CURVE SMOOTH"
);
}
);
width = 1571;
},
{
anchors = (
{
name = bottom;
position = "{840, 0}";
},
{
name = top;
position = "{883, 1419}";
}
);
layerId = "62CA62AF-CD91-478A-AB8B-28A62CC47DA0";
paths = (
{
closed = 1;
nodes = (
"588 0 LINE SMOOTH",
"611 0 OFFCURVE",
"622 36 OFFCURVE",
"622 51 CURVE SMOOTH",
"622 81 OFFCURVE",
"614 85 OFFCURVE",
"586 88 CURVE SMOOTH",
"525 95 OFFCURVE",
"384 99 OFFCURVE",
"384 185 CURVE SMOOTH",
"384 1090 LINE",
"401 1090 LINE",
"1282 -8 LINE SMOOTH {name = hr02;}",
"1292 -20 OFFCURVE",
"1315 -30 OFFCURVE",
"1336 -30 CURVE SMOOTH",
"1377 -30 OFFCURVE",
"1450 -12 OFFCURVE",
"1446 40 CURVE SMOOTH",
"1443 78 OFFCURVE",
"1440 88 OFFCURVE",
"1440 113 CURVE SMOOTH",
"1440 1239 LINE SMOOTH",
"1440 1306 OFFCURVE",
"1554 1324 OFFCURVE",
"1615 1331 CURVE SMOOTH",
"1641 1334 OFFCURVE",
"1648 1347 OFFCURVE",
"1648 1368 CURVE SMOOTH",
"1648 1383 OFFCURVE",
"1637 1419 OFFCURVE",
"1614 1419 CURVE SMOOTH",
"1139 1419 LINE SMOOTH",
"1116 1419 OFFCURVE",
"1105 1383 OFFCURVE",
"1105 1368 CURVE SMOOTH",
"1105 1338 OFFCURVE",
"1113 1334 OFFCURVE",
"1141 1331 CURVE SMOOTH",
"1202 1324 OFFCURVE",
"1323 1320 OFFCURVE",
"1323 1234 CURVE SMOOTH",
"1323 467 LINE",
"1311 467 LINE",
"552 1419 LINE",
"94 1419 LINE SMOOTH",
"71 1419 OFFCURVE",
"60 1383 OFFCURVE",
"60 1368 CURVE SMOOTH",
"60 1338 OFFCURVE",
"68 1334 OFFCURVE",
"96 1331 CURVE SMOOTH",
"157 1324 OFFCURVE",
"257 1320 OFFCURVE",
"257 1234 CURVE SMOOTH",
"257 172 LINE SMOOTH",
"257 108 OFFCURVE",
"136 93 OFFCURVE",
"72 88 CURVE {name = hr03;}",
"46 85 OFFCURVE",
"39 72 OFFCURVE",
"39 51 CURVE SMOOTH {name = hr01;}",
"39 36 OFFCURVE",
"50 0 OFFCURVE",
"73 0 CURVE SMOOTH"
);
}
);
width = 1719;
}
);
leftKerningGroup = H;
rightKerningGroup = H;
unicode = 004E;
},
{
color = 10;
glyphname = Eng;
lastChange = "2018-07-16 03:12:13 +0000";
layers = (
{
layerId = "DD6F9F34-BC40-4E8F-B1D3-DF3B42A9710F";
paths = (
{
closed = 1;
nodes = (
"1125 -449 OFFCURVE",
"1264 -198 OFFCURVE",
"1264 44 CURVE SMOOTH",
"1264 1267 LINE SMOOTH",
"1264 1311 OFFCURVE",
"1358 1326 OFFCURVE",
"1419 1331 CURVE SMOOTH",
"1445 1334 OFFCURVE",
"1452 1347 OFFCURVE",
"1452 1368 CURVE SMOOTH",
"1452 1383 OFFCURVE",
"1441 1419 OFFCURVE",
"1418 1419 CURVE SMOOTH",
"1013 1419 LINE SMOOTH",
"990 1419 OFFCURVE",
"979 1383 OFFCURVE",
"979 1368 CURVE SMOOTH",
"979 1338 OFFCURVE",
"987 1334 OFFCURVE",
"1015 1331 CURVE SMOOTH",
"1076 1326 OFFCURVE",
"1167 1320 OFFCURVE",
"1167 1234 CURVE SMOOTH",
"1167 333 LINE",
"1155 333 LINE",
"376 1419 LINE",
"58 1419 LINE SMOOTH",
"35 1419 OFFCURVE",
"24 1383 OFFCURVE",
"24 1368 CURVE SMOOTH",
"24 1338 OFFCURVE",
"32 1334 OFFCURVE",
"60 1331 CURVE SMOOTH",
"121 1326 OFFCURVE",
"201 1320 OFFCURVE",
"201 1234 CURVE SMOOTH",
"201 172 LINE SMOOTH",
"201 108 OFFCURVE",
"130 93 OFFCURVE",
"66 88 CURVE",
"40 85 OFFCURVE",
"33 72 OFFCURVE",
"33 51 CURVE SMOOTH",
"33 36 OFFCURVE",
"44 0 OFFCURVE",
"67 0 CURVE SMOOTH",
"442 0 LINE SMOOTH",
"465 0 OFFCURVE",
"476 36 OFFCURVE",
"476 51 CURVE SMOOTH",
"476 81 OFFCURVE",
"468 85 OFFCURVE",
"440 88 CURVE SMOOTH",
"379 93 OFFCURVE",
"298 99 OFFCURVE",
"298 185 CURVE SMOOTH",
"298 1140 LINE",
"315 1140 LINE",
"1156 -7 LINE",
"1141 -276 OFFCURVE",
"1021 -345 OFFCURVE",
"947 -356 CURVE",
"870 -208 LINE",
"809 -208 OFFCURVE",
"737 -236 OFFCURVE",
"737 -310 CURVE SMOOTH",
"737 -379 OFFCURVE",
"785 -449 OFFCURVE",
"913 -449 CURVE SMOOTH"
);
}
);
width = 1571;
},
{
layerId = "62CA62AF-CD91-478A-AB8B-28A62CC47DA0";
paths = (
{
closed = 1;
nodes = (
"1398 -449 OFFCURVE",
"1430 -147 OFFCURVE",
"1430 88 CURVE SMOOTH",
"1430 1239 LINE SMOOTH",
"1430 1306 OFFCURVE",
"1544 1325 OFFCURVE",
"1605 1331 CURVE SMOOTH",
"1631 1334 OFFCURVE",
"1638 1347 OFFCURVE",
"1638 1368 CURVE SMOOTH",
"1638 1383 OFFCURVE",
"1627 1419 OFFCURVE",
"1604 1419 CURVE SMOOTH",
"1129 1419 LINE SMOOTH",
"1106 1419 OFFCURVE",
"1095 1383 OFFCURVE",
"1095 1368 CURVE SMOOTH",
"1095 1338 OFFCURVE",
"1103 1334 OFFCURVE",
"1131 1331 CURVE SMOOTH",
"1192 1326 OFFCURVE",
"1313 1320 OFFCURVE",
"1313 1234 CURVE SMOOTH",
"1313 483 LINE",
"1301 483 LINE",
"542 1419 LINE",
"84 1419 LINE SMOOTH",
"61 1419 OFFCURVE",
"50 1383 OFFCURVE",
"50 1368 CURVE SMOOTH",
"50 1338 OFFCURVE",
"58 1334 OFFCURVE",
"86 1331 CURVE SMOOTH",
"147 1326 OFFCURVE",
"247 1320 OFFCURVE",
"247 1234 CURVE SMOOTH",
"247 172 LINE SMOOTH",
"247 108 OFFCURVE",
"126 93 OFFCURVE",
"62 88 CURVE",
"36 85 OFFCURVE",
"29 72 OFFCURVE",
"29 51 CURVE SMOOTH {name = hr00;}",
"29 36 OFFCURVE",
"40 0 OFFCURVE",
"63 0 CURVE SMOOTH",
"578 0 LINE SMOOTH",
"601 0 OFFCURVE",
"612 36 OFFCURVE",
"612 51 CURVE SMOOTH",
"612 81 OFFCURVE",
"604 85 OFFCURVE",
"576 88 CURVE SMOOTH",
"515 93 OFFCURVE",
"374 99 OFFCURVE",
"374 185 CURVE SMOOTH",
"374 1080 LINE",
"391 1080 LINE",
"1309 -55 LINE",
"1283 -278 OFFCURVE",
"1180 -347 OFFCURVE",
"993 -347 CURVE",
"876 -135 LINE",
"797 -135 OFFCURVE",
"696 -173 OFFCURVE",
"696 -267 CURVE SMOOTH",
"696 -384 OFFCURVE",
"803 -449 OFFCURVE",
"976 -449 CURVE SMOOTH"
);
}
);
width = 1719;
}
);
leftKerningGroup = Eng;
rightKerningGroup = Eng;
unicode = 014A;
},
{
color = 10;
glyphname = O;
lastChange = "2018-07-13 22:40:04 +0000";
layers = (
{
anchors = (
{
name = bottom;
position = "{748, 0}";
},
{
name = center;
position = "{748, 710}";
},
{
name = ogonek;
position = "{1358, 10}";
},
{
name = top;
position = "{748, 1419}";
},
{
name = topleft;
position = "{6, 1419}";
},
{
name = topright;
position = "{1490, 1419}";
}
);
layerId = "DD6F9F34-BC40-4E8F-B1D3-DF3B42A9710F";
paths = (
{
closed = 1;
nodes = (
"1181 -29 OFFCURVE",
"1430 306 OFFCURVE",
"1430 716 CURVE SMOOTH",
"1430 1126 OFFCURVE",
"1191 1449 OFFCURVE",
"769 1449 CURVE SMOOTH",
"347 1449 OFFCURVE",
"94 1126 OFFCURVE",
"94 716 CURVE SMOOTH",
"94 306 OFFCURVE",
"338 -29 OFFCURVE",
"759 -29 CURVE SMOOTH"
);
},
{
closed = 1;
nodes = (
"432 65 OFFCURVE",
"339 312 OFFCURVE",
"339 714 CURVE SMOOTH",
"339 1116 OFFCURVE",
"425 1356 OFFCURVE",
"758 1356 CURVE SMOOTH",
"1088 1356 OFFCURVE",
"1182 1116 OFFCURVE",
"1182 714 CURVE SMOOTH",
"1182 312 OFFCURVE",
"1094 65 OFFCURVE",
"763 65 CURVE SMOOTH"
);
}
);
width = 1524;
},
{
anchors = (
{
name = bottom;
position = "{840, 0}";
},
{
name = center;
position = "{840, 710}";
},
{
name = ogonek;
position = "{1511, 10}";
},
{
name = top;
position = "{840, 1419}";
},
{
name = topleft;
position = "{20, 1419}";
},
{
name = topright;
position = "{1659, 1419}";
}
);
layerId = "62CA62AF-CD91-478A-AB8B-28A62CC47DA0";
paths = (
{
closed = 1;
nodes = (
"1302 -29 OFFCURVE",
"1596 306 OFFCURVE",
"1596 716 CURVE SMOOTH",
"1596 1126 OFFCURVE",
"1303 1449 OFFCURVE",
"839 1449 CURVE SMOOTH",
"375 1449 OFFCURVE",
"83 1126 OFFCURVE",
"83 716 CURVE SMOOTH {name = hr00;}",
"83 306 OFFCURVE",
"376 -29 OFFCURVE",
"839 -29 CURVE SMOOTH"
);
},
{
closed = 1;
nodes = (
"590 65 OFFCURVE",
"469 312 OFFCURVE",
"469 714 CURVE SMOOTH",
"469 1116 OFFCURVE",
"584 1356 OFFCURVE",
"837 1356 CURVE SMOOTH",
"1090 1356 OFFCURVE",
"1210 1116 OFFCURVE",
"1210 714 CURVE SMOOTH",
"1210 312 OFFCURVE",
"1096 65 OFFCURVE",
"843 65 CURVE SMOOTH"
);
}
);
width = 1679;
}
);
leftKerningGroup = O;
rightKerningGroup = O;
unicode = 004F;
},
{
color = 10;
glyphname = Ohorn;
lastChange = "2018-07-13 22:40:45 +0000";
layers = (
{
anchors = (
{
name = bottom;
position = "{762, 0}";
},
{
name = top;
position = "{762, 1419}";
}
);
components = (
{
name = O;
transform = "{1, 0, 0, 1, -11, 0}";
}
);
layerId = "DD6F9F34-BC40-4E8F-B1D3-DF3B42A9710F";
paths = (
{
closed = 1;
nodes = (
"1242 1322 OFFCURVE",
"1474 1398 OFFCURVE",
"1474 1633 CURVE SMOOTH",
"1474 1648 OFFCURVE",
"1472 1663 OFFCURVE",
"1469 1680 CURVE",
"1296 1680 LINE",
"1297 1671 OFFCURVE",
"1297 1659 OFFCURVE",
"1297 1644 CURVE SMOOTH",
"1297 1499 OFFCURVE",
"1181 1401 OFFCURVE",
"1022 1398 CURVE",
"1133 1322 LINE"
);
}
);
width = 1524;
},
{
anchors = (
{
name = bottom;
position = "{875, 0}";
},
{
name = top;
position = "{875, 1419}";
}
);
components = (
{
name = O;
transform = "{1, 0, 0, 1, 11, 0}";
}
);
layerId = "62CA62AF-CD91-478A-AB8B-28A62CC47DA0";
paths = (
{
closed = 1;
nodes = (
"1342 1329 OFFCURVE",
"1560 1421 OFFCURVE",
"1560 1627 CURVE SMOOTH",
"1560 1645 OFFCURVE",
"1557 1717 OFFCURVE",
"1554 1738 CURVE",
"1338 1738 LINE",
"1340 1727 OFFCURVE",
"1340 1712 OFFCURVE",
"1340 1694 CURVE SMOOTH",
"1340 1596 OFFCURVE",
"1289 1413 OFFCURVE",
"1073 1413 CURVE",
"1283 1329 LINE"
);
}
);
width = 1679;
}
);
leftKerningGroup = O;
rightKerningGroup = O;
unicode = 01A0;
},
{
color = 10;
glyphname = Oogonek;
lastChange = "2018-07-16 02:59:08 +0000";
layers = (
{
components = (
{
name = O;
}
);
layerId = "DD6F9F34-BC40-4E8F-B1D3-DF3B42A9710F";
paths = (
{
closed = 1;
nodes = (
"858 0 LINE",
"729 0 OFFCURVE",
"593 -89 OFFCURVE",
"593 -194 CURVE SMOOTH",
"593 -299 OFFCURVE",
"682 -370 OFFCURVE",
"812 -370 CURVE SMOOTH",
"872 -370 OFFCURVE",
"957 -351 OFFCURVE",
"1001 -323 CURVE SMOOTH",
"1015 -314 OFFCURVE",
"1021 -294 OFFCURVE",
"1021 -277 CURVE SMOOTH",
"1021 -258 OFFCURVE",
"1014 -241 OFFCURVE",
"1001 -243 CURVE SMOOTH",
"967 -248 OFFCURVE",
"951 -259 OFFCURVE",
"919 -259 CURVE SMOOTH",
"830 -259 OFFCURVE",
"779 -221 OFFCURVE",
"779 -160 CURVE SMOOTH",
"779 -84 OFFCURVE",
"822 -49 OFFCURVE",
"943 0 CURVE",
"914 50 LINE"
);
}
);
width = 1524;
},
{
components = (
{
name = O;
}
);
layerId = "62CA62AF-CD91-478A-AB8B-28A62CC47DA0";
paths = (
{
closed = 1;
nodes = (
"854 0 LINE",
"635 -52 OFFCURVE",
"567 -157 OFFCURVE",
"567 -264 CURVE SMOOTH",
"567 -370 OFFCURVE",
"679 -444 OFFCURVE",
"836 -444 CURVE SMOOTH",
"909 -444 OFFCURVE",
"1012 -421 OFFCURVE",
"1065 -387 CURVE SMOOTH",
"1082 -376 OFFCURVE",
"1089 -343 OFFCURVE",
"1089 -311 CURVE SMOOTH",
"1089 -275 OFFCURVE",
"1079 -241 OFFCURVE",
"1065 -246 CURVE SMOOTH",
"1024 -261 OFFCURVE",
"1004 -265 OFFCURVE",
"966 -265 CURVE SMOOTH",
"858 -265 OFFCURVE",
"817 -234 OFFCURVE",
"817 -184 CURVE SMOOTH",
"817 -116 OFFCURVE",
"885 -39 OFFCURVE",
"1024 0 CURVE",
"929 32 LINE"
);
}
);
width = 1679;
}
);
leftKerningGroup = Oogonek;
rightKerningGroup = Oogonek;
unicode = 01EA;
},
{
color = 10;
glyphname = Oslash;
lastChange = "2018-07-16 03:55:24 +0000";
layers = (
{
components = (
{
name = O;
}
);
layerId = "DD6F9F34-BC40-4E8F-B1D3-DF3B42A9710F";
paths = (
{
closed = 1;
nodes = (
"249 -114 LINE {name = hr00;}",
"247 -129 OFFCURVE",
"260 -148 OFFCURVE",
"282 -162 CURVE SMOOTH",
"290 -167 OFFCURVE",
"303 -171 OFFCURVE",
"314 -171 CURVE SMOOTH",
"321 -171 OFFCURVE",
"327 -169 OFFCURVE",
"331 -164 CURVE",
"1237 1525 LINE",
"1239 1540 OFFCURVE",
"1217 1566 OFFCURVE",
"1196 1578 CURVE SMOOTH",
"1189 1582 OFFCURVE",
"1181 1584 OFFCURVE",
"1174 1584 CURVE SMOOTH",
"1166 1584 OFFCURVE",
"1159 1582 OFFCURVE",
"1154 1575 CURVE"
);
}
);
width = 1524;
},
{
components = (
{
name = O;
}
);
layerId = "62CA62AF-CD91-478A-AB8B-28A62CC47DA0";
paths = (
{
closed = 1;
nodes = (
"291 -114 LINE {name = hr00;}",
"289 -129 OFFCURVE",
"302 -148 OFFCURVE",
"324 -162 CURVE SMOOTH",
"332 -167 OFFCURVE",
"345 -171 OFFCURVE",
"356 -171 CURVE SMOOTH",
"363 -171 OFFCURVE",
"369 -169 OFFCURVE",
"373 -164 CURVE",
"1379 1525 LINE",
"1381 1540 OFFCURVE",
"1359 1566 OFFCURVE",
"1338 1578 CURVE SMOOTH",
"1331 1582 OFFCURVE",
"1323 1584 OFFCURVE",
"1316 1584 CURVE SMOOTH",
"1308 1584 OFFCURVE",
"1301 1582 OFFCURVE",
"1296 1575 CURVE"
);
}
);
width = 1679;
}
);
leftKerningGroup = O;
rightKerningGroup = O;
unicode = 00D8;
},
{
color = 10;
glyphname = OE;
lastChange = "2018-07-13 22:49:37 +0000";
layers = (
{
background = {
paths = (
{
closed = 1;
nodes = (
"837 36 OFFCURVE",
"848 0 OFFCURVE",
"871 0 CURVE SMOOTH",
"1931 1 LINE",
"1981 373 LINE",
"1978 396 OFFCURVE",
"1957 407 OFFCURVE",
"1932 407 CURVE SMOOTH",
"1911 407 OFFCURVE",
"1870 399 OFFCURVE",
"1864 374 CURVE SMOOTH",
"1816 173 OFFCURVE",
"1724 102 OFFCURVE",
"1604 102 CURVE SMOOTH",
"1319 101 LINE",
"1275 105 OFFCURVE",
"1230 124 OFFCURVE",
"1230 197 CURVE SMOOTH",
"1230 682 LINE",
"1458 683 LINE SMOOTH",
"1514 683 OFFCURVE",
"1559 547 OFFCURVE",
"1562 504 CURVE",
"1565 478 OFFCURVE",
"1590 471 OFFCURVE",
"1611 471 CURVE SMOOTH",
"1626 471 OFFCURVE",
"1652 482 OFFCURVE",
"1652 505 CURVE SMOOTH",
"1652 948 LINE SMOOTH",
"1652 971 OFFCURVE",
"1626 982 OFFCURVE",
"1611 982 CURVE SMOOTH",
"1590 982 OFFCURVE",
"1568 976 OFFCURVE",
"1565 950 CURVE SMOOTH",
"1560 910 OFFCURVE",
"1516 786 OFFCURVE",
"1464 779 CURVE",
"1230 778 LINE",
"1230 1320 LINE",
"1570 1321 LINE SMOOTH",
"1678 1321 OFFCURVE",
"1696 1244 OFFCURVE",
"1776 1094 CURVE SMOOTH",
"1792 1064 OFFCURVE",
"1819 1061 OFFCURVE",
"1840 1061 CURVE SMOOTH",
"1855 1061 OFFCURVE",
"1879 1072 OFFCURVE",
"1877 1095 CURVE SMOOTH",
"1842 1420 LINE",
"862 1419 LINE SMOOTH",
"839 1419 OFFCURVE",
"828 1383 OFFCURVE",
"828 1368 CURVE SMOOTH",
"828 1338 OFFCURVE",
"836 1334 OFFCURVE",
"864 1331 CURVE SMOOTH",
"925 1324 OFFCURVE",
"1016 1320 OFFCURVE",
"1016 1234 CURVE SMOOTH",
"1016 152 LINE SMOOTH",
"1016 108 OFFCURVE",
"934 93 OFFCURVE",
"870 88 CURVE",
"844 85 OFFCURVE",
"837 72 OFFCURVE",
"837 51 CURVE SMOOTH {name = hr00;}"
);
}
);
};
layerId = "DD6F9F34-BC40-4E8F-B1D3-DF3B42A9710F";
paths = (
{
closed = 1;
nodes = (
"904 -29 OFFCURVE",
"942 0 OFFCURVE",
"1123 0 CURVE SMOOTH",
"1886 1 LINE",
"1955 373 LINE",
"1955 396 OFFCURVE",
"1922 407 OFFCURVE",
"1906 407 CURVE SMOOTH",
"1884 407 OFFCURVE",
"1840 390 OFFCURVE",
"1838 364 CURVE SMOOTH",
"1830 260 OFFCURVE",
"1710 101 OFFCURVE",
"1617 101 CURVE SMOOTH",
"1297 101 LINE",
"1243 101 OFFCURVE",
"1196 130 OFFCURVE",
"1196 214 CURVE",
"1197 682 LINE",
"1433 682 LINE SMOOTH",
"1489 682 OFFCURVE",
"1532 548 OFFCURVE",
"1537 505 CURVE SMOOTH",
"1540 479 OFFCURVE",
"1564 472 OFFCURVE",
"1585 472 CURVE SMOOTH",
"1600 472 OFFCURVE",
"1626 483 OFFCURVE",
"1626 506 CURVE SMOOTH",
"1626 948 LINE SMOOTH",
"1626 971 OFFCURVE",
"1601 982 OFFCURVE",
"1585 982 CURVE SMOOTH",
"1563 982 OFFCURVE",
"1541 975 OFFCURVE",
"1539 949 CURVE",
"1534 909 OFFCURVE",
"1495 785 OFFCURVE",
"1443 778 CURVE",
"1197 778 LINE",
"1196 1321 LINE",
"1579 1320 LINE",
"1636 1320 OFFCURVE",
"1718 1168 OFFCURVE",
"1740 1111 CURVE SMOOTH",
"1750 1085 OFFCURVE",
"1775 1059 OFFCURVE",
"1810 1059 CURVE SMOOTH",
"1825 1059 OFFCURVE",
"1851 1070 OFFCURVE",
"1851 1093 CURVE",
"1816 1418 LINE",
"1007 1419 LINE SMOOTH",
"936 1419 OFFCURVE",
"901 1449 OFFCURVE",
"735 1449 CURVE SMOOTH",
"341 1449 OFFCURVE",
"94 1126 OFFCURVE",
"94 716 CURVE SMOOTH",
"94 306 OFFCURVE",
"320 -29 OFFCURVE",
"725 -29 CURVE SMOOTH"
);
},
{
closed = 1;
nodes = (
"412 65 OFFCURVE",
"336 312 OFFCURVE",
"336 714 CURVE SMOOTH",
"336 1116 OFFCURVE",
"421 1360 OFFCURVE",
"724 1360 CURVE SMOOTH",
"889 1360 OFFCURVE",
"960 1313 OFFCURVE",
"989 1275 CURVE",
"989 1274 LINE",
"988 141 LINE",
"949 78 OFFCURVE",
"865 65 OFFCURVE",
"729 65 CURVE SMOOTH"
);
}
);
width = 2044;
},
{
background = {
paths = (
{
closed = 1;
nodes = (
"866 36 OFFCURVE",
"877 0 OFFCURVE",
"900 0 CURVE SMOOTH",
"2125 0 LINE",
"2165 372 LINE",
"2162 395 OFFCURVE",
"2131 406 OFFCURVE",
"2106 406 CURVE SMOOTH",
"2085 406 OFFCURVE",
"2049 397 OFFCURVE",
"2038 373 CURVE SMOOTH",
"1946 173 OFFCURVE",
"1874 101 OFFCURVE",
"1754 101 CURVE SMOOTH",
"1470 101 LINE",
"1426 105 OFFCURVE",
"1381 124 OFFCURVE",
"1381 197 CURVE SMOOTH",
"1381 682 LINE",
"1644 682 LINE SMOOTH",
"1700 682 OFFCURVE",
"1745 546 OFFCURVE",
"1748 503 CURVE",
"1751 477 OFFCURVE",
"1776 470 OFFCURVE",
"1797 470 CURVE SMOOTH",
"1812 470 OFFCURVE",
"1848 481 OFFCURVE",
"1848 504 CURVE SMOOTH",
"1848 947 LINE SMOOTH",
"1848 970 OFFCURVE",
"1812 981 OFFCURVE",
"1797 981 CURVE SMOOTH",
"1776 981 OFFCURVE",
"1754 975 OFFCURVE",
"1751 949 CURVE SMOOTH",
"1746 909 OFFCURVE",
"1702 785 OFFCURVE",
"1650 778 CURVE",
"1381 778 LINE",
"1381 1320 LINE",
"1770 1320 LINE SMOOTH",
"1878 1320 OFFCURVE",
"1896 1243 OFFCURVE",
"1976 1093 CURVE SMOOTH",
"1992 1063 OFFCURVE",
"2027 1060 OFFCURVE",
"2048 1060 CURVE SMOOTH",
"2063 1060 OFFCURVE",
"2087 1071 OFFCURVE",
"2085 1094 CURVE SMOOTH",
"2050 1419 LINE",
"891 1419 LINE SMOOTH",
"868 1419 OFFCURVE",
"857 1383 OFFCURVE",
"857 1368 CURVE SMOOTH",
"857 1338 OFFCURVE",
"865 1334 OFFCURVE",
"893 1331 CURVE SMOOTH",
"954 1324 OFFCURVE",
"1045 1320 OFFCURVE",
"1045 1234 CURVE SMOOTH",
"1045 152 LINE SMOOTH",
"1045 108 OFFCURVE",
"963 93 OFFCURVE",
"899 88 CURVE",
"873 85 OFFCURVE",
"866 72 OFFCURVE",
"866 51 CURVE SMOOTH {name = hr00;}"
);
}
);
};
layerId = "62CA62AF-CD91-478A-AB8B-28A62CC47DA0";
paths = (
{
closed = 1;
nodes = (
"919 -29 OFFCURVE",
"991 0 OFFCURVE",
"1147 0 CURVE SMOOTH {name = hr02;}",
"2147 0 LINE",
"2186 372 LINE",
"2183 395 OFFCURVE",
"2162 406 OFFCURVE",
"2137 406 CURVE SMOOTH",
"2090 406 OFFCURVE",
"2063 388 OFFCURVE",
"2052 364 CURVE SMOOTH",
"1983 214 OFFCURVE",
"1910 101 OFFCURVE",
"1790 101 CURVE SMOOTH",
"1469 101 LINE",
"1425 105 OFFCURVE",
"1380 124 OFFCURVE",
"1380 197 CURVE SMOOTH",
"1380 682 LINE",
"1668 682 LINE SMOOTH",
"1724 682 OFFCURVE",
"1769 546 OFFCURVE",
"1772 503 CURVE",
"1775 477 OFFCURVE",
"1800 470 OFFCURVE",
"1821 470 CURVE SMOOTH",
"1836 470 OFFCURVE",
"1869 481 OFFCURVE",
"1869 504 CURVE SMOOTH",
"1869 947 LINE SMOOTH",
"1869 970 OFFCURVE",
"1836 981 OFFCURVE",
"1821 981 CURVE SMOOTH",
"1800 981 OFFCURVE",
"1778 975 OFFCURVE",
"1775 949 CURVE SMOOTH",
"1770 909 OFFCURVE",
"1726 785 OFFCURVE",
"1674 778 CURVE",
"1380 778 LINE",
"1380 1320 LINE",
"1794 1320 LINE SMOOTH",
"1902 1320 OFFCURVE",
"1920 1243 OFFCURVE",
"2000 1093 CURVE SMOOTH",
"2016 1063 OFFCURVE",
"2043 1060 OFFCURVE",
"2069 1060 CURVE SMOOTH",
"2084 1060 OFFCURVE",
"2108 1071 OFFCURVE",
"2106 1094 CURVE SMOOTH",
"2071 1419 LINE",
"1073 1419 LINE",
"1007 1421 OFFCURVE",
"951 1449 OFFCURVE",
"794 1449 CURVE SMOOTH {name = hr03;}",
"398 1449 OFFCURVE",
"83 1126 OFFCURVE",
"83 716 CURVE SMOOTH {name = hr01;}",
"83 306 OFFCURVE",
"391 -29 OFFCURVE",
"784 -29 CURVE SMOOTH"
);
},
{
closed = 1;
nodes = (
"584 65 OFFCURVE",
"455 312 OFFCURVE",
"455 714 CURVE SMOOTH",
"455 1116 OFFCURVE",
"581 1360 OFFCURVE",
"783 1360 CURVE SMOOTH",
"1000 1360 OFFCURVE",
"1027 1314 OFFCURVE",
"1044 1290 CURVE",
"1044 141 LINE",
"1043 143 LINE",
"1004 78 OFFCURVE",
"925 65 OFFCURVE",
"788 65 CURVE SMOOTH"
);
}
);
width = 2254;
}
);
leftKerningGroup = O;
rightKerningGroup = E;
unicode = 0152;
},
{
color = 10;
glyphname = P;
lastChange = "2018-07-13 22:50:22 +0000";
layers = (
{
anchors = (
{
name = bottom;
position = "{615, 0}";
},
{
name = top;
position = "{615, 1419}";
}
);
layerId = "DD6F9F34-BC40-4E8F-B1D3-DF3B42A9710F";
paths = (
{
closed = 1;
nodes = (
"694 0 LINE SMOOTH",
"717 0 OFFCURVE",
"728 36 OFFCURVE",
"728 51 CURVE SMOOTH",
"728 81 OFFCURVE",
"720 85 OFFCURVE",
"692 88 CURVE",
"615 93 OFFCURVE",
"490 99 OFFCURVE",
"490 185 CURVE SMOOTH",
"490 555 LINE",
"669 555 LINE SMOOTH",
"969 555 OFFCURVE",
"1192 742 OFFCURVE",
"1192 1010 CURVE SMOOTH",
"1192 1321 OFFCURVE",
"945 1431 OFFCURVE",
"710 1431 CURVE SMOOTH",
"572 1431 OFFCURVE",
"485 1419 OFFCURVE",
"353 1419 CURVE",
"130 1419 LINE",
"107 1419 OFFCURVE",
"96 1383 OFFCURVE",
"96 1368 CURVE SMOOTH",
"96 1338 OFFCURVE",
"104 1334 OFFCURVE",
"132 1331 CURVE SMOOTH",
"193 1324 OFFCURVE",
"284 1320 OFFCURVE",
"284 1234 CURVE SMOOTH",
"283 152 LINE SMOOTH",
"283 108 OFFCURVE",
"202 93 OFFCURVE",
"138 88 CURVE",
"112 85 OFFCURVE",
"105 72 OFFCURVE",
"105 51 CURVE SMOOTH",
"105 36 OFFCURVE",
"116 0 OFFCURVE",
"139 0 CURVE SMOOTH"
);
},
{
closed = 1;
nodes = (
"491 1342 LINE",
"633 1342 LINE SMOOTH",
"792 1342 OFFCURVE",
"974 1265 OFFCURVE",
"974 989 CURVE SMOOTH",
"974 721 OFFCURVE",
"741 641 OFFCURVE",
"666 641 CURVE SMOOTH",
"490 641 LINE"
);
}
);
width = 1249;
},
{
anchors = (
{
name = bottom;
position = "{691, 0}";
},
{
name = top;
position = "{691, 1419}";
}
);
layerId = "62CA62AF-CD91-478A-AB8B-28A62CC47DA0";
paths = (
{
closed = 1;
nodes = (
"849 0 LINE SMOOTH",
"872 0 OFFCURVE",
"883 36 OFFCURVE",
"883 51 CURVE SMOOTH",
"883 81 OFFCURVE",
"875 85 OFFCURVE",
"847 88 CURVE",
"770 93 OFFCURVE",
"626 99 OFFCURVE",
"626 185 CURVE SMOOTH",
"626 555 LINE",
"808 555 LINE SMOOTH",
"1215 555 OFFCURVE",
"1401 742 OFFCURVE",
"1401 1010 CURVE SMOOTH",
"1401 1321 OFFCURVE",
"1163 1429 OFFCURVE",
"838 1429 CURVE SMOOTH",
"729 1429 OFFCURVE",
"576 1419 OFFCURVE",
"430 1419 CURVE {name = hr02;}",
"135 1419 LINE SMOOTH",
"112 1419 OFFCURVE",
"101 1383 OFFCURVE",
"101 1368 CURVE SMOOTH",
"101 1338 OFFCURVE",
"109 1334 OFFCURVE",
"137 1331 CURVE SMOOTH",
"198 1324 OFFCURVE",
"288 1320 OFFCURVE",
"288 1234 CURVE SMOOTH",
"288 152 LINE SMOOTH",
"288 108 OFFCURVE",
"217 93 OFFCURVE",
"153 88 CURVE",
"127 85 OFFCURVE",
"120 72 OFFCURVE",
"120 51 CURVE SMOOTH {name = hr01;}",
"120 36 OFFCURVE",
"131 0 OFFCURVE",
"154 0 CURVE SMOOTH"
);
},
{
closed = 1;
nodes = (
"626 1332 LINE",
"725 1332 LINE SMOOTH",
"925 1332 OFFCURVE",
"1033 1265 OFFCURVE",
"1033 989 CURVE SMOOTH",
"1033 721 OFFCURVE",
"869 651 OFFCURVE",
"725 651 CURVE SMOOTH",
"626 651 LINE"
);
}
);
width = 1436;
}
);
leftKerningGroup = H;
rightKerningGroup = P;
unicode = 0050;
},
{
color = 10;
glyphname = Thorn;
lastChange = "2018-07-16 03:55:55 +0000";
layers = (
{
layerId = "DD6F9F34-BC40-4E8F-B1D3-DF3B42A9710F";
paths = (
{
closed = 1;
nodes = (
"694 0 LINE SMOOTH",
"717 0 OFFCURVE",
"728 36 OFFCURVE",
"728 51 CURVE SMOOTH",
"728 81 OFFCURVE",
"720 85 OFFCURVE",
"692 88 CURVE SMOOTH",
"631 93 OFFCURVE",
"490 99 OFFCURVE",
"490 185 CURVE SMOOTH",
"490 309 LINE",
"699 309 LINE SMOOTH",
"999 309 OFFCURVE",
"1192 492 OFFCURVE",
"1192 754 CURVE SMOOTH",
"1192 1057 OFFCURVE",
"975 1155 OFFCURVE",
"740 1155 CURVE SMOOTH",
"491 1153 LINE",
"491 1267 LINE SMOOTH",
"491 1311 OFFCURVE",
"572 1326 OFFCURVE",
"636 1331 CURVE",
"662 1334 OFFCURVE",
"669 1347 OFFCURVE",
"669 1368 CURVE SMOOTH",
"669 1383 OFFCURVE",
"658 1419 OFFCURVE",
"635 1419 CURVE SMOOTH",
"130 1419 LINE SMOOTH",
"107 1419 OFFCURVE",
"96 1383 OFFCURVE",
"96 1368 CURVE SMOOTH",
"96 1338 OFFCURVE",
"104 1334 OFFCURVE",
"132 1331 CURVE SMOOTH",
"193 1326 OFFCURVE",
"284 1320 OFFCURVE",
"284 1234 CURVE SMOOTH",
"283 152 LINE SMOOTH",
"283 108 OFFCURVE",
"202 93 OFFCURVE",
"138 88 CURVE",
"112 85 OFFCURVE",
"105 72 OFFCURVE",
"105 51 CURVE SMOOTH",
"105 36 OFFCURVE",
"116 0 OFFCURVE",
"139 0 CURVE SMOOTH"
);
},
{
closed = 1;
nodes = (
"491 1076 LINE",
"663 1076 LINE SMOOTH",
"822 1076 OFFCURVE",
"974 1001 OFFCURVE",
"974 733 CURVE SMOOTH",
"974 473 OFFCURVE",
"771 395 OFFCURVE",
"696 395 CURVE SMOOTH",
"490 395 LINE"
);
}
);
width = 1258;
},
{
layerId = "62CA62AF-CD91-478A-AB8B-28A62CC47DA0";
paths = (
{
closed = 1;
nodes = (
"769 0 LINE SMOOTH",
"792 0 OFFCURVE",
"803 36 OFFCURVE",
"803 51 CURVE SMOOTH",
"803 81 OFFCURVE",
"795 85 OFFCURVE",
"767 88 CURVE SMOOTH",
"706 95 OFFCURVE",
"616 99 OFFCURVE",
"616 185 CURVE SMOOTH",
"616 318 LINE",
"821 318 LINE SMOOTH",
"1226 318 OFFCURVE",
"1394 503 OFFCURVE",
"1394 749 CURVE SMOOTH",
"1394 1024 OFFCURVE",
"1190 1145 OFFCURVE",
"792 1140 CURVE SMOOTH",
"616 1138 LINE",
"616 1267 LINE SMOOTH",
"616 1311 OFFCURVE",
"693 1326 OFFCURVE",
"761 1331 CURVE",
"787 1334 OFFCURVE",
"794 1347 OFFCURVE",
"794 1368 CURVE SMOOTH",
"794 1383 OFFCURVE",
"783 1419 OFFCURVE",
"760 1419 CURVE SMOOTH",
"135 1419 LINE SMOOTH",
"112 1419 OFFCURVE",
"101 1383 OFFCURVE",
"101 1368 CURVE SMOOTH",
"101 1338 OFFCURVE",
"109 1334 OFFCURVE",
"137 1331 CURVE SMOOTH",
"198 1324 OFFCURVE",
"279 1320 OFFCURVE",
"279 1234 CURVE SMOOTH",
"279 152 LINE SMOOTH",
"279 108 OFFCURVE",
"207 93 OFFCURVE",
"143 88 CURVE",
"117 85 OFFCURVE",
"110 72 OFFCURVE",
"110 51 CURVE SMOOTH {name = hr00;}",
"110 36 OFFCURVE",
"121 0 OFFCURVE",
"144 0 CURVE SMOOTH"
);
},
{
closed = 1;
nodes = (
"616 1061 LINE",
"681 1061 LINE SMOOTH",
"839 1061 OFFCURVE",
"1026 1018 OFFCURVE",
"1026 728 CURVE SMOOTH",
"1026 436 OFFCURVE",
"793 401 OFFCURVE",
"718 401 CURVE SMOOTH",
"616 401 LINE"
);
}
);
width = 1450;
}
);
leftKerningGroup = H;
rightKerningGroup = Thorn;
unicode = 00DE;
},
{
color = 10;
glyphname = Q;
lastChange = "2018-07-16 03:56:33 +0000";
layers = (
{
anchors = (
{
name = bottom;
position = "{748, 0}";
},
{
name = top;
position = "{748, 1419}";
}
);
background = {
paths = (
{
closed = 1;
nodes = (
"1365 -393 CURVE",
"1365 -393 OFFCURVE",
"1365 -323 OFFCURVE",
"1365 -323 CURVE",
"993 -330 OFFCURVE",
"928 -76 OFFCURVE",
"925 29 CURVE SMOOTH",
"925 29 OFFCURVE",
"673 0 OFFCURVE",
"673 0 CURVE",
"733 -369 OFFCURVE",
"974 -427 OFFCURVE",
"1196 -427 CURVE SMOOTH",
"1305 -427 OFFCURVE",
"1365 -393 OFFCURVE"
);
}
);
};
components = (
{
name = O;
}
);
layerId = "DD6F9F34-BC40-4E8F-B1D3-DF3B42A9710F";
paths = (
{
closed = 1;
nodes = (
"1351 -324 LINE",
"1037 -324 OFFCURVE",
"937 -155 OFFCURVE",
"912 1 CURVE",
"659 -6 LINE {name = hr00;}",
"714 -376 OFFCURVE",
"975 -426 OFFCURVE",
"1169 -426 CURVE SMOOTH",
"1259 -426 OFFCURVE",
"1324 -405 OFFCURVE",
"1351 -393 CURVE"
);
}
);
width = 1524;
},
{
anchors = (
{
name = bottom;
position = "{852, 0}";
},
{
name = top;
position = "{852, 1419}";
}
);
components = (
{
name = O;
}
);
layerId = "62CA62AF-CD91-478A-AB8B-28A62CC47DA0";
paths = (
{
closed = 1;
nodes = (
"1445 -303 LINE",
"1109 -309 OFFCURVE",
"1056 -113 OFFCURVE",
"1047 1 CURVE",
"665 -6 LINE {name = hr00;}",
"729 -364 OFFCURVE",
"1012 -419 OFFCURVE",
"1232 -419 CURVE SMOOTH",
"1341 -419 OFFCURVE",
"1418 -405 OFFCURVE",
"1445 -393 CURVE"
);
}
);
width = 1679;
}
);
leftKerningGroup = O;
rightKerningGroup = O;
unicode = 0051;
},
{
color = 10;
glyphname = R;
lastChange = "2018-07-16 15:28:27 +0000";
layers = (
{
anchors = (
{
name = bottom;
position = "{716, 0}";
},
{
name = top;
position = "{716, 1419}";
}
);
layerId = "DD6F9F34-BC40-4E8F-B1D3-DF3B42A9710F";
paths = (
{
closed = 1;
nodes = (
"664 0 LINE SMOOTH",
"687 0 OFFCURVE",
"698 36 OFFCURVE",
"698 51 CURVE SMOOTH",
"698 81 OFFCURVE",
"690 85 OFFCURVE",
"662 88 CURVE",
"589 93 OFFCURVE",
"490 99 OFFCURVE",
"490 185 CURVE SMOOTH",
"490 625 LINE",
"695 625 LINE SMOOTH",
"990 625 OFFCURVE",
"868 0 OFFCURVE",
"1199 0 CURVE SMOOTH",
"1402 0 LINE SMOOTH",
"1424 0 OFFCURVE",
"1436 31 OFFCURVE",
"1436 46 CURVE SMOOTH",
"1436 76 OFFCURVE",
"1428 86 OFFCURVE",
"1400 89 CURVE SMOOTH",
"1351 94 OFFCURVE",
"1284 119 OFFCURVE",
"1239 206 CURVE",
"1124 389 OFFCURVE",
"1119 628 OFFCURVE",
"854 654 CURVE",
"1069 712 OFFCURVE",
"1206 840 OFFCURVE",
"1206 1050 CURVE SMOOTH",
"1206 1329 OFFCURVE",
"982 1426 OFFCURVE",
"700 1428 CURVE SMOOTH",
"555 1429 OFFCURVE",
"494 1420 OFFCURVE",
"326 1420 CURVE SMOOTH",
"273 1420 OFFCURVE",
"210 1419 OFFCURVE",
"130 1419 CURVE SMOOTH",
"107 1419 OFFCURVE",
"96 1383 OFFCURVE",
"96 1368 CURVE SMOOTH",
"96 1338 OFFCURVE",
"104 1334 OFFCURVE",
"132 1331 CURVE SMOOTH",
"193 1324 OFFCURVE",
"284 1320 OFFCURVE",
"284 1234 CURVE SMOOTH",
"283 152 LINE SMOOTH",
"283 108 OFFCURVE",
"202 93 OFFCURVE",
"138 88 CURVE",
"112 85 OFFCURVE",
"105 72 OFFCURVE",
"105 51 CURVE SMOOTH",
"105 36 OFFCURVE",
"116 0 OFFCURVE",
"139 0 CURVE SMOOTH"
);
},
{
closed = 1;
nodes = (
"491 1332 LINE",
"653 1332 LINE SMOOTH",
"845 1332 OFFCURVE",
"997 1263 OFFCURVE",
"997 1019 CURVE SMOOTH",
"997 775 OFFCURVE",
"811 711 OFFCURVE",
"646 711 CURVE SMOOTH",
"490 711 LINE"
);
}
);
width = 1437;
},
{
anchors = (
{
name = bottom;
position = "{787, 0}";
},
{
name = top;
position = "{787, 1419}";
}
);
background = {
paths = (
{
closed = 1;
nodes = (
"763 0 LINE SMOOTH",
"786 0 OFFCURVE",
"797 36 OFFCURVE",
"797 51 CURVE SMOOTH",
"797 81 OFFCURVE",
"789 85 OFFCURVE",
"761 88 CURVE",
"688 93 OFFCURVE",
"619 99 OFFCURVE",
"619 185 CURVE SMOOTH",
"619 615 LINE",
"801 615 LINE",
"903 500 OFFCURVE",
"984 200 OFFCURVE",
"1086 70 CURVE",
"1114 37 OFFCURVE",
"1148 0 OFFCURVE",
"1219 0 CURVE SMOOTH",
"1571 0 LINE SMOOTH",
"1593 0 OFFCURVE",
"1606 17 OFFCURVE",
"1607 32 CURVE SMOOTH",
"1609 62 OFFCURVE",
"1603 86 OFFCURVE",
"1575 89 CURVE SMOOTH",
"1487 99 OFFCURVE",
"1392 245 OFFCURVE",
"1335 317 CURVE",
"1258 418 OFFCURVE",
"1196 560 OFFCURVE",
"1121 656 CURVE",
"1322 723 OFFCURVE",
"1406 846 OFFCURVE",
"1406 1050 CURVE SMOOTH",
"1406 1337 OFFCURVE",
"1184 1429 OFFCURVE",
"816 1429 CURVE SMOOTH",
"639 1429 OFFCURVE",
"563 1419 OFFCURVE",
"366 1419 CURVE SMOOTH {name = hr02;}",
"129 1419 LINE SMOOTH",
"106 1419 OFFCURVE",
"95 1383 OFFCURVE",
"95 1368 CURVE SMOOTH",
"95 1338 OFFCURVE",
"103 1334 OFFCURVE",
"131 1331 CURVE SMOOTH",
"192 1326 OFFCURVE",
"283 1320 OFFCURVE",
"283 1234 CURVE SMOOTH",
"283 152 LINE SMOOTH",
"283 108 OFFCURVE",
"211 93 OFFCURVE",
"147 88 CURVE",
"121 85 OFFCURVE",
"114 72 OFFCURVE",
"114 51 CURVE SMOOTH {name = hr01;}",
"114 36 OFFCURVE",
"125 0 OFFCURVE",
"148 0 CURVE SMOOTH"
);
},
{
closed = 1;
nodes = (
"619 1325 LINE",
"645 1328 OFFCURVE",
"673 1332 OFFCURVE",
"733 1332 CURVE SMOOTH",
"941 1332 OFFCURVE",
"1027 1271 OFFCURVE",
"1027 1019 CURVE SMOOTH",
"1027 751 OFFCURVE",
"918 711 OFFCURVE",
"753 711 CURVE SMOOTH",
"619 711 LINE"
);
}
);
};
layerId = "62CA62AF-CD91-478A-AB8B-28A62CC47DA0";
paths = (
{
closed = 1;
nodes = (
"793 0 LINE SMOOTH",
"816 0 OFFCURVE",
"827 36 OFFCURVE",
"827 51 CURVE SMOOTH",
"827 81 OFFCURVE",
"819 85 OFFCURVE",
"791 88 CURVE",
"718 93 OFFCURVE",
"621 99 OFFCURVE",
"621 185 CURVE SMOOTH",
"621 625 LINE",
"698 625 LINE SMOOTH",
"986 625 OFFCURVE",
"891 0 OFFCURVE",
"1222 0 CURVE SMOOTH",
"1575 0 LINE SMOOTH",
"1597 0 OFFCURVE",
"1609 31 OFFCURVE",
"1609 46 CURVE SMOOTH",
"1609 76 OFFCURVE",
"1601 86 OFFCURVE",
"1573 89 CURVE SMOOTH",
"1524 94 OFFCURVE",
"1457 119 OFFCURVE",
"1412 206 CURVE",
"1297 389 OFFCURVE",
"1268 628 OFFCURVE",
"1003 654 CURVE",
"1218 712 OFFCURVE",
"1399 769 OFFCURVE",
"1399 1050 CURVE SMOOTH",
"1399 1329 OFFCURVE",
"1187 1429 OFFCURVE",
"829 1429 CURVE SMOOTH",
"650 1429 OFFCURVE",
"456 1421 OFFCURVE",
"326 1421 CURVE SMOOTH",
"263 1421 OFFCURVE",
"218 1419 OFFCURVE",
"135 1419 CURVE SMOOTH",
"112 1419 OFFCURVE",
"101 1383 OFFCURVE",
"101 1368 CURVE SMOOTH",
"101 1338 OFFCURVE",
"109 1334 OFFCURVE",
"137 1331 CURVE SMOOTH",
"198 1324 OFFCURVE",
"289 1320 OFFCURVE",
"289 1234 CURVE SMOOTH",
"288 152 LINE SMOOTH",
"288 108 OFFCURVE",
"207 93 OFFCURVE",
"143 88 CURVE",
"117 85 OFFCURVE",
"110 72 OFFCURVE",
"110 51 CURVE SMOOTH",
"110 36 OFFCURVE",
"121 0 OFFCURVE",
"144 0 CURVE SMOOTH"
);
},
{
closed = 1;
nodes = (
"621 1332 LINE",
"772 1332 LINE SMOOTH",
"964 1332 OFFCURVE",
"1032 1223 OFFCURVE",
"1032 1019 CURVE SMOOTH",
"1032 785 OFFCURVE",
"940 711 OFFCURVE",
"775 711 CURVE SMOOTH",
"621 711 LINE"
);
}
);
width = 1633;
}
);
leftKerningGroup = H;
rightKerningGroup = R;
unicode = 0052;
},
{
color = 10;
glyphname = S;
lastChange = "2018-07-16 03:16:45 +0000";
layers = (
{
anchors = (
{
name = bottom;
position = "{594, 0}";
},
{
name = top;
position = "{587, 1419}";
}
);
layerId = "DD6F9F34-BC40-4E8F-B1D3-DF3B42A9710F";
paths = (
{
closed = 1;
nodes = (
"860 -30 OFFCURVE",
"1036 121 OFFCURVE",
"1036 382 CURVE SMOOTH",
"1036 581 OFFCURVE",
"844 714 OFFCURVE",
"659 815 CURVE SMOOTH",
"502 901 OFFCURVE",
"353 1000 OFFCURVE",
"353 1129 CURVE SMOOTH",
"353 1308 OFFCURVE",
"451 1370 OFFCURVE",
"589 1370 CURVE SMOOTH",
"734 1370 OFFCURVE",
"866 1266 OFFCURVE",
"902 1051 CURVE SMOOTH",
"904 1039 OFFCURVE",
"926 1028 OFFCURVE",
"947 1028 CURVE SMOOTH",
"972 1028 OFFCURVE",
"998 1042 OFFCURVE",
"998 1084 CURVE SMOOTH",
"998 1089 OFFCURVE",
"998 1094 OFFCURVE",
"997 1100 CURVE SMOOTH",
"979 1209 OFFCURVE",
"972 1369 OFFCURVE",
"972 1394 CURVE SMOOTH",
"972 1414 OFFCURVE",
"944 1432 OFFCURVE",
"917 1432 CURVE SMOOTH",
"908 1432 OFFCURVE",
"899 1430 OFFCURVE",
"891 1425 CURVE SMOOTH",
"872 1413 OFFCURVE",
"866 1398 OFFCURVE",
"835 1398 CURVE SMOOTH",
"807 1398 OFFCURVE",
"729 1449 OFFCURVE",
"572 1449 CURVE SMOOTH",
"389 1449 OFFCURVE",
"162 1344 OFFCURVE",
"162 1069 CURVE SMOOTH",
"162 831 OFFCURVE",
"354 720 OFFCURVE",
"538 626 CURVE SMOOTH",
"696 545 OFFCURVE",
"832 452 OFFCURVE",
"832 321 CURVE SMOOTH",
"832 125 OFFCURVE",
"722 59 OFFCURVE",
"602 59 CURVE SMOOTH",
"498 59 OFFCURVE",
"336 121 OFFCURVE",
"264 274 CURVE SMOOTH",
"210 389 OFFCURVE",
"197 444 OFFCURVE",
"190 478 CURVE SMOOTH",
"184 506 OFFCURVE",
"161 520 OFFCURVE",
"138 520 CURVE SMOOTH",
"113 520 OFFCURVE",
"89 504 OFFCURVE",
"89 469 CURVE SMOOTH",
"89 465 OFFCURVE",
"90 462 OFFCURVE",
"90 458 CURVE",
"97 393 OFFCURVE",
"110 274 OFFCURVE",
"110 155 CURVE SMOOTH",
"110 127 OFFCURVE",
"110 99 OFFCURVE",
"108 72 CURVE SMOOTH",
"106 44 OFFCURVE",
"124 24 OFFCURVE",
"149 24 CURVE SMOOTH",
"169 24 OFFCURVE",
"195 36 OFFCURVE",
"220 65 CURVE SMOOTH",
"231 78 OFFCURVE",
"241 82 OFFCURVE",
"250 82 CURVE SMOOTH",
"273 82 OFFCURVE",
"295 56 OFFCURVE",
"334 41 CURVE SMOOTH",
"378 24 OFFCURVE",
"457 -30 OFFCURVE",
"619 -30 CURVE SMOOTH"
);
}
);
width = 1149;
},
{
anchors = (
{
name = bottom;
position = "{709, 0}";
},
{
name = top;
position = "{683, 1419}";
}
);
layerId = "62CA62AF-CD91-478A-AB8B-28A62CC47DA0";
paths = (
{
closed = 1;
nodes = (
"1004 -30 OFFCURVE",
"1252 117 OFFCURVE",
"1252 372 CURVE SMOOTH {name = hr02;}",
"1252 591 OFFCURVE",
"1040 743 OFFCURVE",
"824 848 CURVE SMOOTH",
"646 935 OFFCURVE",
"456 1035 OFFCURVE",
"456 1194 CURVE SMOOTH",
"456 1326 OFFCURVE",
"567 1366 OFFCURVE",
"711 1366 CURVE SMOOTH",
"832 1366 OFFCURVE",
"986 1297 OFFCURVE",
"1043 1051 CURVE SMOOTH",
"1046 1038 OFFCURVE",
"1071 1028 OFFCURVE",
"1097 1028 CURVE SMOOTH",
"1127 1028 OFFCURVE",
"1159 1042 OFFCURVE",
"1159 1085 CURVE SMOOTH",
"1159 1090 OFFCURVE",
"1159 1095 OFFCURVE",
"1158 1100 CURVE",
"1144 1210 OFFCURVE",
"1133 1369 OFFCURVE",
"1133 1394 CURVE SMOOTH {name = hr03;}",
"1133 1414 OFFCURVE",
"1093 1432 OFFCURVE",
"1061 1432 CURVE SMOOTH",
"1050 1432 OFFCURVE",
"1040 1430 OFFCURVE",
"1032 1425 CURVE SMOOTH",
"1013 1413 OFFCURVE",
"1012 1396 OFFCURVE",
"979 1396 CURVE SMOOTH",
"973 1396 OFFCURVE",
"966 1397 OFFCURVE",
"957 1398 CURVE SMOOTH {name = hr04;}",
"922 1402 OFFCURVE",
"808 1448 OFFCURVE",
"679 1448 CURVE SMOOTH",
"365 1448 OFFCURVE",
"151 1326 OFFCURVE",
"151 1069 CURVE SMOOTH",
"151 831 OFFCURVE",
"354 692 OFFCURVE",
"533 601 CURVE SMOOTH",
"729 501 OFFCURVE",
"935 413 OFFCURVE",
"935 240 CURVE SMOOTH",
"935 90 OFFCURVE",
"797 61 OFFCURVE",
"657 61 CURVE SMOOTH",
"547 61 OFFCURVE",
"372 141 OFFCURVE",
"296 294 CURVE",
"242 409 OFFCURVE",
"229 444 OFFCURVE",
"222 478 CURVE SMOOTH",
"216 506 OFFCURVE",
"189 520 OFFCURVE",
"161 520 CURVE SMOOTH",
"129 520 OFFCURVE",
"97 500 OFFCURVE",
"102 458 CURVE",
"109 393 OFFCURVE",
"122 261 OFFCURVE",
"122 138 CURVE SMOOTH",
"122 109 OFFCURVE",
"122 80 OFFCURVE",
"120 53 CURVE SMOOTH {name = hr01;}",
"118 25 OFFCURVE",
"142 5 OFFCURVE",
"174 5 CURVE SMOOTH",
"198 5 OFFCURVE",
"228 16 OFFCURVE",
"252 46 CURVE SMOOTH",
"266 63 OFFCURVE",
"277 69 OFFCURVE",
"288 69 CURVE SMOOTH",
"306 69 OFFCURVE",
"325 53 OFFCURVE",
"359 41 CURVE SMOOTH",
"406 24 OFFCURVE",
"541 -30 OFFCURVE",
"674 -30 CURVE SMOOTH"
);
}
);
width = 1329;
}
);
leftKerningGroup = S;
rightKerningGroup = S;
unicode = 0053;
},
{
color = 10;
glyphname = Germandbls;
lastChange = "2018-07-16 15:41:45 +0000";
layers = (
{
layerId = "DD6F9F34-BC40-4E8F-B1D3-DF3B42A9710F";
paths = (
{
closed = 1;
nodes = (
"1246 -23 OFFCURVE",
"1371 183 OFFCURVE",
"1371 427 CURVE SMOOTH",
"1371 713 OFFCURVE",
"1109 810 OFFCURVE",
"968 810 CURVE",
"1279 1419 LINE",
"781 1417 LINE SMOOTH",
"419 1417 OFFCURVE",
"220 1225 OFFCURVE",
"220 903 CURVE SMOOTH",
"221 185 LINE SMOOTH",
"221 99 OFFCURVE",
"151 92 OFFCURVE",
"90 88 CURVE SMOOTH",
"62 86 OFFCURVE",
"54 81 OFFCURVE",
"54 51 CURVE SMOOTH",
"54 36 OFFCURVE",
"65 0 OFFCURVE",
"88 0 CURVE SMOOTH",
"438 0 LINE",
"437 895 LINE",
"437 1207 OFFCURVE",
"577 1323 OFFCURVE",
"785 1323 CURVE SMOOTH",
"1003 1323 LINE",
"741 823 OFFCURVE",
"735 818 OFFCURVE",
"735 795 CURVE SMOOTH",
"735 769 OFFCURVE",
"754 726 OFFCURVE",
"806 726 CURVE SMOOTH",
"1038 726 OFFCURVE",
"1147 559 OFFCURVE",
"1147 399 CURVE SMOOTH",
"1147 171 OFFCURVE",
"1056 72 OFFCURVE",
"911 72 CURVE SMOOTH",
"796 72 OFFCURVE",
"769 139 OFFCURVE",
"769 139 CURVE",
"804 315 LINE",
"796 357 OFFCURVE",
"746 383 OFFCURVE",
"700 383 CURVE SMOOTH",
"660 383 OFFCURVE",
"592 352 OFFCURVE",
"592 254 CURVE SMOOTH",
"592 94 OFFCURVE",
"746 -23 OFFCURVE",
"945 -23 CURVE SMOOTH"
);
}
);
width = 1409;
},
{
layerId = "62CA62AF-CD91-478A-AB8B-28A62CC47DA0";
paths = (
{
closed = 1;
nodes = (
"1399 -19 OFFCURVE",
"1613 121 OFFCURVE",
"1613 382 CURVE SMOOTH",
"1613 653 OFFCURVE",
"1420 789 OFFCURVE",
"1170 789 CURVE",
"1481 1419 LINE",
"899 1420 LINE SMOOTH",
"468 1421 OFFCURVE",
"239 1225 OFFCURVE",
"239 903 CURVE SMOOTH",
"240 185 LINE SMOOTH",
"240 99 OFFCURVE",
"179 95 OFFCURVE",
"118 88 CURVE SMOOTH",
"90 85 OFFCURVE",
"82 81 OFFCURVE",
"82 51 CURVE SMOOTH",
"82 36 OFFCURVE",
"93 0 OFFCURVE",
"116 0 CURVE SMOOTH",
"587 0 LINE",
"586 895 LINE",
"586 1207 OFFCURVE",
"679 1326 OFFCURVE",
"903 1326 CURVE SMOOTH",
"1105 1326 LINE",
"845 806 OFFCURVE",
"836 798 OFFCURVE",
"836 771 CURVE SMOOTH",
"836 742 OFFCURVE",
"854 693 OFFCURVE",
"907 693 CURVE SMOOTH",
"1191 693 OFFCURVE",
"1276 532 OFFCURVE",
"1276 351 CURVE SMOOTH",
"1276 200 OFFCURVE",
"1164 76 OFFCURVE",
"1044 76 CURVE SMOOTH",
"930 76 OFFCURVE",
"876 143 OFFCURVE",
"876 143 CURVE",
"911 347 LINE",
"903 389 OFFCURVE",
"853 397 OFFCURVE",
"807 397 CURVE SMOOTH",
"767 397 OFFCURVE",
"684 356 OFFCURVE",
"684 258 CURVE SMOOTH",
"684 95 OFFCURVE",
"872 -19 OFFCURVE",
"1042 -19 CURVE SMOOTH"
);
}
);
width = 1681;
}
);
leftKerningGroup = uni1E9E;
rightKerningGroup = uni1E9E;
unicode = 1E9E;
},
{
color = 10;
glyphname = Schwa;
lastChange = "2018-07-16 04:02:58 +0000";
layers = (
{
layerId = "DD6F9F34-BC40-4E8F-B1D3-DF3B42A9710F";
paths = (
{
closed = 1;
nodes = (
"994 -30 OFFCURVE",
"1392 153 OFFCURVE",
"1392 706 CURVE SMOOTH",
"1392 1256 OFFCURVE",
"989 1449 OFFCURVE",
"693 1449 CURVE SMOOTH",
"428 1449 OFFCURVE",
"299 1392 OFFCURVE",
"228 1361 CURVE",
"206 1051 LINE",
"203 1028 OFFCURVE",
"226 1011 OFFCURVE",
"242 1011 CURVE SMOOTH",
"246 1011 OFFCURVE",
"249 1010 OFFCURVE",
"253 1010 CURVE SMOOTH",
"271 1010 OFFCURVE",
"287 1017 OFFCURVE",
"290 1039 CURVE",
"337 1207 OFFCURVE",
"459 1355 OFFCURVE",
"695 1353 CURVE SMOOTH",
"847 1352 OFFCURVE",
"1143 1260 OFFCURVE",
"1143 706 CURVE SMOOTH",
"1143 217 OFFCURVE",
"876 65 OFFCURVE",
"706 65 CURVE SMOOTH",
"486 65 OFFCURVE",
"341 272 OFFCURVE",
"341 522 CURVE SMOOTH",
"341 580 OFFCURVE",
"349 612 OFFCURVE",
"352 628 CURVE",
"1170 628 LINE",
"1198 631 OFFCURVE",
"1206 635 OFFCURVE",
"1206 665 CURVE SMOOTH",
"1206 680 OFFCURVE",
"1195 716 OFFCURVE",
"1172 716 CURVE SMOOTH",
"152 716 LINE SMOOTH",
"140 716 OFFCURVE",
"128 662 OFFCURVE",
"128 583 CURVE SMOOTH",
"128 331 OFFCURVE",
"270 -30 OFFCURVE",
"722 -30 CURVE SMOOTH"
);
}
);
width = 1485;
},
{
layerId = "62CA62AF-CD91-478A-AB8B-28A62CC47DA0";
paths = (
{
closed = 1;
nodes = (
"1082 -30 OFFCURVE",
"1555 153 OFFCURVE",
"1555 706 CURVE SMOOTH {name = hr00;}",
"1555 1256 OFFCURVE",
"1080 1449 OFFCURVE",
"736 1449 CURVE SMOOTH",
"476 1449 OFFCURVE",
"298 1392 OFFCURVE",
"228 1361 CURVE",
"206 1051 LINE SMOOTH",
"204 1028 OFFCURVE",
"245 1011 OFFCURVE",
"262 1011 CURVE SMOOTH",
"266 1011 OFFCURVE",
"270 1010 OFFCURVE",
"276 1010 CURVE SMOOTH",
"302 1010 OFFCURVE",
"344 1017 OFFCURVE",
"348 1039 CURVE",
"394 1207 OFFCURVE",
"494 1353 OFFCURVE",
"738 1353 CURVE SMOOTH",
"882 1353 OFFCURVE",
"1176 1260 OFFCURVE",
"1176 706 CURVE SMOOTH",
"1176 217 OFFCURVE",
"957 65 OFFCURVE",
"749 65 CURVE SMOOTH",
"558 65 OFFCURVE",
"457 248 OFFCURVE",
"457 424 CURVE SMOOTH",
"457 465 OFFCURVE",
"458 513 OFFCURVE",
"469 546 CURVE",
"1249 553 LINE",
"1277 555 OFFCURVE",
"1285 560 OFFCURVE",
"1285 590 CURVE SMOOTH",
"1285 605 OFFCURVE",
"1274 641 OFFCURVE",
"1251 641 CURVE SMOOTH",
"133 641 LINE SMOOTH",
"119 641 OFFCURVE",
"104 590 OFFCURVE",
"104 517 CURVE SMOOTH",
"104 286 OFFCURVE",
"287 -30 OFFCURVE",
"766 -30 CURVE SMOOTH"
);
}
);
width = 1653;
}
);
leftKerningGroup = O;
rightKerningGroup = O;
unicode = 018F;
},
{
color = 10;
glyphname = T;
lastChange = "2018-07-16 04:00:06 +0000";
layers = (
{
anchors = (
{
name = bottom;
position = "{628, 0}";
},
{
name = center;
position = "{634, 710}";
},
{
name = top;
position = "{624, 1419}";
}
);
layerId = "DD6F9F34-BC40-4E8F-B1D3-DF3B42A9710F";
paths = (
{
closed = 1;
nodes = (
"941 0 LINE SMOOTH",
"964 0 OFFCURVE",
"975 36 OFFCURVE",
"975 51 CURVE SMOOTH",
"975 81 OFFCURVE",
"967 85 OFFCURVE",
"939 88 CURVE",
"858 93 OFFCURVE",
"737 99 OFFCURVE",
"737 185 CURVE SMOOTH",
"738 1320 LINE",
"991 1320 LINE SMOOTH",
"1105 1320 OFFCURVE",
"1134 1084 OFFCURVE",
"1139 1019 CURVE",
"1142 993 OFFCURVE",
"1155 986 OFFCURVE",
"1176 986 CURVE SMOOTH",
"1191 986 OFFCURVE",
"1227 997 OFFCURVE",
"1227 1020 CURVE",
"1223 1151 OFFCURVE",
"1208 1419 OFFCURVE",
"1193 1419 CURVE SMOOTH",
"74 1419 LINE SMOOTH",
"59 1419 OFFCURVE",
"45 1151 OFFCURVE",
"39 1020 CURVE SMOOTH",
"38 997 OFFCURVE",
"75 986 OFFCURVE",
"90 986 CURVE SMOOTH",
"111 986 OFFCURVE",
"124 993 OFFCURVE",
"127 1019 CURVE",
"132 1084 OFFCURVE",
"162 1320 OFFCURVE",
"276 1320 CURVE SMOOTH",
"531 1320 LINE",
"530 182 LINE SMOOTH",
"530 108 OFFCURVE",
"419 93 OFFCURVE",
"325 88 CURVE",
"299 85 OFFCURVE",
"292 72 OFFCURVE",
"292 51 CURVE SMOOTH",
"292 36 OFFCURVE",
"303 0 OFFCURVE",
"326 0 CURVE SMOOTH"
);
}
);
width = 1267;
},
{
anchors = (
{
name = bottom;
position = "{717, 0}";
},
{
name = center;
position = "{717, 710}";
},
{
name = top;
position = "{717, 1419}";
}
);
layerId = "62CA62AF-CD91-478A-AB8B-28A62CC47DA0";
paths = (
{
closed = 1;
nodes = (
"1079 0 LINE SMOOTH",
"1102 0 OFFCURVE",
"1113 36 OFFCURVE",
"1113 51 CURVE SMOOTH",
"1113 81 OFFCURVE",
"1105 85 OFFCURVE",
"1077 88 CURVE",
"996 93 OFFCURVE",
"875 99 OFFCURVE",
"875 185 CURVE SMOOTH",
"875 1320 LINE",
"1122 1320 LINE SMOOTH",
"1237 1320 OFFCURVE",
"1270 1084 OFFCURVE",
"1276 1019 CURVE SMOOTH",
"1279 993 OFFCURVE",
"1312 986 OFFCURVE",
"1333 986 CURVE SMOOTH",
"1348 986 OFFCURVE",
"1384 997 OFFCURVE",
"1384 1020 CURVE",
"1380 1151 OFFCURVE",
"1369 1419 OFFCURVE",
"1354 1419 CURVE SMOOTH",
"47 1419 LINE SMOOTH",
"32 1419 OFFCURVE",
"21 1151 OFFCURVE",
"17 1020 CURVE",
"17 997 OFFCURVE",
"53 986 OFFCURVE",
"68 986 CURVE SMOOTH",
"89 986 OFFCURVE",
"122 993 OFFCURVE",
"125 1019 CURVE",
"130 1084 OFFCURVE",
"165 1320 OFFCURVE",
"279 1320 CURVE SMOOTH",
"539 1320 LINE",
"539 182 LINE SMOOTH",
"539 108 OFFCURVE",
"427 93 OFFCURVE",
"333 88 CURVE",
"307 85 OFFCURVE",
"300 72 OFFCURVE",
"300 51 CURVE SMOOTH {name = hr00;}",
"300 36 OFFCURVE",
"311 0 OFFCURVE",
"334 0 CURVE SMOOTH"
);
}
);
width = 1401;
}
);
leftKerningGroup = T;
rightKerningGroup = T;
unicode = 0054;
},
{
color = 10;
glyphname = Tbar;
lastChange = "2018-07-16 04:00:06 +0000";
layers = (
{
components = (
{
name = T;
transform = "{1, 0, 0, 1, -10, 0}";
}
);
layerId = "DD6F9F34-BC40-4E8F-B1D3-DF3B42A9710F";
paths = (
{
closed = 1;
nodes = (
"990 586 LINE",
"1004 592 OFFCURVE",
"1014 634 OFFCURVE",
"1014 659 CURVE SMOOTH",
"1014 675 OFFCURVE",
"1006 692 OFFCURVE",
"990 693 CURVE",
"248 693 LINE",
"234 687 OFFCURVE",
"224 665 OFFCURVE",
"224 640 CURVE SMOOTH",
"224 624 OFFCURVE",
"232 587 OFFCURVE",
"248 586 CURVE"
);
}
);
width = 1267;
},
{
components = (
{
name = T;
transform = "{1, 0, 0, 1, 12, 0}";
}
);
layerId = "62CA62AF-CD91-478A-AB8B-28A62CC47DA0";
paths = (
{
closed = 1;
nodes = (
"1136 586 LINE",
"1150 592 OFFCURVE",
"1160 634 OFFCURVE",
"1160 659 CURVE SMOOTH",
"1160 675 OFFCURVE",
"1152 692 OFFCURVE",
"1136 693 CURVE",
"270 693 LINE",
"256 687 OFFCURVE",
"246 665 OFFCURVE",
"246 640 CURVE SMOOTH",
"246 624 OFFCURVE",
"254 587 OFFCURVE",
"270 586 CURVE"
);
}
);
width = 1401;
}
);
leftKerningGroup = T;
rightKerningGroup = T;
unicode = 0166;
},
{
color = 10;
glyphname = U;
lastChange = "2018-07-16 04:07:51 +0000";
layers = (
{
anchors = (
{
name = bottom;
position = "{767, 0}";
},
{
name = ogonek;
position = "{1386, 10}";
},
{
name = top;
position = "{813, 1419}";
},
{
name = topright;
position = "{1521, 1419}";
}
);
layerId = "DD6F9F34-BC40-4E8F-B1D3-DF3B42A9710F";
paths = (
{
closed = 1;
nodes = (
"1296 1294 OFFCURVE",
"1368 1326 OFFCURVE",
"1471 1331 CURVE SMOOTH",
"1497 1332 OFFCURVE",
"1504 1347 OFFCURVE",
"1504 1368 CURVE SMOOTH",
"1504 1383 OFFCURVE",
"1493 1419 OFFCURVE",
"1470 1419 CURVE SMOOTH",
"1005 1419 LINE SMOOTH",
"982 1419 OFFCURVE",
"971 1383 OFFCURVE",
"971 1368 CURVE SMOOTH",
"971 1338 OFFCURVE",
"979 1334 OFFCURVE",
"1007 1331 CURVE SMOOTH",
"1062 1325 OFFCURVE",
"1183 1311 OFFCURVE",
"1183 1244 CURVE SMOOTH",
"1183 514 LINE SMOOTH",
"1183 250 OFFCURVE",
"1100 65 OFFCURVE",
"785 65 CURVE SMOOTH",
"577 65 OFFCURVE",
"459 212 OFFCURVE",
"459 524 CURVE SMOOTH",
"460 1267 LINE SMOOTH",
"460 1311 OFFCURVE",
"546 1326 OFFCURVE",
"615 1331 CURVE SMOOTH",
"641 1333 OFFCURVE",
"648 1347 OFFCURVE",
"648 1368 CURVE SMOOTH",
"648 1383 OFFCURVE",
"637 1419 OFFCURVE",
"614 1419 CURVE SMOOTH",
"108 1419 LINE SMOOTH",
"85 1419 OFFCURVE",
"74 1383 OFFCURVE",
"74 1368 CURVE SMOOTH",
"74 1338 OFFCURVE",
"82 1334 OFFCURVE",
"110 1331 CURVE SMOOTH",
"171 1326 OFFCURVE",
"252 1320 OFFCURVE",
"252 1234 CURVE SMOOTH",
"251 516 LINE SMOOTH",
"251 194 OFFCURVE",
"419 -29 OFFCURVE",
"781 -29 CURVE SMOOTH",
"1101 -29 OFFCURVE",
"1293 154 OFFCURVE",
"1294 516 CURVE SMOOTH",
"1296 1230 LINE SMOOTH"
);
}
);
width = 1549;
},
{
anchors = (
{
name = bottom;
position = "{835, 0}";
},
{
name = ogonek;
position = "{1517, 10}";
},
{
name = top;
position = "{906, 1419}";
},
{
name = topright;
position = "{1668, 1419}";
}
);
background = {
paths = (
{
closed = 1;
nodes = (
"256 194 OFFCURVE",
"415 -29 OFFCURVE",
"901 -29 CURVE SMOOTH",
"1242 -29 OFFCURVE",
"1463 169 OFFCURVE",
"1463 566 CURVE SMOOTH",
"1463 1230 LINE SMOOTH",
"1463 1294 OFFCURVE",
"1531 1326 OFFCURVE",
"1634 1331 CURVE SMOOTH",
"1660 1332 OFFCURVE",
"1667 1347 OFFCURVE",
"1667 1368 CURVE SMOOTH",
"1667 1383 OFFCURVE",
"1656 1419 OFFCURVE",
"1633 1419 CURVE SMOOTH",
"1177 1419 LINE SMOOTH",
"1154 1419 OFFCURVE",
"1143 1383 OFFCURVE",
"1143 1368 CURVE SMOOTH",
"1143 1338 OFFCURVE",
"1151 1334 OFFCURVE",
"1179 1331 CURVE SMOOTH",
"1235 1326 OFFCURVE",
"1353 1311 OFFCURVE",
"1353 1244 CURVE SMOOTH",
"1353 564 LINE SMOOTH",
"1353 297 OFFCURVE",
"1254 65 OFFCURVE",
"918 65 CURVE SMOOTH",
"684 65 OFFCURVE",
"603 227 OFFCURVE",
"603 574 CURVE SMOOTH",
"603 1267 LINE SMOOTH",
"603 1311 OFFCURVE",
"690 1326 OFFCURVE",
"758 1331 CURVE SMOOTH",
"784 1334 OFFCURVE",
"791 1347 OFFCURVE",
"791 1368 CURVE SMOOTH",
"791 1383 OFFCURVE",
"780 1419 OFFCURVE",
"757 1419 CURVE SMOOTH",
"112 1419 LINE SMOOTH",
"89 1419 OFFCURVE",
"78 1383 OFFCURVE",
"78 1368 CURVE SMOOTH",
"78 1338 OFFCURVE",
"86 1334 OFFCURVE",
"114 1331 CURVE SMOOTH",
"175 1326 OFFCURVE",
"256 1320 OFFCURVE",
"256 1234 CURVE SMOOTH",
"256 566 LINE SMOOTH {name = hr00;}"
);
}
);
};
layerId = "62CA62AF-CD91-478A-AB8B-28A62CC47DA0";
paths = (
{
closed = 1;
nodes = (
"1445 1294 OFFCURVE",
"1508 1327 OFFCURVE",
"1611 1331 CURVE SMOOTH",
"1637 1332 OFFCURVE",
"1644 1347 OFFCURVE",
"1644 1368 CURVE SMOOTH",
"1644 1383 OFFCURVE",
"1633 1419 OFFCURVE",
"1610 1419 CURVE SMOOTH",
"1143 1419 LINE SMOOTH",
"1120 1419 OFFCURVE",
"1109 1383 OFFCURVE",
"1109 1368 CURVE SMOOTH",
"1109 1338 OFFCURVE",
"1117 1334 OFFCURVE",
"1145 1331 CURVE SMOOTH",
"1200 1325 OFFCURVE",
"1322 1311 OFFCURVE",
"1322 1244 CURVE SMOOTH",
"1322 514 LINE SMOOTH",
"1322 286 OFFCURVE",
"1201 65 OFFCURVE",
"905 65 CURVE SMOOTH",
"684 65 OFFCURVE",
"577 186 OFFCURVE",
"577 524 CURVE SMOOTH",
"578 1267 LINE SMOOTH",
"578 1311 OFFCURVE",
"664 1326 OFFCURVE",
"733 1331 CURVE SMOOTH",
"759 1333 OFFCURVE",
"766 1347 OFFCURVE",
"766 1368 CURVE SMOOTH",
"766 1383 OFFCURVE",
"755 1419 OFFCURVE",
"732 1419 CURVE SMOOTH",
"98 1419 LINE SMOOTH",
"75 1419 OFFCURVE",
"64 1383 OFFCURVE",
"64 1368 CURVE SMOOTH",
"64 1338 OFFCURVE",
"72 1334 OFFCURVE",
"100 1331 CURVE SMOOTH",
"161 1326 OFFCURVE",
"242 1320 OFFCURVE",
"242 1234 CURVE SMOOTH",
"241 548 LINE SMOOTH",
"240 107 OFFCURVE",
"524 -29 OFFCURVE",
"901 -29 CURVE SMOOTH",
"1242 -29 OFFCURVE",
"1442 186 OFFCURVE",
"1443 516 CURVE SMOOTH",
"1445 1230 LINE SMOOTH"
);
}
);
width = 1707;
}
);
leftKerningGroup = U;
rightKerningGroup = U;
unicode = 0055;
},
{
color = 10;
glyphname = Uhorn;
lastChange = "2018-07-16 04:12:12 +0000";
layers = (
{
anchors = (
{
name = bottom;
position = "{775, 0}";
},
{
name = ogonek;
position = "{1394, 10}";
},
{
name = top;
position = "{826, 1419}";
},
{
name = topright;
position = "{1521, 1419}";
}
);
layerId = "DD6F9F34-BC40-4E8F-B1D3-DF3B42A9710F";
paths = (
{
closed = 1;
nodes = (
"1378 1322 LINE",
"1550 1322 OFFCURVE",
"1659 1478 OFFCURVE",
"1669 1633 CURVE SMOOTH",
"1670 1648 OFFCURVE",
"1667 1663 OFFCURVE",
"1664 1680 CURVE",
"1491 1680 LINE",
"1492 1671 OFFCURVE",
"1492 1659 OFFCURVE",
"1492 1644 CURVE SMOOTH",
"1492 1564 OFFCURVE",
"1468 1417 OFFCURVE",
"1309 1414 CURVE"
);
},
{
closed = 1;
nodes = (
"1296 1294 OFFCURVE",
"1319 1322 OFFCURVE",
"1378 1322 CURVE SMOOTH",
"1404 1322 OFFCURVE",
"1491 1362 OFFCURVE",
"1491 1383 CURVE SMOOTH",
"1491 1398 OFFCURVE",
"1493 1419 OFFCURVE",
"1470 1419 CURVE SMOOTH",
"1005 1419 LINE SMOOTH",
"982 1419 OFFCURVE",
"971 1383 OFFCURVE",
"971 1368 CURVE SMOOTH",
"971 1338 OFFCURVE",
"979 1334 OFFCURVE",
"1007 1331 CURVE SMOOTH",
"1062 1325 OFFCURVE",
"1183 1311 OFFCURVE",
"1183 1244 CURVE SMOOTH",
"1183 514 LINE SMOOTH",
"1183 250 OFFCURVE",
"1100 65 OFFCURVE",
"785 65 CURVE SMOOTH",
"577 65 OFFCURVE",
"459 212 OFFCURVE",
"459 524 CURVE SMOOTH",
"460 1267 LINE SMOOTH",
"460 1311 OFFCURVE",
"546 1326 OFFCURVE",
"615 1331 CURVE SMOOTH",
"641 1333 OFFCURVE",
"648 1347 OFFCURVE",
"648 1368 CURVE SMOOTH",
"648 1383 OFFCURVE",
"637 1419 OFFCURVE",
"614 1419 CURVE SMOOTH",
"108 1419 LINE SMOOTH",
"85 1419 OFFCURVE",
"74 1383 OFFCURVE",
"74 1368 CURVE SMOOTH",
"74 1338 OFFCURVE",
"82 1334 OFFCURVE",
"110 1331 CURVE SMOOTH",
"171 1326 OFFCURVE",
"252 1320 OFFCURVE",
"252 1234 CURVE SMOOTH",
"251 516 LINE SMOOTH",
"251 194 OFFCURVE",
"419 -29 OFFCURVE",
"781 -29 CURVE SMOOTH",
"1101 -29 OFFCURVE",
"1293 154 OFFCURVE",
"1294 516 CURVE SMOOTH",
"1296 1230 LINE SMOOTH"
);
}
);
width = 1549;
},
{
anchors = (
{
name = bottom;
position = "{853, 0}";
},
{
name = ogonek;
position = "{1535, 10}";
},
{
name = top;
position = "{953, 1419}";
},
{
name = topright;
position = "{1668, 1419}";
}
);
layerId = "62CA62AF-CD91-478A-AB8B-28A62CC47DA0";
paths = (
{
closed = 1;
nodes = (
"1600 1329 LINE",
"1659 1329 OFFCURVE",
"1817 1421 OFFCURVE",
"1817 1627 CURVE SMOOTH",
"1817 1645 OFFCURVE",
"1814 1717 OFFCURVE",
"1811 1738 CURVE",
"1595 1738 LINE",
"1597 1729 OFFCURVE",
"1597 1702 OFFCURVE",
"1597 1655 CURVE SMOOTH",
"1597 1554 OFFCURVE",
"1586 1419 OFFCURVE",
"1396 1419 CURVE"
);
},
{
closed = 1;
nodes = (
"1445 1294 OFFCURVE",
"1497 1325 OFFCURVE",
"1600 1329 CURVE SMOOTH",
"1626 1330 OFFCURVE",
"1644 1347 OFFCURVE",
"1644 1368 CURVE SMOOTH",
"1644 1383 OFFCURVE",
"1633 1419 OFFCURVE",
"1610 1419 CURVE SMOOTH",
"1143 1419 LINE SMOOTH",
"1120 1419 OFFCURVE",
"1109 1383 OFFCURVE",
"1109 1368 CURVE SMOOTH",
"1109 1338 OFFCURVE",
"1117 1334 OFFCURVE",
"1145 1331 CURVE SMOOTH",
"1200 1325 OFFCURVE",
"1322 1311 OFFCURVE",
"1322 1244 CURVE SMOOTH",
"1322 514 LINE SMOOTH",
"1322 286 OFFCURVE",
"1201 65 OFFCURVE",
"905 65 CURVE SMOOTH",
"684 65 OFFCURVE",
"577 186 OFFCURVE",
"577 524 CURVE SMOOTH",
"578 1267 LINE SMOOTH",
"578 1311 OFFCURVE",
"664 1326 OFFCURVE",
"733 1331 CURVE SMOOTH",
"759 1333 OFFCURVE",
"766 1347 OFFCURVE",
"766 1368 CURVE SMOOTH",
"766 1383 OFFCURVE",
"755 1419 OFFCURVE",
"732 1419 CURVE SMOOTH",
"98 1419 LINE SMOOTH",
"75 1419 OFFCURVE",
"64 1383 OFFCURVE",
"64 1368 CURVE SMOOTH",
"64 1338 OFFCURVE",
"72 1334 OFFCURVE",
"100 1331 CURVE SMOOTH",
"161 1326 OFFCURVE",
"242 1320 OFFCURVE",
"242 1234 CURVE SMOOTH",
"241 548 LINE SMOOTH",
"240 107 OFFCURVE",
"524 -29 OFFCURVE",
"901 -29 CURVE SMOOTH",
"1242 -29 OFFCURVE",
"1442 186 OFFCURVE",
"1443 516 CURVE SMOOTH",
"1445 1230 LINE SMOOTH"
);
}
);
width = 1706;
}
);
leftKerningGroup = U;
rightKerningGroup = U;
unicode = 01AF;
},
{
color = 10;
glyphname = Uogonek;
lastChange = "2018-07-16 02:59:35 +0000";
layers = (
{
components = (
{
name = U;
}
);
layerId = "DD6F9F34-BC40-4E8F-B1D3-DF3B42A9710F";
paths = (
{
closed = 1;
nodes = (
"874 0 LINE",
"745 0 OFFCURVE",
"609 -89 OFFCURVE",
"609 -194 CURVE SMOOTH",
"609 -299 OFFCURVE",
"698 -370 OFFCURVE",
"828 -370 CURVE SMOOTH",
"888 -370 OFFCURVE",
"973 -351 OFFCURVE",
"1017 -323 CURVE SMOOTH",
"1031 -314 OFFCURVE",
"1037 -294 OFFCURVE",
"1037 -277 CURVE SMOOTH",
"1037 -258 OFFCURVE",
"1030 -241 OFFCURVE",
"1017 -243 CURVE SMOOTH",
"983 -248 OFFCURVE",
"967 -259 OFFCURVE",
"935 -259 CURVE SMOOTH",
"846 -259 OFFCURVE",
"795 -221 OFFCURVE",
"795 -160 CURVE SMOOTH",
"795 -84 OFFCURVE",
"838 -49 OFFCURVE",
"959 0 CURVE",
"930 50 LINE"
);
}
);
width = 1549;
},
{
components = (
{
name = U;
}
);
layerId = "62CA62AF-CD91-478A-AB8B-28A62CC47DA0";
paths = (
{
closed = 1;
nodes = (
"901 0 LINE",
"682 -52 OFFCURVE",
"614 -157 OFFCURVE",
"614 -264 CURVE SMOOTH",
"614 -370 OFFCURVE",
"726 -444 OFFCURVE",
"883 -444 CURVE SMOOTH",
"956 -444 OFFCURVE",
"1060 -422 OFFCURVE",
"1112 -387 CURVE SMOOTH",
"1129 -376 OFFCURVE",
"1136 -343 OFFCURVE",
"1136 -311 CURVE SMOOTH",
"1136 -275 OFFCURVE",
"1126 -241 OFFCURVE",
"1112 -246 CURVE SMOOTH",
"1071 -260 OFFCURVE",
"1051 -265 OFFCURVE",
"1013 -265 CURVE SMOOTH",
"905 -265 OFFCURVE",
"864 -234 OFFCURVE",
"864 -184 CURVE SMOOTH",
"864 -116 OFFCURVE",
"956 -39 OFFCURVE",
"1071 0 CURVE",
"976 32 LINE"
);
}
);
width = 1707;
}
);
leftKerningGroup = U;
rightKerningGroup = U;
unicode = 0172;
},
{
color = 10;
glyphname = V;
lastChange = "2018-07-15 18:01:19 +0000";
layers = (
{
anchors = (
{
name = bottom;
position = "{689, 0}";
},
{
name = top;
position = "{689, 1419}";
}
);
layerId = "DD6F9F34-BC40-4E8F-B1D3-DF3B42A9710F";
paths = (
{
closed = 1;
nodes = (
"767 -18 LINE",
"1232 1254 LINE SMOOTH",
"1265 1342 OFFCURVE",
"1344 1326 OFFCURVE",
"1393 1331 CURVE SMOOTH",
"1421 1334 OFFCURVE",
"1429 1338 OFFCURVE",
"1429 1368 CURVE SMOOTH",
"1429 1383 OFFCURVE",
"1417 1419 OFFCURVE",
"1395 1419 CURVE SMOOTH",
"940 1419 LINE SMOOTH",
"917 1419 OFFCURVE",
"906 1383 OFFCURVE",
"906 1368 CURVE SMOOTH",
"906 1347 OFFCURVE",
"913 1334 OFFCURVE",
"939 1331 CURVE",
"1022 1326 OFFCURVE",
"1099 1308 OFFCURVE",
"1099 1268 CURVE SMOOTH",
"1099 1265 OFFCURVE",
"1098 1261 OFFCURVE",
"1097 1257 CURVE SMOOTH",
"750 232 LINE",
"384 1287 LINE SMOOTH",
"382 1292 OFFCURVE",
"381 1297 OFFCURVE",
"381 1300 CURVE SMOOTH",
"381 1332 OFFCURVE",
"441 1327 OFFCURVE",
"522 1331 CURVE",
"548 1334 OFFCURVE",
"555 1347 OFFCURVE",
"555 1368 CURVE SMOOTH",
"555 1383 OFFCURVE",
"544 1419 OFFCURVE",
"521 1419 CURVE SMOOTH",
"-4 1419 LINE SMOOTH",
"-26 1419 OFFCURVE",
"-38 1383 OFFCURVE",
"-38 1368 CURVE SMOOTH",
"-38 1338 OFFCURVE",
"-30 1334 OFFCURVE",
"-2 1331 CURVE SMOOTH",
"47 1326 OFFCURVE",
"126 1342 OFFCURVE",
"159 1254 CURVE SMOOTH",
"644 -18 LINE"
);
}
);
width = 1365;
},
{
anchors = (
{
name = bottom;
position = "{774, 0}";
},
{
name = top;
position = "{774, 1419}";
}
);
layerId = "62CA62AF-CD91-478A-AB8B-28A62CC47DA0";
paths = (
{
closed = 1;
nodes = (
"877 -18 LINE",
"1397 1254 LINE SMOOTH",
"1418 1306 OFFCURVE",
"1449 1326 OFFCURVE",
"1568 1331 CURVE SMOOTH",
"1596 1332 OFFCURVE",
"1604 1338 OFFCURVE",
"1604 1368 CURVE SMOOTH",
"1604 1383 OFFCURVE",
"1592 1419 OFFCURVE",
"1570 1419 CURVE SMOOTH",
"1105 1419 LINE SMOOTH",
"1082 1419 OFFCURVE",
"1071 1383 OFFCURVE",
"1071 1368 CURVE SMOOTH",
"1071 1347 OFFCURVE",
"1078 1334 OFFCURVE",
"1104 1331 CURVE",
"1187 1326 OFFCURVE",
"1264 1308 OFFCURVE",
"1264 1268 CURVE SMOOTH",
"1264 1265 OFFCURVE",
"1263 1261 OFFCURVE",
"1262 1257 CURVE",
"912 347 LINE",
"509 1287 LINE",
"507 1292 OFFCURVE",
"506 1297 OFFCURVE",
"506 1300 CURVE SMOOTH",
"506 1332 OFFCURVE",
"566 1327 OFFCURVE",
"647 1331 CURVE",
"673 1334 OFFCURVE",
"680 1347 OFFCURVE",
"680 1368 CURVE SMOOTH",
"680 1383 OFFCURVE",
"669 1419 OFFCURVE",
"646 1419 CURVE SMOOTH",
"-9 1419 LINE SMOOTH",
"-31 1419 OFFCURVE",
"-43 1383 OFFCURVE",
"-43 1368 CURVE SMOOTH",
"-43 1338 OFFCURVE",
"-35 1334 OFFCURVE",
"-7 1331 CURVE SMOOTH",
"42 1326 OFFCURVE",
"121 1342 OFFCURVE",
"154 1254 CURVE",
"754 -18 LINE {name = hr00;}"
);
}
);
width = 1561;
}
);
leftKerningGroup = V;
rightKerningGroup = V;
unicode = 0056;
},
{
color = 10;
glyphname = W;
lastChange = "2018-07-15 18:01:19 +0000";
layers = (
{
anchors = (
{
name = bottom;
position = "{1009, 0}";
},
{
name = top;
position = "{1059, 1419}";
}
);
layerId = "DD6F9F34-BC40-4E8F-B1D3-DF3B42A9710F";
paths = (
{
closed = 1;
nodes = (
"675 -18 LINE",
"1001 1046 LINE",
"1355 -18 LINE",
"1478 -18 LINE",
"1851 1254 LINE SMOOTH",
"1878 1344 OFFCURVE",
"1953 1326 OFFCURVE",
"2002 1331 CURVE SMOOTH",
"2030 1334 OFFCURVE",
"2038 1338 OFFCURVE",
"2038 1368 CURVE SMOOTH",
"2038 1383 OFFCURVE",
"2026 1419 OFFCURVE",
"2004 1419 CURVE SMOOTH",
"1559 1419 LINE SMOOTH",
"1536 1419 OFFCURVE",
"1525 1383 OFFCURVE",
"1525 1368 CURVE SMOOTH",
"1525 1347 OFFCURVE",
"1532 1334 OFFCURVE",
"1558 1331 CURVE",
"1643 1326 OFFCURVE",
"1734 1334 OFFCURVE",
"1734 1295 CURVE SMOOTH",
"1734 1293 OFFCURVE",
"1734 1290 OFFCURVE",
"1733 1287 CURVE SMOOTH",
"1464 282 LINE",
"1109 1399 LINE",
"1001 1399 LINE",
"664 286 LINE",
"388 1287 LINE",
"387 1291 OFFCURVE",
"386 1295 OFFCURVE",
"386 1298 CURVE SMOOTH",
"386 1333 OFFCURVE",
"463 1326 OFFCURVE",
"546 1331 CURVE",
"572 1334 OFFCURVE",
"579 1347 OFFCURVE",
"579 1368 CURVE SMOOTH",
"579 1383 OFFCURVE",
"568 1419 OFFCURVE",
"545 1419 CURVE SMOOTH",
"30 1419 LINE SMOOTH",
"8 1419 OFFCURVE",
"-4 1383 OFFCURVE",
"-4 1368 CURVE SMOOTH",
"-4 1338 OFFCURVE",
"4 1334 OFFCURVE",
"32 1331 CURVE SMOOTH",
"81 1326 OFFCURVE",
"150 1342 OFFCURVE",
"183 1254 CURVE",
"552 -18 LINE"
);
}
);
width = 1998;
},
{
anchors = (
{
name = bottom;
position = "{1154, 0}";
},
{
name = top;
position = "{1243, 1419}";
}
);
layerId = "62CA62AF-CD91-478A-AB8B-28A62CC47DA0";
paths = (
{
closed = 1;
nodes = (
"784 -18 LINE",
"1123 987 LINE",
"1535 -18 LINE",
"1658 -18 LINE",
"2108 1180 LINE SMOOTH",
"2140 1269 OFFCURVE",
"2165 1331 OFFCURVE",
"2306 1331 CURVE SMOOTH",
"2334 1331 OFFCURVE",
"2342 1338 OFFCURVE",
"2342 1368 CURVE SMOOTH",
"2342 1383 OFFCURVE",
"2330 1419 OFFCURVE",
"2308 1419 CURVE SMOOTH",
"1823 1419 LINE SMOOTH",
"1800 1419 OFFCURVE",
"1789 1383 OFFCURVE",
"1789 1368 CURVE SMOOTH",
"1789 1347 OFFCURVE",
"1796 1334 OFFCURVE",
"1822 1331 CURVE",
"1969 1331 OFFCURVE",
"2006 1298 OFFCURVE",
"2006 1261 CURVE SMOOTH",
"2006 1251 OFFCURVE",
"2004 1242 OFFCURVE",
"2001 1233 CURVE SMOOTH",
"1709 448 LINE",
"1324 1389 LINE",
"1150 1389 LINE",
"825 418 LINE",
"510 1230 LINE SMOOTH",
"507 1239 OFFCURVE",
"505 1249 OFFCURVE",
"505 1259 CURVE SMOOTH",
"505 1297 OFFCURVE",
"538 1331 OFFCURVE",
"651 1331 CURVE",
"677 1334 OFFCURVE",
"684 1347 OFFCURVE",
"684 1368 CURVE SMOOTH",
"684 1383 OFFCURVE",
"673 1419 OFFCURVE",
"650 1419 CURVE SMOOTH",
"-1 1419 LINE SMOOTH",
"-23 1419 OFFCURVE",
"-35 1383 OFFCURVE",
"-35 1368 CURVE SMOOTH",
"-35 1338 OFFCURVE",
"-27 1335 OFFCURVE",
"2 1331 CURVE SMOOTH",
"94 1317 OFFCURVE",
"125 1293 OFFCURVE",
"159 1205 CURVE SMOOTH",
"661 -18 LINE {name = hr00;}"
);
}
);
width = 2307;
}
);
leftKerningGroup = W;
rightKerningGroup = W;
unicode = 0057;
},
{
color = 10;
glyphname = X;
lastChange = "2018-07-13 05:37:57 +0000";
layers = (
{
anchors = (
{
name = bottom;
position = "{687, 0}";
},
{
name = top;
position = "{687, 1419}";
}
);
layerId = "DD6F9F34-BC40-4E8F-B1D3-DF3B42A9710F";
paths = (
{
closed = 1;
nodes = (
"482 0 LINE SMOOTH",
"505 0 OFFCURVE",
"516 36 OFFCURVE",
"516 51 CURVE SMOOTH",
"516 72 OFFCURVE",
"509 85 OFFCURVE",
"483 88 CURVE",
"412 92 OFFCURVE",
"376 110 OFFCURVE",
"376 137 CURVE SMOOTH",
"376 144 OFFCURVE",
"379 153 OFFCURVE",
"385 162 CURVE",
"651 605 LINE",
"948 132 LINE SMOOTH",
"951 127 OFFCURVE",
"953 123 OFFCURVE",
"953 119 CURVE SMOOTH",
"953 91 OFFCURVE",
"870 92 OFFCURVE",
"790 88 CURVE",
"764 85 OFFCURVE",
"757 72 OFFCURVE",
"757 51 CURVE SMOOTH",
"757 36 OFFCURVE",
"768 0 OFFCURVE",
"791 0 CURVE SMOOTH",
"1336 0 LINE SMOOTH",
"1358 0 OFFCURVE",
"1370 36 OFFCURVE",
"1370 51 CURVE SMOOTH",
"1370 81 OFFCURVE",
"1362 85 OFFCURVE",
"1334 88 CURVE SMOOTH",
"1285 93 OFFCURVE",
"1204 86 OFFCURVE",
"1153 165 CURVE SMOOTH",
"770 766 LINE",
"1113 1254 LINE SMOOTH",
"1169 1330 OFFCURVE",
"1265 1326 OFFCURVE",
"1314 1331 CURVE SMOOTH",
"1342 1334 OFFCURVE",
"1350 1338 OFFCURVE",
"1350 1368 CURVE SMOOTH",
"1350 1383 OFFCURVE",
"1338 1419 OFFCURVE",
"1316 1419 CURVE SMOOTH",
"861 1419 LINE SMOOTH",
"838 1419 OFFCURVE",
"827 1383 OFFCURVE",
"827 1368 CURVE SMOOTH",
"827 1347 OFFCURVE",
"834 1334 OFFCURVE",
"860 1331 CURVE",
"935 1327 OFFCURVE",
"985 1307 OFFCURVE",
"985 1278 CURVE SMOOTH",
"985 1271 OFFCURVE",
"983 1264 OFFCURVE",
"978 1257 CURVE SMOOTH",
"717 851 LINE",
"445 1287 LINE SMOOTH",
"442 1292 OFFCURVE",
"440 1297 OFFCURVE",
"440 1301 CURVE SMOOTH",
"440 1328 OFFCURVE",
"514 1327 OFFCURVE",
"593 1331 CURVE",
"619 1334 OFFCURVE",
"626 1347 OFFCURVE",
"626 1368 CURVE SMOOTH",
"626 1383 OFFCURVE",
"615 1419 OFFCURVE",
"592 1419 CURVE SMOOTH",
"67 1419 LINE SMOOTH",
"45 1419 OFFCURVE",
"33 1383 OFFCURVE",
"33 1368 CURVE SMOOTH",
"33 1338 OFFCURVE",
"41 1334 OFFCURVE",
"69 1331 CURVE SMOOTH",
"118 1326 OFFCURVE",
"189 1333 OFFCURVE",
"240 1254 CURVE SMOOTH",
"599 686 LINE",
"250 165 LINE SMOOTH",
"196 88 OFFCURVE",
"98 93 OFFCURVE",
"49 88 CURVE SMOOTH",
"21 85 OFFCURVE",
"13 81 OFFCURVE",
"13 51 CURVE SMOOTH",
"13 36 OFFCURVE",
"25 0 OFFCURVE",
"47 0 CURVE SMOOTH"
);
}
);
width = 1455;
},
{
anchors = (
{
name = bottom;
position = "{817, 0}";
},
{
name = top;
position = "{817, 1419}";
}
);
layerId = "62CA62AF-CD91-478A-AB8B-28A62CC47DA0";
paths = (
{
closed = 1;
nodes = (
"546 0 LINE SMOOTH",
"569 0 OFFCURVE",
"580 36 OFFCURVE",
"580 51 CURVE SMOOTH",
"580 72 OFFCURVE",
"573 85 OFFCURVE",
"547 88 CURVE",
"469 92 OFFCURVE",
"403 113 OFFCURVE",
"403 145 CURVE SMOOTH",
"403 150 OFFCURVE",
"405 156 OFFCURVE",
"409 162 CURVE SMOOTH",
"730 580 LINE",
"1034 170 LINE",
"1049 148 OFFCURVE",
"1058 133 OFFCURVE",
"1058 119 CURVE SMOOTH",
"1058 97 OFFCURVE",
"993 85 OFFCURVE",
"902 88 CURVE",
"876 85 OFFCURVE",
"869 72 OFFCURVE",
"869 51 CURVE SMOOTH",
"869 36 OFFCURVE",
"880 0 OFFCURVE",
"903 0 CURVE SMOOTH",
"1608 0 LINE SMOOTH",
"1630 0 OFFCURVE",
"1642 36 OFFCURVE",
"1642 51 CURVE SMOOTH",
"1642 81 OFFCURVE",
"1634 85 OFFCURVE",
"1606 88 CURVE SMOOTH",
"1557 93 OFFCURVE",
"1476 86 OFFCURVE",
"1425 165 CURVE",
"957 786 LINE",
"1345 1254 LINE",
"1402 1330 OFFCURVE",
"1478 1326 OFFCURVE",
"1526 1331 CURVE SMOOTH",
"1554 1334 OFFCURVE",
"1562 1338 OFFCURVE",
"1562 1368 CURVE SMOOTH",
"1562 1383 OFFCURVE",
"1550 1419 OFFCURVE",
"1528 1419 CURVE SMOOTH",
"1073 1419 LINE SMOOTH",
"1050 1419 OFFCURVE",
"1039 1383 OFFCURVE",
"1039 1368 CURVE SMOOTH",
"1039 1347 OFFCURVE",
"1046 1334 OFFCURVE",
"1072 1331 CURVE",
"1144 1327 OFFCURVE",
"1197 1307 OFFCURVE",
"1197 1277 CURVE SMOOTH",
"1197 1271 OFFCURVE",
"1195 1264 OFFCURVE",
"1190 1257 CURVE SMOOTH",
"897 871 LINE",
"603 1277 LINE SMOOTH",
"600 1282 OFFCURVE",
"598 1286 OFFCURVE",
"598 1290 CURVE SMOOTH",
"598 1318 OFFCURVE",
"627 1325 OFFCURVE",
"745 1331 CURVE",
"771 1334 OFFCURVE",
"778 1347 OFFCURVE",
"778 1368 CURVE SMOOTH",
"778 1383 OFFCURVE",
"767 1419 OFFCURVE",
"744 1419 CURVE SMOOTH",
"49 1419 LINE SMOOTH",
"27 1419 OFFCURVE",
"15 1383 OFFCURVE",
"15 1368 CURVE SMOOTH",
"15 1338 OFFCURVE",
"23 1334 OFFCURVE",
"51 1331 CURVE SMOOTH",
"100 1326 OFFCURVE",
"171 1333 OFFCURVE",
"222 1254 CURVE",
"673 657 LINE",
"252 165 LINE SMOOTH",
"196 99 OFFCURVE",
"120 93 OFFCURVE",
"71 88 CURVE SMOOTH",
"43 85 OFFCURVE",
"35 81 OFFCURVE",
"35 51 CURVE SMOOTH {name = hr00;}",
"35 36 OFFCURVE",
"47 0 OFFCURVE",
"69 0 CURVE SMOOTH"
);
}
);
width = 1656;
}
);
leftKerningGroup = X;
rightKerningGroup = X;
unicode = 0058;
},
{
color = 10;
glyphname = Y;
lastChange = "2018-07-16 04:16:47 +0000";
layers = (
{
anchors = (
{
name = bottom;
position = "{620, 0}";
},
{
name = top;
position = "{644, 1419}";
},
{
name = topleft;
position = "{10, 1419}";
}
);
layerId = "DD6F9F34-BC40-4E8F-B1D3-DF3B42A9710F";
paths = (
{
closed = 1;
nodes = (
"925 0 LINE SMOOTH",
"947 0 OFFCURVE",
"959 36 OFFCURVE",
"959 51 CURVE SMOOTH",
"959 81 OFFCURVE",
"941 85 OFFCURVE",
"913 88 CURVE SMOOTH",
"846 95 OFFCURVE",
"741 79 OFFCURVE",
"741 165 CURVE SMOOTH",
"741 567 LINE",
"1116 1254 LINE SMOOTH",
"1161 1336 OFFCURVE",
"1218 1336 OFFCURVE",
"1267 1341 CURVE SMOOTH",
"1295 1344 OFFCURVE",
"1303 1348 OFFCURVE",
"1303 1378 CURVE SMOOTH",
"1303 1393 OFFCURVE",
"1291 1419 OFFCURVE",
"1269 1419 CURVE SMOOTH",
"854 1419 LINE SMOOTH",
"831 1419 OFFCURVE",
"820 1393 OFFCURVE",
"820 1378 CURVE SMOOTH",
"820 1357 OFFCURVE",
"827 1344 OFFCURVE",
"853 1341 CURVE",
"931 1337 OFFCURVE",
"1001 1332 OFFCURVE",
"1005 1303 CURVE SMOOTH",
"1005 1299 OFFCURVE",
"1004 1293 OFFCURVE",
"1001 1287 CURVE SMOOTH",
"659 599 LINE",
"699 599 LINE",
"358 1287 LINE SMOOTH",
"355 1293 OFFCURVE",
"354 1298 OFFCURVE",
"354 1302 CURVE SMOOTH",
"356 1333 OFFCURVE",
"427 1337 OFFCURVE",
"506 1341 CURVE",
"532 1344 OFFCURVE",
"539 1357 OFFCURVE",
"539 1378 CURVE SMOOTH",
"539 1393 OFFCURVE",
"528 1419 OFFCURVE",
"505 1419 CURVE SMOOTH",
"-10 1419 LINE SMOOTH",
"-32 1419 OFFCURVE",
"-44 1393 OFFCURVE",
"-44 1378 CURVE SMOOTH",
"-44 1348 OFFCURVE",
"-36 1344 OFFCURVE",
"-8 1341 CURVE SMOOTH",
"41 1336 OFFCURVE",
"98 1337 OFFCURVE",
"143 1254 CURVE SMOOTH",
"534 534 LINE",
"534 152 LINE SMOOTH",
"534 81 OFFCURVE",
"436 93 OFFCURVE",
"369 88 CURVE",
"344 85 OFFCURVE",
"326 72 OFFCURVE",
"326 51 CURVE SMOOTH",
"326 36 OFFCURVE",
"337 0 OFFCURVE",
"360 0 CURVE SMOOTH"
);
}
);
width = 1260;
},
{
anchors = (
{
name = bottom;
position = "{755, 0}";
},
{
name = top;
position = "{829, 1419}";
},
{
name = topleft;
position = "{25, 1419}";
}
);
layerId = "62CA62AF-CD91-478A-AB8B-28A62CC47DA0";
paths = (
{
closed = 1;
nodes = (
"1125 0 LINE SMOOTH",
"1147 0 OFFCURVE",
"1159 36 OFFCURVE",
"1159 51 CURVE SMOOTH",
"1159 81 OFFCURVE",
"1141 85 OFFCURVE",
"1113 88 CURVE",
"1046 93 OFFCURVE",
"941 79 OFFCURVE",
"941 165 CURVE SMOOTH",
"941 535 LINE",
"1346 1254 LINE SMOOTH",
"1391 1335 OFFCURVE",
"1447 1336 OFFCURVE",
"1497 1341 CURVE SMOOTH",
"1525 1344 OFFCURVE",
"1533 1348 OFFCURVE",
"1533 1378 CURVE SMOOTH",
"1533 1393 OFFCURVE",
"1521 1419 OFFCURVE",
"1499 1419 CURVE SMOOTH",
"1084 1419 LINE SMOOTH",
"1061 1419 OFFCURVE",
"1050 1393 OFFCURVE",
"1050 1378 CURVE SMOOTH",
"1050 1357 OFFCURVE",
"1057 1343 OFFCURVE",
"1083 1341 CURVE SMOOTH",
"1177 1333 OFFCURVE",
"1234 1324 OFFCURVE",
"1234 1299 CURVE SMOOTH",
"1234 1295 OFFCURVE",
"1232 1288 OFFCURVE",
"1226 1277 CURVE SMOOTH",
"862 619 LINE",
"905 618 LINE",
"558 1287 LINE SMOOTH",
"556 1291 OFFCURVE",
"553 1297 OFFCURVE",
"553 1301 CURVE SMOOTH",
"553 1334 OFFCURVE",
"602 1334 OFFCURVE",
"706 1341 CURVE",
"732 1344 OFFCURVE",
"739 1357 OFFCURVE",
"739 1378 CURVE SMOOTH",
"739 1393 OFFCURVE",
"728 1419 OFFCURVE",
"705 1419 CURVE SMOOTH",
"0 1419 LINE SMOOTH",
"-22 1419 OFFCURVE",
"-34 1393 OFFCURVE",
"-34 1378 CURVE SMOOTH",
"-34 1348 OFFCURVE",
"-26 1344 OFFCURVE",
"2 1341 CURVE SMOOTH",
"51 1336 OFFCURVE",
"103 1334 OFFCURVE",
"153 1254 CURVE SMOOTH",
"604 525 LINE",
"604 152 LINE SMOOTH",
"604 81 OFFCURVE",
"506 93 OFFCURVE",
"439 88 CURVE",
"414 85 OFFCURVE",
"396 72 OFFCURVE",
"396 51 CURVE SMOOTH {name = hr00;}",
"396 36 OFFCURVE",
"407 0 OFFCURVE",
"430 0 CURVE SMOOTH"
);
}
);
width = 1499;
}
);
leftKerningGroup = Y;
rightKerningGroup = Y;
unicode = 0059;
},
{
color = 10;
glyphname = Z;
lastChange = "2018-07-16 04:19:51 +0000";
layers = (
{
anchors = (
{
name = bottom;
position = "{602, 0}";
},
{
name = top;
position = "{656, 1419}";
}
);
layerId = "DD6F9F34-BC40-4E8F-B1D3-DF3B42A9710F";
paths = (
{
closed = 1;
nodes = (
"1064 0 LINE",
"1084 1 OFFCURVE",
"1099 14 OFFCURVE",
"1111 41 CURVE",
"1161 429 LINE SMOOTH",
"1164 452 OFFCURVE",
"1135 463 OFFCURVE",
"1120 463 CURVE SMOOTH",
"1099 463 OFFCURVE",
"1086 456 OFFCURVE",
"1083 430 CURVE SMOOTH",
"1077 381 OFFCURVE",
"913 83 OFFCURVE",
"825 83 CURVE SMOOTH",
"230 83 LINE",
"289 26 LINE",
"432 248 LINE",
"1116 1340 LINE SMOOTH",
"1122 1350 OFFCURVE",
"1126 1357 OFFCURVE",
"1126 1368 CURVE SMOOTH",
"1126 1395 LINE SMOOTH",
"1126 1414 OFFCURVE",
"1118 1419 OFFCURVE",
"1102 1419 CURVE SMOOTH",
"190 1419 LINE",
"170 1418 OFFCURVE",
"155 1405 OFFCURVE",
"143 1378 CURVE",
"114 1020 LINE SMOOTH",
"112 997 OFFCURVE",
"130 986 OFFCURVE",
"145 986 CURVE SMOOTH",
"166 986 OFFCURVE",
"179 993 OFFCURVE",
"182 1019 CURVE SMOOTH",
"188 1068 OFFCURVE",
"301 1336 OFFCURVE",
"389 1336 CURVE SMOOTH",
"931 1336 LINE",
"875 1367 LINE",
"769 1201 LINE",
"97 123 LINE SMOOTH",
"63 68 OFFCURVE",
"55 53 OFFCURVE",
"55 40 CURVE SMOOTH",
"55 24 LINE SMOOTH",
"55 5 OFFCURVE",
"63 0 OFFCURVE",
"79 0 CURVE SMOOTH"
);
}
);
width = 1232;
},
{
anchors = (
{
name = bottom;
position = "{690, 0}";
},
{
name = top;
position = "{770, 1419}";
}
);
layerId = "62CA62AF-CD91-478A-AB8B-28A62CC47DA0";
paths = (
{
closed = 1;
nodes = (
"1234 0 LINE",
"1254 1 OFFCURVE",
"1269 14 OFFCURVE",
"1281 41 CURVE",
"1331 429 LINE",
"1331 452 OFFCURVE",
"1275 463 OFFCURVE",
"1260 463 CURVE SMOOTH",
"1239 463 OFFCURVE",
"1226 456 OFFCURVE",
"1223 430 CURVE",
"1175 254 OFFCURVE",
"1054 83 OFFCURVE",
"965 83 CURVE SMOOTH",
"426 83 LINE",
"444 47 LINE",
"569 214 LINE",
"1291 1340 LINE SMOOTH",
"1297 1350 OFFCURVE",
"1301 1366 OFFCURVE",
"1301 1377 CURVE SMOOTH",
"1301 1393 LINE SMOOTH",
"1301 1412 OFFCURVE",
"1282 1419 OFFCURVE",
"1267 1419 CURVE SMOOTH",
"205 1419 LINE",
"185 1418 OFFCURVE",
"170 1405 OFFCURVE",
"158 1378 CURVE",
"129 1020 LINE",
"129 997 OFFCURVE",
"175 986 OFFCURVE",
"190 986 CURVE SMOOTH",
"211 986 OFFCURVE",
"221 994 OFFCURVE",
"227 1019 CURVE SMOOTH",
"262 1165 OFFCURVE",
"346 1336 OFFCURVE",
"434 1336 CURVE SMOOTH",
"941 1336 LINE",
"923 1372 LINE",
"797 1205 LINE",
"107 123 LINE",
"71 69 OFFCURVE",
"65 49 OFFCURVE",
"65 36 CURVE SMOOTH",
"65 30 LINE SMOOTH {name = hr00;}",
"65 21 OFFCURVE",
"69 0 OFFCURVE",
"99 0 CURVE SMOOTH"
);
}
);
width = 1412;
}
);
leftKerningGroup = Z;
rightKerningGroup = Z;
unicode = 005A;
},
{
color = 10;
glyphname = a;
lastChange = "2018-07-16 17:31:23 +0000";
layers = (
{
anchors = (
{
name = bottom;
position = "{497, 0}";
},
{
name = ogonek;
position = "{910, 10}";
},
{
name = top;
position = "{497, 994}";
}
);
background = {
paths = (
{
closed = 1;
nodes = (
"905 -25 OFFCURVE",
"981 22 OFFCURVE",
"994 37 CURVE",
"1010 50 OFFCURVE",
"991 105 OFFCURVE",
"960 96 CURVE SMOOTH",
"936 89 OFFCURVE",
"921 88 OFFCURVE",
"902 88 CURVE SMOOTH",
"880 88 OFFCURVE",
"864 140 OFFCURVE",
"864 210 CURVE SMOOTH",
"864 736 LINE SMOOTH",
"864 895 OFFCURVE",
"762 1014 OFFCURVE",
"520 1014 CURVE SMOOTH",
"434 1014 OFFCURVE",
"292 997 OFFCURVE",
"196 909 CURVE SMOOTH",
"77 799 OFFCURVE",
"148 665 OFFCURVE",
"203 665 CURVE SMOOTH",
"243 665 OFFCURVE",
"270 678 OFFCURVE",
"284 702 CURVE SMOOTH",
"309 744 OFFCURVE",
"359 877 OFFCURVE",
"378 907 CURVE",
"378 907 OFFCURVE",
"430 928 OFFCURVE",
"487 924 CURVE SMOOTH",
"617 914 OFFCURVE",
"677 860 OFFCURVE",
"677 753 CURVE SMOOTH",
"677 599 LINE",
"648 561 OFFCURVE",
"649 549 OFFCURVE",
"676 528 CURVE",
"676 162 LINE",
"678 149 OFFCURVE",
"695 125 OFFCURVE",
"695 109 CURVE",
"694 87 OFFCURVE",
"684 -25 OFFCURVE",
"797 -25 CURVE SMOOTH"
);
},
{
closed = 1;
nodes = (
"102 48 OFFCURVE",
"259 -24 OFFCURVE",
"371 -24 CURVE SMOOTH",
"539 -24 OFFCURVE",
"656 40 OFFCURVE",
"741 170 CURVE",
"707 219 LINE",
"707 219 OFFCURVE",
"648 90 OFFCURVE",
"443 90 CURVE SMOOTH",
"355 90 OFFCURVE",
"308 175 OFFCURVE",
"308 252 CURVE SMOOTH",
"308 464 OFFCURVE",
"496 509 OFFCURVE",
"676 528 CURVE",
"677 599 LINE",
"413 571 OFFCURVE",
"92 509 OFFCURVE",
"98 235 CURVE SMOOTH"
);
}
);
};
layerId = "DD6F9F34-BC40-4E8F-B1D3-DF3B42A9710F";
paths = (
{
closed = 1;
nodes = (
"97 50 OFFCURVE",
"256 -21 OFFCURVE",
"377 -21 CURVE SMOOTH",
"517 -21 OFFCURVE",
"606 18 OFFCURVE",
"693 109 CURVE",
"693 99 LINE SMOOTH",
"693 -28 OFFCURVE",
"765 -19 OFFCURVE",
"817 -19 CURVE SMOOTH",
"878 -19 OFFCURVE",
"960 13 OFFCURVE",
"992 43 CURVE",
"996 46 OFFCURVE",
"998 52 OFFCURVE",
"998 59 CURVE SMOOTH",
"998 79 OFFCURVE",
"981 109 OFFCURVE",
"958 102 CURVE SMOOTH",
"934 95 OFFCURVE",
"919 94 OFFCURVE",
"900 94 CURVE SMOOTH",
"878 94 OFFCURVE",
"862 149 OFFCURVE",
"862 201 CURVE SMOOTH",
"862 689 LINE SMOOTH",
"862 848 OFFCURVE",
"819 1014 OFFCURVE",
"518 1014 CURVE SMOOTH",
"288 1014 OFFCURVE",
"129 900 OFFCURVE",
"129 781 CURVE SMOOTH",
"129 694 OFFCURVE",
"181 665 OFFCURVE",
"256 665 CURVE",
"376 907 LINE",
"376 907 OFFCURVE",
"412 924 OFFCURVE",
"474 924 CURVE SMOOTH",
"633 924 OFFCURVE",
"675 827 OFFCURVE",
"675 753 CURVE",
"675 599 LINE",
"407 571 OFFCURVE",
"97 508 OFFCURVE",
"97 243 CURVE SMOOTH {name = hr00;}"
);
},
{
closed = 1;
nodes = (
"306 456 OFFCURVE",
"450 495 OFFCURVE",
"674 528 CURVE",
"674 176 LINE",
"634 136 OFFCURVE",
"559 90 OFFCURVE",
"449 90 CURVE SMOOTH",
"361 90 OFFCURVE",
"306 164 OFFCURVE",
"306 248 CURVE SMOOTH"
);
}
);
width = 1032;
},
{
anchors = (
{
name = bottom;
position = "{609, 0}";
},
{
name = ogonek;
position = "{1097, 10}";
},
{
name = top;
position = "{609, 994}";
}
);
layerId = "62CA62AF-CD91-478A-AB8B-28A62CC47DA0";
paths = (
{
closed = 1;
nodes = (
"97 50 OFFCURVE",
"274 -24 OFFCURVE",
"395 -24 CURVE SMOOTH",
"535 -24 OFFCURVE",
"660 21 OFFCURVE",
"747 112 CURVE",
"747 109 LINE SMOOTH",
"747 87 OFFCURVE",
"731 -25 OFFCURVE",
"899 -25 CURVE SMOOTH",
"1062 -25 OFFCURVE",
"1164 22 OFFCURVE",
"1186 37 CURVE",
"1190 40 OFFCURVE",
"1192 47 OFFCURVE",
"1192 55 CURVE SMOOTH",
"1192 79 OFFCURVE",
"1175 116 OFFCURVE",
"1152 109 CURVE SMOOTH",
"1128 102 OFFCURVE",
"1113 101 OFFCURVE",
"1094 101 CURVE SMOOTH",
"1072 101 OFFCURVE",
"1056 141 OFFCURVE",
"1056 193 CURVE SMOOTH",
"1056 736 LINE SMOOTH",
"1056 895 OFFCURVE",
"927 1014 OFFCURVE",
"622 1014 CURVE SMOOTH",
"470 1014 OFFCURVE",
"147 944 OFFCURVE",
"147 781 CURVE SMOOTH",
"147 703 OFFCURVE",
"213 645 OFFCURVE",
"306 645 CURVE",
"462 900 LINE",
"462 900 OFFCURVE",
"494 919 OFFCURVE",
"579 919 CURVE SMOOTH",
"668 919 OFFCURVE",
"729 890 OFFCURVE",
"729 763 CURVE",
"728 598 LINE",
"459 570 OFFCURVE",
"97 508 OFFCURVE",
"97 242 CURVE SMOOTH {name = hr00;}"
);
},
{
closed = 1;
nodes = (
"436 460 OFFCURVE",
"593 498 OFFCURVE",
"728 518 CURVE",
"728 196 LINE",
"702 164 OFFCURVE",
"652 120 OFFCURVE",
"567 120 CURVE SMOOTH",
"479 120 OFFCURVE",
"436 185 OFFCURVE",
"436 252 CURVE SMOOTH"
);
}
);
width = 1220;
}
);
leftKerningGroup = a;
rightKerningGroup = n;
unicode = 0061;
},
{
color = 10;
glyphname = aogonek;
lastChange = "2018-07-16 15:36:11 +0000";
layers = (
{
components = (
{
name = a;
}
);
layerId = "DD6F9F34-BC40-4E8F-B1D3-DF3B42A9710F";
paths = (
{
closed = 1;
nodes = (
"797 0 LINE",
"668 0 OFFCURVE",
"532 -89 OFFCURVE",
"532 -194 CURVE SMOOTH",
"532 -299 OFFCURVE",
"621 -370 OFFCURVE",
"751 -370 CURVE SMOOTH",
"811 -370 OFFCURVE",
"897 -352 OFFCURVE",
"940 -323 CURVE SMOOTH",
"954 -314 OFFCURVE",
"960 -294 OFFCURVE",
"960 -277 CURVE SMOOTH",
"960 -258 OFFCURVE",
"953 -241 OFFCURVE",
"940 -243 CURVE SMOOTH",
"906 -249 OFFCURVE",
"890 -259 OFFCURVE",
"858 -259 CURVE SMOOTH",
"769 -259 OFFCURVE",
"718 -221 OFFCURVE",
"718 -160 CURVE SMOOTH",
"718 -84 OFFCURVE",
"761 -49 OFFCURVE",
"882 0 CURVE",
"853 50 LINE"
);
}
);
width = 1032;
},
{
components = (
{
name = a;
}
);
layerId = "62CA62AF-CD91-478A-AB8B-28A62CC47DA0";
paths = (
{
closed = 1;
nodes = (
"899 0 LINE",
"747 -36 OFFCURVE",
"654 -119 OFFCURVE",
"654 -224 CURVE SMOOTH",
"654 -329 OFFCURVE",
"763 -407 OFFCURVE",
"893 -407 CURVE SMOOTH",
"953 -407 OFFCURVE",
"1039 -389 OFFCURVE",
"1082 -360 CURVE SMOOTH",
"1096 -351 OFFCURVE",
"1102 -327 OFFCURVE",
"1102 -306 CURVE SMOOTH",
"1102 -282 OFFCURVE",
"1095 -261 OFFCURVE",
"1082 -263 CURVE SMOOTH",
"1048 -269 OFFCURVE",
"1032 -279 OFFCURVE",
"1000 -279 CURVE SMOOTH",
"911 -279 OFFCURVE",
"877 -233 OFFCURVE",
"877 -172 CURVE SMOOTH",
"877 -96 OFFCURVE",
"952 -32 OFFCURVE",
"1048 0 CURVE",
"1006 49 LINE"
);
}
);
width = 1220;
}
);
leftKerningGroup = a;
rightKerningGroup = n;
unicode = 0105;
},
{
color = 10;
glyphname = ae;
lastChange = "2018-07-16 17:36:32 +0000";
layers = (
{
anchors = (
{
name = bottom;
position = "{728, 0}";
},
{
name = top;
position = "{767, 994}";
}
);
background = {
paths = (
{
closed = 1;
nodes = (
"41 50 OFFCURVE",
"200 -21 OFFCURVE",
"321 -21 CURVE SMOOTH",
"461 -21 OFFCURVE",
"550 18 OFFCURVE",
"637 109 CURVE",
"637 99 LINE SMOOTH",
"637 -28 OFFCURVE",
"709 -19 OFFCURVE",
"761 -19 CURVE SMOOTH",
"822 -19 OFFCURVE",
"904 13 OFFCURVE",
"936 43 CURVE",
"940 46 OFFCURVE",
"942 52 OFFCURVE",
"942 59 CURVE SMOOTH",
"942 79 OFFCURVE",
"925 109 OFFCURVE",
"902 102 CURVE SMOOTH",
"878 95 OFFCURVE",
"863 94 OFFCURVE",
"844 94 CURVE SMOOTH",
"822 94 OFFCURVE",
"806 149 OFFCURVE",
"806 201 CURVE SMOOTH",
"806 689 LINE SMOOTH",
"806 848 OFFCURVE",
"763 1014 OFFCURVE",
"462 1014 CURVE SMOOTH",
"232 1014 OFFCURVE",
"73 900 OFFCURVE",
"73 781 CURVE SMOOTH",
"73 694 OFFCURVE",
"125 665 OFFCURVE",
"200 665 CURVE",
"320 907 LINE",
"320 907 OFFCURVE",
"356 924 OFFCURVE",
"418 924 CURVE SMOOTH",
"577 924 OFFCURVE",
"619 827 OFFCURVE",
"619 753 CURVE",
"619 599 LINE",
"351 571 OFFCURVE",
"41 508 OFFCURVE",
"41 243 CURVE SMOOTH {name = hr00;}"
);
},
{
closed = 1;
nodes = (
"250 456 OFFCURVE",
"394 495 OFFCURVE",
"618 528 CURVE",
"618 176 LINE",
"578 136 OFFCURVE",
"503 90 OFFCURVE",
"393 90 CURVE SMOOTH",
"305 90 OFFCURVE",
"250 164 OFFCURVE",
"250 248 CURVE SMOOTH"
);
}
);
};
layerId = "DD6F9F34-BC40-4E8F-B1D3-DF3B42A9710F";
paths = (
{
closed = 1;
nodes = (
"522 -24 OFFCURVE",
"630 26 OFFCURVE",
"712 126 CURVE",
"785 25 OFFCURVE",
"899 -29 OFFCURVE",
"1053 -29 CURVE SMOOTH",
"1223 -29 OFFCURVE",
"1328 55 OFFCURVE",
"1387 173 CURVE SMOOTH",
"1389 177 OFFCURVE",
"1393 183 OFFCURVE",
"1393 189 CURVE SMOOTH",
"1393 193 OFFCURVE",
"1390 198 OFFCURVE",
"1382 201 CURVE",
"1332 224 LINE",
"1319 227 OFFCURVE",
"1317 216 OFFCURVE",
"1313 208 CURVE SMOOTH",
"1270 122 OFFCURVE",
"1180 75 OFFCURVE",
"1079 75 CURVE SMOOTH",
"957 75 OFFCURVE",
"823 186 OFFCURVE",
"821 503 CURVE",
"1441 503 LINE",
"1441 546 OFFCURVE",
"1439 587 OFFCURVE",
"1436 627 CURVE SMOOTH",
"1419 857 OFFCURVE",
"1320 1014 OFFCURVE",
"1051 1014 CURVE SMOOTH",
"947 1014 OFFCURVE",
"847 976 OFFCURVE",
"769 904 CURVE",
"719 971 OFFCURVE",
"635 1013 OFFCURVE",
"523 1013 CURVE SMOOTH",
"317 1013 OFFCURVE",
"97 913 OFFCURVE",
"97 781 CURVE SMOOTH",
"97 713 OFFCURVE",
"140 665 OFFCURVE",
"220 665 CURVE",
"346 913 LINE",
"346 913 OFFCURVE",
"415 924 OFFCURVE",
"472 924 CURVE SMOOTH",
"575 924 OFFCURVE",
"637 861 OFFCURVE",
"637 758 CURVE SMOOTH",
"637 599 LINE",
"386 568 OFFCURVE",
"101 494 OFFCURVE",
"101 243 CURVE SMOOTH",
"101 50 OFFCURVE",
"261 -24 OFFCURVE",
"374 -24 CURVE SMOOTH"
);
},
{
closed = 1;
nodes = (
"835 873 OFFCURVE",
"920 918 OFFCURVE",
"1050 918 CURVE SMOOTH",
"1152 918 OFFCURVE",
"1219 827 OFFCURVE",
"1219 595 CURVE",
"823 589 LINE"
);
},
{
closed = 1;
nodes = (
"358 90 OFFCURVE",
"311 175 OFFCURVE",
"311 252 CURVE SMOOTH",
"311 444 OFFCURVE",
"472 500 OFFCURVE",
"637 523 CURVE",
"636 141 LINE",
"595 114 OFFCURVE",
"534 90 OFFCURVE",
"446 90 CURVE SMOOTH"
);
}
);
width = 1509;
},
{
anchors = (
{
name = bottom;
position = "{876, 0}";
},
{
name = top;
position = "{876, 994}";
}
);
background = {
paths = (
{
closed = 1;
nodes = (
"78 50 OFFCURVE",
"255 -24 OFFCURVE",
"376 -24 CURVE SMOOTH",
"516 -24 OFFCURVE",
"641 21 OFFCURVE",
"728 112 CURVE",
"728 109 LINE SMOOTH",
"728 87 OFFCURVE",
"712 -25 OFFCURVE",
"880 -25 CURVE SMOOTH",
"1043 -25 OFFCURVE",
"1145 22 OFFCURVE",
"1167 37 CURVE",
"1171 40 OFFCURVE",
"1173 47 OFFCURVE",
"1173 55 CURVE SMOOTH",
"1173 79 OFFCURVE",
"1156 116 OFFCURVE",
"1133 109 CURVE SMOOTH",
"1109 102 OFFCURVE",
"1094 101 OFFCURVE",
"1075 101 CURVE SMOOTH",
"1053 101 OFFCURVE",
"1037 141 OFFCURVE",
"1037 193 CURVE SMOOTH",
"1037 736 LINE SMOOTH",
"1037 895 OFFCURVE",
"908 1014 OFFCURVE",
"603 1014 CURVE SMOOTH",
"451 1014 OFFCURVE",
"128 944 OFFCURVE",
"128 781 CURVE SMOOTH",
"128 703 OFFCURVE",
"194 645 OFFCURVE",
"287 645 CURVE",
"443 900 LINE",
"443 900 OFFCURVE",
"475 919 OFFCURVE",
"560 919 CURVE SMOOTH",
"649 919 OFFCURVE",
"710 890 OFFCURVE",
"710 763 CURVE",
"709 598 LINE",
"440 570 OFFCURVE",
"78 508 OFFCURVE",
"78 242 CURVE SMOOTH {name = hr00;}"
);
},
{
closed = 1;
nodes = (
"417 460 OFFCURVE",
"574 498 OFFCURVE",
"709 518 CURVE",
"709 196 LINE",
"683 164 OFFCURVE",
"633 120 OFFCURVE",
"548 120 CURVE SMOOTH",
"460 120 OFFCURVE",
"417 185 OFFCURVE",
"417 252 CURVE SMOOTH"
);
}
);
};
layerId = "62CA62AF-CD91-478A-AB8B-28A62CC47DA0";
paths = (
{
closed = 1;
nodes = (
"611 -24 OFFCURVE",
"714 35 OFFCURVE",
"803 147 CURVE",
"844 33 OFFCURVE",
"989 -29 OFFCURVE",
"1217 -29 CURVE SMOOTH {name = hr03;}",
"1433 -29 OFFCURVE",
"1572 53 OFFCURVE",
"1641 173 CURVE SMOOTH",
"1645 180 OFFCURVE",
"1647 185 OFFCURVE",
"1647 190 CURVE SMOOTH",
"1647 195 OFFCURVE",
"1644 199 OFFCURVE",
"1637 202 CURVE SMOOTH",
"1593 223 LINE",
"1580 226 OFFCURVE",
"1573 215 OFFCURVE",
"1567 208 CURVE SMOOTH",
"1502 132 OFFCURVE",
"1418 105 OFFCURVE",
"1293 105 CURVE SMOOTH",
"1167 105 OFFCURVE",
"1014 200 OFFCURVE",
"1014 509 CURVE",
"1688 509 LINE",
"1688 564 OFFCURVE",
"1688 626 OFFCURVE",
"1679 674 CURVE SMOOTH",
"1639 885 OFFCURVE",
"1517 1014 OFFCURVE",
"1201 1014 CURVE SMOOTH",
"1081 1014 OFFCURVE",
"970 981 OFFCURVE",
"882 919 CURVE",
"812 979 OFFCURVE",
"755 1014 OFFCURVE",
"622 1014 CURVE SMOOTH",
"433 1014 OFFCURVE",
"147 936 OFFCURVE",
"147 781 CURVE SMOOTH",
"147 682 OFFCURVE",
"226 645 OFFCURVE",
"304 645 CURVE",
"462 900 LINE {name = hr04;}",
"462 900 OFFCURVE",
"494 919 OFFCURVE",
"579 919 CURVE SMOOTH",
"668 919 OFFCURVE",
"728 890 OFFCURVE",
"728 763 CURVE SMOOTH",
"728 598 LINE",
"458 570 OFFCURVE",
"97 507 OFFCURVE",
"97 242 CURVE SMOOTH {name = hr01;}",
"97 50 OFFCURVE",
"274 -24 OFFCURVE",
"395 -24 CURVE SMOOTH {name = hr02;}"
);
},
{
closed = 1;
nodes = (
"1033 838 OFFCURVE",
"1112 929 OFFCURVE",
"1198 929 CURVE SMOOTH",
"1307 929 OFFCURVE",
"1355 833 OFFCURVE",
"1355 601 CURVE",
"1017 601 LINE"
);
},
{
closed = 1;
nodes = (
"479 120 OFFCURVE",
"436 185 OFFCURVE",
"436 252 CURVE SMOOTH {name = hr06;}",
"436 460 OFFCURVE",
"592 498 OFFCURVE",
"728 518 CURVE",
"727 196 LINE",
"693 153 OFFCURVE",
"642 120 OFFCURVE",
"567 120 CURVE SMOOTH"
);
}
);
width = 1756;
}
);
leftKerningGroup = a;
rightKerningGroup = e;
unicode = 00E6;
},
{
color = 10;
glyphname = b;
lastChange = "2018-07-16 17:38:11 +0000";
layers = (
{
anchors = (
{
name = bottom;
position = "{567, 0}";
},
{
name = top;
position = "{782, 950}";
}
);
layerId = "DD6F9F34-BC40-4E8F-B1D3-DF3B42A9710F";
paths = (
{
closed = 1;
nodes = (
"222 -32 OFFCURVE",
"277 20 OFFCURVE",
"311 74 CURVE",
"367 -5 OFFCURVE",
"480 -30 OFFCURVE",
"603 -30 CURVE SMOOTH",
"912 -30 OFFCURVE",
"1053 223 OFFCURVE",
"1053 492 CURVE SMOOTH",
"1053 762 OFFCURVE",
"933 1013 OFFCURVE",
"625 1013 CURVE SMOOTH",
"525 1013 OFFCURVE",
"399 958 OFFCURVE",
"331 875 CURVE",
"341 1104 LINE",
"341 1518 LINE",
"338 1550 OFFCURVE",
"322 1558 OFFCURVE",
"311 1558 CURVE SMOOTH",
"254 1558 OFFCURVE",
"129 1556 OFFCURVE",
"-4 1548 CURVE SMOOTH",
"-20 1547 OFFCURVE",
"-28 1520 OFFCURVE",
"-28 1504 CURVE SMOOTH",
"-28 1479 OFFCURVE",
"-18 1470 OFFCURVE",
"-4 1464 CURVE",
"50 1450 OFFCURVE",
"155 1463 OFFCURVE",
"155 1339 CURVE SMOOTH",
"155 12 LINE SMOOTH",
"155 -17 OFFCURVE",
"162 -32 OFFCURVE",
"190 -32 CURVE SMOOTH"
);
},
{
closed = 1;
nodes = (
"455 65 OFFCURVE",
"379 99 OFFCURVE",
"341 170 CURVE",
"341 808 LINE",
"385 867 OFFCURVE",
"485 918 OFFCURVE",
"562 918 CURVE SMOOTH",
"777 918 OFFCURVE",
"846 732 OFFCURVE",
"846 492 CURVE SMOOTH",
"846 252 OFFCURVE",
"781 65 OFFCURVE",
"566 65 CURVE SMOOTH"
);
}
);
width = 1147;
},
{
anchors = (
{
name = bottom;
position = "{655, 0}";
},
{
name = top;
position = "{887, 994}";
}
);
layerId = "62CA62AF-CD91-478A-AB8B-28A62CC47DA0";
paths = (
{
closed = 1;
nodes = (
"238 -32 OFFCURVE",
"214 -23 OFFCURVE",
"316 40 CURVE",
"437 -21 OFFCURVE",
"606 -29 OFFCURVE",
"720 -29 CURVE SMOOTH",
"1064 -29 OFFCURVE",
"1230 224 OFFCURVE",
"1230 493 CURVE SMOOTH",
"1230 763 OFFCURVE",
"1111 1014 OFFCURVE",
"782 1014 CURVE SMOOTH",
"666 1014 OFFCURVE",
"522 970 OFFCURVE",
"454 877 CURVE",
"464 1015 LINE",
"464 1500 LINE",
"471 1510 OFFCURVE",
"455 1548 OFFCURVE",
"434 1548 CURVE SMOOTH",
"345 1548 OFFCURVE",
"79 1538 OFFCURVE",
"-1 1532 CURVE SMOOTH",
"-17 1531 OFFCURVE",
"-25 1504 OFFCURVE",
"-25 1488 CURVE SMOOTH",
"-25 1463 OFFCURVE",
"-15 1454 OFFCURVE",
"-1 1448 CURVE",
"50 1434 OFFCURVE",
"148 1453 OFFCURVE",
"148 1329 CURVE SMOOTH",
"148 25 LINE SMOOTH {name = hr00;}",
"148 -4 OFFCURVE",
"155 -32 OFFCURVE",
"183 -32 CURVE SMOOTH"
);
},
{
closed = 1;
nodes = (
"560 76 OFFCURVE",
"481 135 OFFCURVE",
"464 164 CURVE",
"464 776 LINE",
"498 838 OFFCURVE",
"578 869 OFFCURVE",
"639 869 CURVE SMOOTH",
"829 869 OFFCURVE",
"893 722 OFFCURVE",
"893 493 CURVE SMOOTH",
"893 235 OFFCURVE",
"829 76 OFFCURVE",
"623 76 CURVE SMOOTH"
);
}
);
width = 1322;
}
);
leftKerningGroup = h;
rightKerningGroup = o;
unicode = 0062;
userData = {
com.typemytype.robofont.mark = (
0.967,
0.6,
1,
1
);
};
},
{
color = 10;
glyphname = c;
lastChange = "2018-07-16 17:41:08 +0000";
layers = (
{
anchors = (
{
name = bottom;
position = "{475, 0}";
},
{
name = top;
position = "{543, 994}";
}
);
layerId = "DD6F9F34-BC40-4E8F-B1D3-DF3B42A9710F";
paths = (
{
closed = 1;
nodes = (
"682 -29 OFFCURVE",
"799 55 OFFCURVE",
"858 173 CURVE SMOOTH",
"860 177 OFFCURVE",
"864 183 OFFCURVE",
"864 188 CURVE SMOOTH",
"864 193 OFFCURVE",
"861 197 OFFCURVE",
"853 201 CURVE SMOOTH",
"803 224 LINE SMOOTH",
"791 230 OFFCURVE",
"788 216 OFFCURVE",
"784 208 CURVE SMOOTH",
"741 122 OFFCURVE",
"651 75 OFFCURVE",
"550 75 CURVE SMOOTH",
"445 75 OFFCURVE",
"284 178 OFFCURVE",
"284 490 CURVE SMOOTH",
"284 805 OFFCURVE",
"394 918 OFFCURVE",
"556 918 CURVE SMOOTH",
"613 918 OFFCURVE",
"640 897 OFFCURVE",
"640 897 CURVE",
"724 710 LINE SMOOTH",
"744 666 OFFCURVE",
"767 662 OFFCURVE",
"806 662 CURVE SMOOTH",
"841 662 OFFCURVE",
"877 697 OFFCURVE",
"877 757 CURVE SMOOTH",
"877 792 OFFCURVE",
"865 836 OFFCURVE",
"834 887 CURVE SMOOTH",
"772 989 OFFCURVE",
"655 1014 OFFCURVE",
"541 1014 CURVE SMOOTH",
"275 1014 OFFCURVE",
"69 824 OFFCURVE",
"69 500 CURVE SMOOTH",
"69 176 OFFCURVE",
"220 -29 OFFCURVE",
"512 -29 CURVE SMOOTH"
);
}
);
width = 930;
},
{
anchors = (
{
name = bottom;
position = "{566, 0}";
},
{
name = top;
position = "{663, 994}";
}
);
layerId = "62CA62AF-CD91-478A-AB8B-28A62CC47DA0";
paths = (
{
closed = 1;
nodes = (
"787 -29 OFFCURVE",
"963 53 OFFCURVE",
"1027 173 CURVE SMOOTH",
"1031 180 OFFCURVE",
"1033 185 OFFCURVE",
"1033 190 CURVE SMOOTH",
"1033 195 OFFCURVE",
"1030 199 OFFCURVE",
"1023 202 CURVE",
"979 223 LINE",
"966 226 OFFCURVE",
"959 215 OFFCURVE",
"953 208 CURVE SMOOTH",
"894 140 OFFCURVE",
"804 105 OFFCURVE",
"689 105 CURVE SMOOTH",
"562 105 OFFCURVE",
"415 224 OFFCURVE",
"415 490 CURVE SMOOTH",
"415 825 OFFCURVE",
"513 929 OFFCURVE",
"624 929 CURVE SMOOTH",
"702 929 OFFCURVE",
"694 912 OFFCURVE",
"694 912 CURVE",
"811 670 LINE SMOOTH",
"822 646 OFFCURVE",
"862 613 OFFCURVE",
"908 613 CURVE SMOOTH",
"954 613 OFFCURVE",
"1043 652 OFFCURVE",
"1043 753 CURVE SMOOTH",
"1043 774 OFFCURVE",
"1039 797 OFFCURVE",
"1030 824 CURVE SMOOTH",
"983 963 OFFCURVE",
"867 1014 OFFCURVE",
"662 1014 CURVE SMOOTH",
"341 1014 OFFCURVE",
"70 854 OFFCURVE",
"70 500 CURVE SMOOTH {name = hr00;}",
"70 176 OFFCURVE",
"244 -29 OFFCURVE",
"663 -29 CURVE SMOOTH"
);
}
);
width = 1088;
}
);
leftKerningGroup = o;
rightKerningGroup = c;
unicode = 0063;
},
{
color = 10;
glyphname = d;
lastChange = "2018-07-16 17:51:53 +0000";
layers = (
{
anchors = (
{
name = bottom;
position = "{580, 0}";
},
{
name = center;
position = "{580, 497}";
},
{
name = top;
position = "{292, 917}";
},
{
name = topright;
position = "{1198, 994}";
}
);
layerId = "DD6F9F34-BC40-4E8F-B1D3-DF3B42A9710F";
paths = (
{
closed = 1;
nodes = (
"617 -29 OFFCURVE",
"736 21 OFFCURVE",
"806 97 CURVE",
"805 34 OFFCURVE",
"807 0 OFFCURVE",
"882 0 CURVE SMOOTH",
"1106 0 LINE SMOOTH",
"1128 0 OFFCURVE",
"1140 26 OFFCURVE",
"1140 41 CURVE SMOOTH",
"1140 71 OFFCURVE",
"1132 75 OFFCURVE",
"1104 78 CURVE SMOOTH",
"1055 83 OFFCURVE",
"992 89 OFFCURVE",
"992 175 CURVE SMOOTH",
"992 1518 LINE",
"989 1550 OFFCURVE",
"973 1558 OFFCURVE",
"962 1558 CURVE SMOOTH",
"905 1558 OFFCURVE",
"750 1556 OFFCURVE",
"617 1548 CURVE SMOOTH",
"601 1547 OFFCURVE",
"593 1520 OFFCURVE",
"593 1504 CURVE SMOOTH",
"593 1479 OFFCURVE",
"603 1470 OFFCURVE",
"617 1464 CURVE",
"671 1450 OFFCURVE",
"806 1463 OFFCURVE",
"806 1339 CURVE SMOOTH",
"806 1104 LINE",
"816 934 LINE",
"755 994 OFFCURVE",
"653 1014 OFFCURVE",
"544 1014 CURVE SMOOTH",
"228 1014 OFFCURVE",
"94 761 OFFCURVE",
"94 492 CURVE SMOOTH",
"94 222 OFFCURVE",
"207 -29 OFFCURVE",
"522 -29 CURVE SMOOTH"
);
},
{
closed = 1;
nodes = (
"362 66 OFFCURVE",
"301 253 OFFCURVE",
"301 492 CURVE SMOOTH",
"301 736 OFFCURVE",
"358 919 OFFCURVE",
"581 919 CURVE SMOOTH",
"692 919 OFFCURVE",
"768 885 OFFCURVE",
"806 814 CURVE",
"806 176 LINE",
"762 117 OFFCURVE",
"662 66 OFFCURVE",
"585 66 CURVE SMOOTH"
);
}
);
width = 1176;
},
{
anchors = (
{
name = bottom;
position = "{668, 0}";
},
{
name = center;
position = "{668, 497}";
},
{
name = top;
position = "{345, 880}";
},
{
name = topright;
position = "{1390, 994}";
}
);
layerId = "62CA62AF-CD91-478A-AB8B-28A62CC47DA0";
paths = (
{
closed = 1;
nodes = (
"659 -29 OFFCURVE",
"804 15 OFFCURVE",
"872 108 CURVE",
"871 37 OFFCURVE",
"868 0 OFFCURVE",
"948 0 CURVE SMOOTH {name = hr02;}",
"1292 0 LINE SMOOTH",
"1314 0 OFFCURVE",
"1326 26 OFFCURVE",
"1326 41 CURVE SMOOTH",
"1326 71 OFFCURVE",
"1318 75 OFFCURVE",
"1290 78 CURVE SMOOTH",
"1241 83 OFFCURVE",
"1178 89 OFFCURVE",
"1178 175 CURVE SMOOTH",
"1178 1508 LINE SMOOTH",
"1178 1540 OFFCURVE",
"1159 1548 OFFCURVE",
"1148 1548 CURVE SMOOTH",
"1068 1548 OFFCURVE",
"850 1550 OFFCURVE",
"663 1538 CURVE SMOOTH",
"648 1537 OFFCURVE",
"639 1510 OFFCURVE",
"639 1494 CURVE SMOOTH",
"639 1469 OFFCURVE",
"649 1460 OFFCURVE",
"663 1454 CURVE",
"775 1446 OFFCURVE",
"862 1425 OFFCURVE",
"862 1329 CURVE SMOOTH",
"862 1105 LINE",
"871 948 LINE",
"782 1002 OFFCURVE",
"713 1014 OFFCURVE",
"606 1014 CURVE SMOOTH",
"262 1014 OFFCURVE",
"96 761 OFFCURVE",
"96 492 CURVE SMOOTH {name = hr01;}",
"96 222 OFFCURVE",
"215 -29 OFFCURVE",
"544 -29 CURVE SMOOTH"
);
},
{
closed = 1;
nodes = (
"497 116 OFFCURVE",
"433 273 OFFCURVE",
"433 492 CURVE SMOOTH",
"433 740 OFFCURVE",
"497 909 OFFCURVE",
"703 909 CURVE SMOOTH",
"766 909 OFFCURVE",
"845 850 OFFCURVE",
"862 801 CURVE",
"862 209 LINE",
"827 147 OFFCURVE",
"748 116 OFFCURVE",
"687 116 CURVE SMOOTH"
);
}
);
width = 1358;
}
);
leftKerningGroup = o;
rightKerningGroup = l;
unicode = 0064;
userData = {
com.typemytype.robofont.mark = (
0.967,
0.6,
1,
1
);
};
},
{
color = 10;
glyphname = eth;
lastChange = "2018-07-16 17:55:37 +0000";
layers = (
{
background = {
paths = (
{
closed = 1;
nodes = (
"772 914 OFFCURVE",
"668 994 OFFCURVE",
"507 994 CURVE SMOOTH",
"260 994 OFFCURVE",
"80 781 OFFCURVE",
"80 462 CURVE SMOOTH",
"80 191 OFFCURVE",
"257 -29 OFFCURVE",
"557 -29 CURVE SMOOTH",
"856 -29 OFFCURVE",
"1006 260 OFFCURVE",
"1006 592 CURVE SMOOTH",
"1006 945 OFFCURVE",
"848 1448 OFFCURVE",
"198 1579 CURVE",
"187 1487 LINE",
"776 1359 OFFCURVE",
"794 807 OFFCURVE",
"794 572 CURVE SMOOTH",
"794 262 OFFCURVE",
"756 66 OFFCURVE",
"554 66 CURVE SMOOTH",
"353 66 OFFCURVE",
"297 218 OFFCURVE",
"297 462 CURVE SMOOTH",
"297 731 OFFCURVE",
"366 877 OFFCURVE",
"523 877 CURVE SMOOTH",
"658 877 OFFCURVE",
"749 839 OFFCURVE",
"802 729 CURVE",
"830 806 LINE"
);
},
{
closed = 1;
nodes = (
"274 1255 LINE",
"362 1195 LINE",
"640 1619 LINE",
"554 1685 LINE"
);
}
);
};
layerId = "DD6F9F34-BC40-4E8F-B1D3-DF3B42A9710F";
paths = (
{
closed = 1;
nodes = (
"70 179 OFFCURVE",
"256 -20 OFFCURVE",
"538 -20 CURVE SMOOTH",
"859 -20 OFFCURVE",
"1002 267 OFFCURVE",
"1002 611 CURVE SMOOTH",
"1002 869 OFFCURVE",
"882 1209 OFFCURVE",
"633 1438 CURVE",
"783 1553 LINE",
"784 1556 OFFCURVE",
"785 1560 OFFCURVE",
"785 1565 CURVE SMOOTH",
"785 1580 OFFCURVE",
"779 1602 OFFCURVE",
"770 1618 CURVE SMOOTH",
"765 1627 OFFCURVE",
"757 1634 OFFCURVE",
"749 1634 CURVE SMOOTH",
"745 1634 OFFCURVE",
"742 1633 OFFCURVE",
"738 1630 CURVE SMOOTH",
"558 1489 LINE",
"466 1544 OFFCURVE",
"349 1592 OFFCURVE",
"230 1602 CURVE",
"214 1602 OFFCURVE",
"208 1587 OFFCURVE",
"201 1562 CURVE SMOOTH",
"199 1554 OFFCURVE",
"198 1544 OFFCURVE",
"198 1535 CURVE SMOOTH",
"198 1513 OFFCURVE",
"204 1492 OFFCURVE",
"213 1491 CURVE SMOOTH",
"301 1477 OFFCURVE",
"376 1446 OFFCURVE",
"441 1401 CURVE",
"265 1261 LINE",
"263 1257 OFFCURVE",
"262 1252 OFFCURVE",
"262 1247 CURVE SMOOTH",
"262 1234 OFFCURVE",
"267 1219 OFFCURVE",
"275 1204 CURVE SMOOTH",
"282 1192 OFFCURVE",
"298 1176 OFFCURVE",
"309 1184 CURVE",
"509 1344 LINE",
"613 1241 OFFCURVE",
"736 1063 OFFCURVE",
"771 889 CURVE",
"723 945 OFFCURVE",
"596 980 OFFCURVE",
"521 980 CURVE SMOOTH",
"242 980 OFFCURVE",
"70 752 OFFCURVE",
"70 460 CURVE SMOOTH {name = hr00;}"
);
},
{
closed = 1;
nodes = (
"278 659 OFFCURVE",
"347 877 OFFCURVE",
"534 880 CURVE SMOOTH",
"736 883 OFFCURVE",
"774 794 OFFCURVE",
"774 590 CURVE SMOOTH",
"774 585 LINE SMOOTH",
"774 315 OFFCURVE",
"760 75 OFFCURVE",
"535 75 CURVE SMOOTH",
"377 75 OFFCURVE",
"278 218 OFFCURVE",
"278 462 CURVE SMOOTH"
);
}
);
width = 1089;
},
{
layerId = "62CA62AF-CD91-478A-AB8B-28A62CC47DA0";
paths = (
{
closed = 1;
nodes = (
"78 170 OFFCURVE",
"307 -29 OFFCURVE",
"655 -29 CURVE SMOOTH",
"1052 -29 OFFCURVE",
"1228 258 OFFCURVE",
"1228 602 CURVE SMOOTH",
"1228 925 OFFCURVE",
"1066 1265 OFFCURVE",
"759 1455 CURVE",
"916 1577 LINE",
"917 1580 OFFCURVE",
"918 1583 OFFCURVE",
"918 1587 CURVE SMOOTH",
"918 1603 OFFCURVE",
"908 1625 OFFCURVE",
"894 1641 CURVE SMOOTH",
"887 1649 OFFCURVE",
"878 1656 OFFCURVE",
"868 1656 CURVE SMOOTH",
"863 1656 OFFCURVE",
"858 1654 OFFCURVE",
"854 1651 CURVE SMOOTH",
"667 1506 LINE",
"553 1561 OFFCURVE",
"457 1596 OFFCURVE",
"310 1606 CURVE",
"290 1606 OFFCURVE",
"283 1591 OFFCURVE",
"275 1566 CURVE SMOOTH",
"272 1557 OFFCURVE",
"271 1548 OFFCURVE",
"271 1538 CURVE SMOOTH",
"271 1516 OFFCURVE",
"278 1496 OFFCURVE",
"289 1495 CURVE SMOOTH",
"398 1485 OFFCURVE",
"462 1450 OFFCURVE",
"536 1405 CURVE",
"360 1263 LINE",
"358 1259 OFFCURVE",
"358 1255 OFFCURVE",
"358 1251 CURVE SMOOTH",
"358 1238 OFFCURVE",
"364 1222 OFFCURVE",
"377 1207 CURVE SMOOTH",
"385 1198 OFFCURVE",
"400 1186 OFFCURVE",
"413 1186 CURVE",
"620 1348 LINE",
"748 1245 OFFCURVE",
"830 1054 OFFCURVE",
"873 880 CURVE",
"813 936 OFFCURVE",
"727 971 OFFCURVE",
"635 971 CURVE SMOOTH",
"290 971 OFFCURVE",
"78 762 OFFCURVE",
"78 451 CURVE SMOOTH {name = hr00;}"
);
},
{
closed = 1;
nodes = (
"425 658 OFFCURVE",
"494 853 OFFCURVE",
"651 853 CURVE SMOOTH",
"829 853 OFFCURVE",
"876 785 OFFCURVE",
"876 581 CURVE SMOOTH",
"876 576 LINE SMOOTH",
"876 306 OFFCURVE",
"850 66 OFFCURVE",
"652 66 CURVE SMOOTH",
"491 66 OFFCURVE",
"425 177 OFFCURVE",
"425 421 CURVE SMOOTH"
);
}
);
width = 1306;
}
);
leftKerningGroup = eth;
rightKerningGroup = eth;
unicode = 00F0;
},
{
color = 10;
glyphname = dcroat;
lastChange = "2018-07-16 17:50:57 +0000";
layers = (
{
components = (
{
name = d;
transform = "{1, 0, 0, 1, -8, 0}";
}
);
layerId = "DD6F9F34-BC40-4E8F-B1D3-DF3B42A9710F";
paths = (
{
closed = 1;
nodes = (
"1130 1191 LINE",
"1144 1197 OFFCURVE",
"1154 1219 OFFCURVE",
"1154 1244 CURVE SMOOTH",
"1154 1260 OFFCURVE",
"1146 1287 OFFCURVE",
"1130 1288 CURVE",
"529 1288 LINE",
"515 1282 OFFCURVE",
"505 1250 OFFCURVE",
"505 1225 CURVE SMOOTH",
"505 1209 OFFCURVE",
"513 1192 OFFCURVE",
"529 1191 CURVE"
);
}
);
width = 1176;
},
{
components = (
{
name = d;
transform = "{1, 0, 0, 1, -11, 0}";
}
);
layerId = "62CA62AF-CD91-478A-AB8B-28A62CC47DA0";
paths = (
{
closed = 1;
nodes = (
"1295 1191 LINE",
"1309 1197 OFFCURVE",
"1319 1219 OFFCURVE",
"1319 1244 CURVE SMOOTH",
"1319 1260 OFFCURVE",
"1311 1287 OFFCURVE",
"1295 1288 CURVE",
"526 1288 LINE",
"512 1282 OFFCURVE",
"502 1250 OFFCURVE",
"502 1225 CURVE SMOOTH",
"502 1209 OFFCURVE",
"510 1192 OFFCURVE",
"526 1191 CURVE"
);
}
);
width = 1358;
}
);
leftKerningGroup = o;
rightKerningGroup = l;
unicode = 0111;
},
{
color = 10;
glyphname = e;
lastChange = "2018-07-16 16:03:11 +0000";
layers = (
{
anchors = (
{
name = bottom;
position = "{520, 0}";
},
{
name = ogonek;
position = "{896, 10}";
},
{
name = top;
position = "{520, 994}";
}
);
layerId = "DD6F9F34-BC40-4E8F-B1D3-DF3B42A9710F";
paths = (
{
closed = 1;
nodes = (
"702 -29 OFFCURVE",
"807 55 OFFCURVE",
"866 173 CURVE SMOOTH",
"868 177 OFFCURVE",
"872 183 OFFCURVE",
"872 189 CURVE SMOOTH",
"872 193 OFFCURVE",
"869 198 OFFCURVE",
"861 201 CURVE",
"811 224 LINE",
"798 227 OFFCURVE",
"796 216 OFFCURVE",
"792 208 CURVE SMOOTH",
"749 122 OFFCURVE",
"659 75 OFFCURVE",
"558 75 CURVE SMOOTH",
"426 75 OFFCURVE",
"286 186 OFFCURVE",
"284 503 CURVE",
"922 503 LINE",
"922 562 OFFCURVE",
"919 618 OFFCURVE",
"910 669 CURVE SMOOTH",
"874 875 OFFCURVE",
"772 1014 OFFCURVE",
"520 1014 CURVE SMOOTH",
"281 1014 OFFCURVE",
"69 834 OFFCURVE",
"69 500 CURVE SMOOTH",
"69 166 OFFCURVE",
"226 -29 OFFCURVE",
"532 -29 CURVE SMOOTH"
);
},
{
closed = 1;
nodes = (
"297 873 OFFCURVE",
"376 918 OFFCURVE",
"519 918 CURVE SMOOTH",
"621 918 OFFCURVE",
"700 827 OFFCURVE",
"700 595 CURVE",
"286 589 LINE"
);
}
);
width = 990;
},
{
anchors = (
{
name = bottom;
position = "{647, 0}";
},
{
name = ogonek;
position = "{1051, 10}";
},
{
name = top;
position = "{633, 994}";
}
);
layerId = "62CA62AF-CD91-478A-AB8B-28A62CC47DA0";
paths = (
{
closed = 1;
nodes = (
"853 -29 OFFCURVE",
"988 54 OFFCURVE",
"1056 173 CURVE SMOOTH",
"1060 180 OFFCURVE",
"1062 185 OFFCURVE",
"1062 190 CURVE SMOOTH",
"1062 195 OFFCURVE",
"1059 199 OFFCURVE",
"1052 202 CURVE SMOOTH",
"1008 223 LINE",
"995 226 OFFCURVE",
"988 215 OFFCURVE",
"982 208 CURVE SMOOTH",
"918 133 OFFCURVE",
"838 105 OFFCURVE",
"718 105 CURVE SMOOTH",
"578 105 OFFCURVE",
"409 200 OFFCURVE",
"409 508 CURVE",
"1103 509 LINE",
"1103 564 OFFCURVE",
"1102 626 OFFCURVE",
"1094 674 CURVE SMOOTH",
"1059 885 OFFCURVE",
"935 1014 OFFCURVE",
"626 1014 CURVE SMOOTH",
"329 1014 OFFCURVE",
"69 836 OFFCURVE",
"69 502 CURVE SMOOTH {name = hr01;}",
"69 168 OFFCURVE",
"246 -29 OFFCURVE",
"642 -29 CURVE SMOOTH"
);
},
{
closed = 1;
nodes = (
"431 838 OFFCURVE",
"524 929 OFFCURVE",
"623 929 CURVE SMOOTH",
"725 929 OFFCURVE",
"770 833 OFFCURVE",
"770 601 CURVE",
"412 601 LINE"
);
}
);
width = 1171;
}
);
leftKerningGroup = o;
rightKerningGroup = e;
unicode = 0065;
},
{
color = 10;
glyphname = eogonek;
lastChange = "2018-07-16 16:02:51 +0000";
layers = (
{
components = (
{
name = e;
}
);
layerId = "DD6F9F34-BC40-4E8F-B1D3-DF3B42A9710F";
paths = (
{
closed = 1;
nodes = (
"639 30 LINE",
"487 -6 OFFCURVE",
"374 -89 OFFCURVE",
"374 -194 CURVE SMOOTH",
"374 -299 OFFCURVE",
"463 -370 OFFCURVE",
"593 -370 CURVE SMOOTH",
"653 -370 OFFCURVE",
"739 -352 OFFCURVE",
"782 -323 CURVE SMOOTH",
"796 -314 OFFCURVE",
"802 -294 OFFCURVE",
"802 -277 CURVE SMOOTH",
"802 -258 OFFCURVE",
"795 -241 OFFCURVE",
"782 -243 CURVE SMOOTH",
"748 -249 OFFCURVE",
"732 -259 OFFCURVE",
"700 -259 CURVE SMOOTH",
"611 -259 OFFCURVE",
"560 -221 OFFCURVE",
"560 -160 CURVE SMOOTH",
"560 -84 OFFCURVE",
"597 -51 OFFCURVE",
"724 30 CURVE",
"695 80 LINE"
);
}
);
width = 990;
},
{
components = (
{
name = e;
}
);
layerId = "62CA62AF-CD91-478A-AB8B-28A62CC47DA0";
paths = (
{
closed = 1;
nodes = (
"695 0 LINE",
"543 -36 OFFCURVE",
"450 -119 OFFCURVE",
"450 -224 CURVE SMOOTH",
"450 -329 OFFCURVE",
"559 -407 OFFCURVE",
"689 -407 CURVE SMOOTH",
"749 -407 OFFCURVE",
"835 -389 OFFCURVE",
"878 -360 CURVE SMOOTH",
"892 -351 OFFCURVE",
"898 -327 OFFCURVE",
"898 -306 CURVE SMOOTH",
"898 -282 OFFCURVE",
"891 -261 OFFCURVE",
"878 -263 CURVE SMOOTH",
"844 -269 OFFCURVE",
"828 -279 OFFCURVE",
"796 -279 CURVE SMOOTH",
"707 -279 OFFCURVE",
"673 -233 OFFCURVE",
"673 -172 CURVE SMOOTH",
"673 -96 OFFCURVE",
"748 -32 OFFCURVE",
"844 0 CURVE",
"802 49 LINE"
);
}
);
width = 1171;
}
);
leftKerningGroup = o;
rightKerningGroup = e;
unicode = 0119;
},
{
color = 10;
glyphname = f;
lastChange = "2018-07-16 17:30:38 +0000";
layers = (
{
anchors = (
{
name = bottom;
position = "{288, 0}";
},
{
name = top;
position = "{327, 1421}";
}
);
layerId = "DD6F9F34-BC40-4E8F-B1D3-DF3B42A9710F";
paths = (
{
closed = 1;
nodes = (
"562 0 LINE SMOOTH",
"585 0 OFFCURVE",
"596 26 OFFCURVE",
"596 41 CURVE SMOOTH",
"596 71 OFFCURVE",
"588 75 OFFCURVE",
"560 78 CURVE SMOOTH",
"495 85 OFFCURVE",
"398 89 OFFCURVE",
"398 175 CURVE SMOOTH",
"398 907 LINE",
"608 907 LINE",
"622 913 OFFCURVE",
"632 935 OFFCURVE",
"632 960 CURVE SMOOTH",
"632 976 OFFCURVE",
"624 993 OFFCURVE",
"608 994 CURVE",
"398 994 LINE",
"398 1174 LINE SMOOTH",
"398 1488 OFFCURVE",
"473 1463 OFFCURVE",
"547 1475 CURVE",
"656 1312 LINE",
"658 1310 OFFCURVE",
"662 1309 OFFCURVE",
"667 1309 CURVE SMOOTH",
"702 1309 OFFCURVE",
"794 1362 OFFCURVE",
"785 1441 CURVE SMOOTH",
"777 1509 OFFCURVE",
"711 1573 OFFCURVE",
"583 1573 CURVE SMOOTH",
"341 1573 OFFCURVE",
"214 1397 OFFCURVE",
"212 1142 CURVE SMOOTH",
"211 994 LINE",
"89 984 LINE",
"75 978 OFFCURVE",
"65 966 OFFCURVE",
"65 941 CURVE SMOOTH",
"65 925 OFFCURVE",
"73 908 OFFCURVE",
"89 907 CURVE",
"212 907 LINE",
"212 142 LINE SMOOTH",
"212 98 OFFCURVE",
"145 84 OFFCURVE",
"96 78 CURVE SMOOTH",
"70 75 OFFCURVE",
"63 62 OFFCURVE",
"63 41 CURVE SMOOTH",
"63 26 OFFCURVE",
"74 0 OFFCURVE",
"97 0 CURVE SMOOTH"
);
}
);
width = 666;
},
{
anchors = (
{
name = bottom;
position = "{386, 0}";
},
{
name = top;
position = "{406, 1419}";
}
);
layerId = "62CA62AF-CD91-478A-AB8B-28A62CC47DA0";
paths = (
{
closed = 1;
nodes = (
"712 0 LINE SMOOTH",
"735 0 OFFCURVE",
"746 26 OFFCURVE",
"746 41 CURVE SMOOTH",
"746 71 OFFCURVE",
"738 75 OFFCURVE",
"710 78 CURVE",
"645 82 OFFCURVE",
"548 88 OFFCURVE",
"548 165 CURVE SMOOTH",
"548 887 LINE",
"780 887 LINE",
"794 893 OFFCURVE",
"804 935 OFFCURVE",
"804 960 CURVE SMOOTH",
"804 976 OFFCURVE",
"796 993 OFFCURVE",
"780 994 CURVE",
"548 994 LINE",
"548 1107 LINE SMOOTH",
"548 1396 OFFCURVE",
"585 1449 OFFCURVE",
"638 1449 CURVE",
"786 1278 LINE",
"786 1276 OFFCURVE",
"797 1275 OFFCURVE",
"797 1275 CURVE",
"862 1274 OFFCURVE",
"915 1334 OFFCURVE",
"915 1416 CURVE SMOOTH",
"915 1494 OFFCURVE",
"849 1563 OFFCURVE",
"666 1563 CURVE SMOOTH",
"372 1563 OFFCURVE",
"232 1331 OFFCURVE",
"232 1076 CURVE SMOOTH",
"232 994 LINE",
"79 977 LINE",
"65 971 OFFCURVE",
"54 956 OFFCURVE",
"54 931 CURVE SMOOTH",
"54 915 OFFCURVE",
"62 888 OFFCURVE",
"78 887 CURVE",
"232 887 LINE",
"232 132 LINE SMOOTH",
"232 95 OFFCURVE",
"165 82 OFFCURVE",
"116 78 CURVE",
"90 75 OFFCURVE",
"83 62 OFFCURVE",
"83 41 CURVE SMOOTH {name = hr00;}",
"83 26 OFFCURVE",
"94 0 OFFCURVE",
"117 0 CURVE SMOOTH"
);
}
);
width = 805;
}
);
leftKerningGroup = f;
rightKerningGroup = f;
unicode = 0066;
},
{
color = 10;
glyphname = g;
lastChange = "2018-07-16 17:47:54 +0000";
layers = (
{
anchors = (
{
name = bottom;
position = "{476, -421}";
},
{
name = top;
position = "{518, 994}";
}
);
layerId = "DD6F9F34-BC40-4E8F-B1D3-DF3B42A9710F";
paths = (
{
closed = 1;
nodes = (
"801 -451 OFFCURVE",
"949 -275 OFFCURVE",
"950 -108 CURVE SMOOTH",
"951 123 OFFCURVE",
"833 194 OFFCURVE",
"621 194 CURVE SMOOTH",
"375 194 LINE SMOOTH",
"295 194 OFFCURVE",
"237 230 OFFCURVE",
"237 300 CURVE SMOOTH",
"237 338 OFFCURVE",
"265 382 OFFCURVE",
"303 408 CURVE",
"354 383 OFFCURVE",
"415 369 OFFCURVE",
"485 369 CURVE SMOOTH",
"711 369 OFFCURVE",
"847 517 OFFCURVE",
"847 694 CURVE SMOOTH",
"847 763 OFFCURVE",
"828 826 OFFCURVE",
"791 878 CURVE",
"823 915 OFFCURVE",
"838 928 OFFCURVE",
"868 935 CURVE",
"973 776 LINE",
"1010 776 OFFCURVE",
"1049 812 OFFCURVE",
"1049 874 CURVE SMOOTH",
"1049 957 OFFCURVE",
"1001 1022 OFFCURVE",
"913 1022 CURVE SMOOTH",
"843 1022 OFFCURVE",
"785 982 OFFCURVE",
"750 924 CURVE",
"689 980 OFFCURVE",
"602 1014 OFFCURVE",
"491 1014 CURVE SMOOTH",
"265 1014 OFFCURVE",
"128 872 OFFCURVE",
"128 694 CURVE SMOOTH",
"128 597 OFFCURVE",
"167 510 OFFCURVE",
"239 450 CURVE",
"177 418 OFFCURVE",
"96 350 OFFCURVE",
"96 243 CURVE SMOOTH",
"96 163 OFFCURVE",
"128 83 OFFCURVE",
"201 51 CURVE",
"142 21 OFFCURVE",
"57 -26 OFFCURVE",
"57 -145 CURVE SMOOTH",
"57 -316 OFFCURVE",
"237 -451 OFFCURVE",
"503 -451 CURVE SMOOTH"
);
},
{
closed = 1;
nodes = (
"379 -355 OFFCURVE",
"248 -288 OFFCURVE",
"248 -126 CURVE SMOOTH",
"248 -52 OFFCURVE",
"261 -9 OFFCURVE",
"269 18 CURVE",
"299 8 OFFCURVE",
"332 1 OFFCURVE",
"369 1 CURVE SMOOTH",
"612 1 LINE SMOOTH",
"724 1 OFFCURVE",
"819 -33 OFFCURVE",
"819 -139 CURVE SMOOTH",
"819 -313 OFFCURVE",
"629 -355 OFFCURVE",
"523 -355 CURVE SMOOTH"
);
},
{
closed = 1;
nodes = (
"350 464 OFFCURVE",
"314 569 OFFCURVE",
"314 694 CURVE SMOOTH",
"314 820 OFFCURVE",
"348 918 OFFCURVE",
"485 918 CURVE SMOOTH",
"621 918 OFFCURVE",
"659 820 OFFCURVE",
"659 694 CURVE SMOOTH",
"659 569 OFFCURVE",
"625 464 OFFCURVE",
"489 464 CURVE SMOOTH"
);
}
);
width = 1043;
},
{
anchors = (
{
name = bottom;
position = "{561, -415}";
},
{
name = top;
position = "{561, 994}";
}
);
layerId = "62CA62AF-CD91-478A-AB8B-28A62CC47DA0";
paths = (
{
closed = 1;
nodes = (
"926 -448 OFFCURVE",
"1117 -253 OFFCURVE",
"1117 -86 CURVE SMOOTH",
"1117 112 OFFCURVE",
"963 230 OFFCURVE",
"754 230 CURVE SMOOTH",
"476 230 LINE SMOOTH",
"377 230 OFFCURVE",
"308 234 OFFCURVE",
"308 288 CURVE SMOOTH {name = hr02;}",
"308 324 OFFCURVE",
"329 362 OFFCURVE",
"359 387 CURVE",
"409 375 OFFCURVE",
"462 369 OFFCURVE",
"529 369 CURVE SMOOTH",
"848 369 OFFCURVE",
"965 507 OFFCURVE",
"965 694 CURVE SMOOTH",
"965 766 OFFCURVE",
"947 830 OFFCURVE",
"908 881 CURVE",
"927 890 OFFCURVE",
"948 896 OFFCURVE",
"982 896 CURVE",
"1105 724 LINE",
"1172 724 OFFCURVE",
"1199 770 OFFCURVE",
"1199 857 CURVE SMOOTH",
"1199 973 OFFCURVE",
"1112 1014 OFFCURVE",
"1031 1014 CURVE SMOOTH",
"964 1014 OFFCURVE",
"899 973 OFFCURVE",
"855 933 CURVE",
"786 984 OFFCURVE",
"705 1014 OFFCURVE",
"554 1014 CURVE SMOOTH",
"243 1014 OFFCURVE",
"97 882 OFFCURVE",
"97 694 CURVE SMOOTH {name = hr03;}",
"97 578 OFFCURVE",
"150 462 OFFCURVE",
"298 405 CURVE",
"196 374 OFFCURVE",
"97 306 OFFCURVE",
"97 207 CURVE SMOOTH {name = hr04;}",
"97 141 OFFCURVE",
"114 76 OFFCURVE",
"239 25 CURVE",
"114 -14 OFFCURVE",
"43 -81 OFFCURVE",
"43 -191 CURVE SMOOTH {name = hr01;}",
"43 -384 OFFCURVE",
"279 -448 OFFCURVE",
"534 -448 CURVE SMOOTH"
);
},
{
closed = 1;
nodes = (
"460 -352 OFFCURVE",
"308 -303 OFFCURVE",
"308 -141 CURVE SMOOTH",
"308 -68 OFFCURVE",
"311 -35 OFFCURVE",
"324 -1 CURVE {name = hr07;}",
"354 -15 OFFCURVE",
"464 -22 OFFCURVE",
"494 -22 CURVE",
"687 -22 LINE",
"823 -22 OFFCURVE",
"855 -101 OFFCURVE",
"855 -171 CURVE SMOOTH",
"855 -275 OFFCURVE",
"690 -352 OFFCURVE",
"564 -352 CURVE SMOOTH"
);
},
{
closed = 1;
nodes = (
"423 454 OFFCURVE",
"399 565 OFFCURVE",
"399 690 CURVE SMOOTH",
"399 816 OFFCURVE",
"424 928 OFFCURVE",
"534 928 CURVE SMOOTH",
"644 928 OFFCURVE",
"679 824 OFFCURVE",
"679 698 CURVE SMOOTH",
"679 573 OFFCURVE",
"644 454 OFFCURVE",
"534 454 CURVE SMOOTH {name = hr06;}"
);
}
);
width = 1181;
}
);
leftKerningGroup = o;
rightKerningGroup = g;
unicode = 0067;
},
{
color = 9;
glyphname = h;
lastChange = "2018-07-14 03:21:40 +0000";
layers = (
{
anchors = (
{
name = bottom;
position = "{576, 0}";
},
{
name = center;
position = "{576, 945}";
},
{
name = top;
position = "{781, 1130}";
}
);
layerId = "DD6F9F34-BC40-4E8F-B1D3-DF3B42A9710F";
paths = (
{
closed = 1;
nodes = (
"489 0 LINE SMOOTH",
"511 0 OFFCURVE",
"523 26 OFFCURVE",
"523 41 CURVE SMOOTH",
"523 71 OFFCURVE",
"515 75 OFFCURVE",
"487 78 CURVE SMOOTH",
"438 83 OFFCURVE",
"375 89 OFFCURVE",
"375 175 CURVE SMOOTH",
"375 771 LINE",
"430 822 OFFCURVE",
"548 896 OFFCURVE",
"673 896 CURVE SMOOTH",
"791 896 OFFCURVE",
"802 829 OFFCURVE",
"802 795 CURVE SMOOTH",
"802 142 LINE SMOOTH",
"802 104 OFFCURVE",
"738 81 OFFCURVE",
"696 78 CURVE SMOOTH",
"670 76 OFFCURVE",
"665 62 OFFCURVE",
"665 41 CURVE SMOOTH",
"665 26 OFFCURVE",
"676 0 OFFCURVE",
"699 0 CURVE SMOOTH",
"1126 0 LINE SMOOTH",
"1149 0 OFFCURVE",
"1160 26 OFFCURVE",
"1160 41 CURVE SMOOTH",
"1160 70 OFFCURVE",
"1149 75 OFFCURVE",
"1127 78 CURVE SMOOTH",
"1077 85 OFFCURVE",
"990 79 OFFCURVE",
"990 175 CURVE SMOOTH",
"990 766 LINE SMOOTH",
"990 974 OFFCURVE",
"859 1014 OFFCURVE",
"714 1014 CURVE SMOOTH",
"551 1014 OFFCURVE",
"400 880 OFFCURVE",
"365 845 CURVE",
"375 1104 LINE",
"375 1518 LINE",
"372 1550 OFFCURVE",
"356 1558 OFFCURVE",
"345 1558 CURVE SMOOTH",
"288 1558 OFFCURVE",
"173 1556 OFFCURVE",
"40 1548 CURVE SMOOTH",
"24 1547 OFFCURVE",
"16 1520 OFFCURVE",
"16 1504 CURVE SMOOTH",
"16 1479 OFFCURVE",
"26 1470 OFFCURVE",
"40 1464 CURVE",
"94 1450 OFFCURVE",
"189 1463 OFFCURVE",
"189 1339 CURVE SMOOTH",
"189 142 LINE SMOOTH",
"189 98 OFFCURVE",
"122 84 OFFCURVE",
"73 78 CURVE SMOOTH",
"47 75 OFFCURVE",
"40 62 OFFCURVE",
"40 41 CURVE SMOOTH",
"40 26 OFFCURVE",
"51 0 OFFCURVE",
"74 0 CURVE SMOOTH"
);
}
);
width = 1192;
},
{
anchors = (
{
name = bottom;
position = "{686, 0}";
},
{
name = center;
position = "{686, 945}";
},
{
name = top;
position = "{952, 1112}";
}
);
layerId = "62CA62AF-CD91-478A-AB8B-28A62CC47DA0";
paths = (
{
closed = 1;
nodes = (
"614 0 LINE SMOOTH",
"636 0 OFFCURVE",
"648 26 OFFCURVE",
"648 41 CURVE SMOOTH",
"648 71 OFFCURVE",
"640 75 OFFCURVE",
"612 78 CURVE SMOOTH",
"563 83 OFFCURVE",
"500 88 OFFCURVE",
"500 165 CURVE SMOOTH",
"500 727 LINE",
"547 778 OFFCURVE",
"672 852 OFFCURVE",
"780 852 CURVE SMOOTH",
"899 852 OFFCURVE",
"899 764 OFFCURVE",
"899 721 CURVE SMOOTH",
"899 132 LINE SMOOTH",
"899 100 OFFCURVE",
"835 81 OFFCURVE",
"793 78 CURVE",
"766 75 OFFCURVE",
"762 62 OFFCURVE",
"762 41 CURVE SMOOTH",
"762 26 OFFCURVE",
"773 0 OFFCURVE",
"796 0 CURVE SMOOTH",
"1343 0 LINE SMOOTH",
"1366 0 OFFCURVE",
"1377 26 OFFCURVE",
"1377 41 CURVE SMOOTH",
"1377 70 OFFCURVE",
"1366 75 OFFCURVE",
"1344 78 CURVE SMOOTH",
"1294 85 OFFCURVE",
"1207 79 OFFCURVE",
"1207 165 CURVE SMOOTH",
"1207 736 LINE SMOOTH",
"1207 968 OFFCURVE",
"1066 1014 OFFCURVE",
"916 1014 CURVE SMOOTH",
"723 1014 OFFCURVE",
"531 890 OFFCURVE",
"490 845 CURVE",
"500 992 LINE",
"500 1508 LINE",
"497 1540 OFFCURVE",
"481 1548 OFFCURVE",
"470 1548 CURVE SMOOTH",
"389 1548 OFFCURVE",
"225 1546 OFFCURVE",
"35 1534 CURVE SMOOTH",
"19 1533 OFFCURVE",
"11 1506 OFFCURVE",
"11 1490 CURVE SMOOTH",
"11 1465 OFFCURVE",
"21 1456 OFFCURVE",
"35 1450 CURVE",
"89 1436 OFFCURVE",
"184 1453 OFFCURVE",
"184 1329 CURVE SMOOTH",
"184 132 LINE SMOOTH",
"184 95 OFFCURVE",
"117 82 OFFCURVE",
"68 78 CURVE",
"42 75 OFFCURVE",
"35 62 OFFCURVE",
"35 41 CURVE SMOOTH {name = hr00;}",
"35 26 OFFCURVE",
"46 0 OFFCURVE",
"69 0 CURVE SMOOTH"
);
}
);
width = 1392;
}
);
leftKerningGroup = h;
rightKerningGroup = n;
unicode = 0068;
userData = {
com.typemytype.robofont.mark = (
0.967,
0.6,
1,
1
);
};
},
{
color = 9;
glyphname = hbar;
lastChange = "2018-07-14 03:21:40 +0000";
layers = (
{
components = (
{
name = h;
transform = "{1, 0, 0, 1, -51, 0}";
}
);
layerId = "DD6F9F34-BC40-4E8F-B1D3-DF3B42A9710F";
paths = (
{
closed = 1;
nodes = (
"604 1191 LINE",
"618 1197 OFFCURVE",
"628 1219 OFFCURVE",
"628 1244 CURVE SMOOTH",
"628 1260 OFFCURVE",
"620 1287 OFFCURVE",
"604 1288 CURVE",
"-5 1288 LINE",
"-19 1282 OFFCURVE",
"-29 1250 OFFCURVE",
"-29 1225 CURVE SMOOTH",
"-29 1209 OFFCURVE",
"-21 1192 OFFCURVE",
"-5 1191 CURVE"
);
}
);
width = 1192;
},
{
components = (
{
name = h;
transform = "{1, 0, 0, 1, -67, 0}";
}
);
layerId = "62CA62AF-CD91-478A-AB8B-28A62CC47DA0";
paths = (
{
closed = 1;
nodes = (
"678 1191 LINE",
"692 1197 OFFCURVE",
"702 1219 OFFCURVE",
"702 1244 CURVE SMOOTH",
"702 1260 OFFCURVE",
"694 1287 OFFCURVE",
"678 1288 CURVE",
"-21 1288 LINE",
"-35 1282 OFFCURVE",
"-45 1250 OFFCURVE",
"-45 1225 CURVE SMOOTH",
"-45 1209 OFFCURVE",
"-37 1192 OFFCURVE",
"-21 1191 CURVE"
);
}
);
width = 1392;
}
);
leftKerningGroup = h;
rightKerningGroup = n;
unicode = 0127;
},
{
color = 9;
glyphname = hcircumflex;
lastChange = "2018-07-14 03:21:40 +0000";
layers = (
{
components = (
{
name = circumflexcomb.case;
transform = "{1, 0, 0, 1, 346, 360}";
}
);
layerId = "DD6F9F34-BC40-4E8F-B1D3-DF3B42A9710F";
paths = (
{
closed = 1;
nodes = (
"606 0 LINE SMOOTH",
"628 0 OFFCURVE",
"640 26 OFFCURVE",
"640 41 CURVE SMOOTH",
"640 71 OFFCURVE",
"632 75 OFFCURVE",
"604 78 CURVE SMOOTH",
"555 83 OFFCURVE",
"492 89 OFFCURVE",
"492 175 CURVE SMOOTH",
"492 771 LINE",
"547 822 OFFCURVE",
"665 896 OFFCURVE",
"790 896 CURVE SMOOTH",
"908 896 OFFCURVE",
"919 829 OFFCURVE",
"919 795 CURVE SMOOTH",
"919 142 LINE SMOOTH",
"919 104 OFFCURVE",
"855 82 OFFCURVE",
"813 78 CURVE SMOOTH",
"787 75 OFFCURVE",
"782 62 OFFCURVE",
"782 41 CURVE SMOOTH",
"782 26 OFFCURVE",
"793 0 OFFCURVE",
"816 0 CURVE SMOOTH",
"1243 0 LINE SMOOTH",
"1266 0 OFFCURVE",
"1277 26 OFFCURVE",
"1277 41 CURVE SMOOTH",
"1277 70 OFFCURVE",
"1266 75 OFFCURVE",
"1244 78 CURVE SMOOTH",
"1194 85 OFFCURVE",
"1107 79 OFFCURVE",
"1107 175 CURVE SMOOTH",
"1107 766 LINE SMOOTH",
"1107 974 OFFCURVE",
"976 1014 OFFCURVE",
"831 1014 CURVE SMOOTH",
"668 1014 OFFCURVE",
"517 880 OFFCURVE",
"482 845 CURVE",
"492 1104 LINE",
"492 1379 LINE",
"489 1411 OFFCURVE",
"473 1419 OFFCURVE",
"462 1419 CURVE SMOOTH",
"405 1419 OFFCURVE",
"290 1417 OFFCURVE",
"157 1409 CURVE SMOOTH",
"141 1408 OFFCURVE",
"133 1381 OFFCURVE",
"133 1365 CURVE SMOOTH",
"133 1340 OFFCURVE",
"143 1331 OFFCURVE",
"157 1325 CURVE",
"211 1311 OFFCURVE",
"306 1324 OFFCURVE",
"306 1200 CURVE SMOOTH",
"306 142 LINE SMOOTH",
"306 98 OFFCURVE",
"239 83 OFFCURVE",
"190 78 CURVE SMOOTH",
"164 75 OFFCURVE",
"157 62 OFFCURVE",
"157 41 CURVE SMOOTH",
"157 26 OFFCURVE",
"168 0 OFFCURVE",
"191 0 CURVE SMOOTH"
);
}
);
width = 1192;
},
{
components = (
{
name = circumflexcomb.case;
transform = "{1, 0, 0, 1, 373, 345}";
}
);
layerId = "62CA62AF-CD91-478A-AB8B-28A62CC47DA0";
paths = (
{
closed = 1;
nodes = (
"655 0 LINE SMOOTH",
"677 0 OFFCURVE",
"689 26 OFFCURVE",
"689 41 CURVE SMOOTH",
"689 71 OFFCURVE",
"681 75 OFFCURVE",
"653 78 CURVE SMOOTH",
"604 82 OFFCURVE",
"541 88 OFFCURVE",
"541 165 CURVE SMOOTH",
"541 727 LINE",
"588 778 OFFCURVE",
"713 852 OFFCURVE",
"821 852 CURVE SMOOTH",
"940 852 OFFCURVE",
"940 764 OFFCURVE",
"940 721 CURVE SMOOTH",
"940 132 LINE SMOOTH",
"940 100 OFFCURVE",
"876 81 OFFCURVE",
"834 78 CURVE",
"807 75 OFFCURVE",
"803 62 OFFCURVE",
"803 41 CURVE SMOOTH",
"803 26 OFFCURVE",
"814 0 OFFCURVE",
"837 0 CURVE SMOOTH",
"1384 0 LINE SMOOTH",
"1407 0 OFFCURVE",
"1418 26 OFFCURVE",
"1418 41 CURVE SMOOTH",
"1418 70 OFFCURVE",
"1407 75 OFFCURVE",
"1385 78 CURVE SMOOTH",
"1335 84 OFFCURVE",
"1248 79 OFFCURVE",
"1248 165 CURVE SMOOTH",
"1248 736 LINE SMOOTH",
"1248 968 OFFCURVE",
"1107 1014 OFFCURVE",
"957 1014 CURVE SMOOTH",
"764 1014 OFFCURVE",
"572 890 OFFCURVE",
"531 845 CURVE",
"541 992 LINE",
"541 1379 LINE",
"538 1411 OFFCURVE",
"522 1419 OFFCURVE",
"511 1419 CURVE SMOOTH",
"430 1419 OFFCURVE",
"266 1417 OFFCURVE",
"76 1405 CURVE SMOOTH",
"60 1404 OFFCURVE",
"52 1377 OFFCURVE",
"52 1361 CURVE SMOOTH",
"52 1336 OFFCURVE",
"62 1327 OFFCURVE",
"76 1321 CURVE",
"130 1307 OFFCURVE",
"225 1324 OFFCURVE",
"225 1200 CURVE SMOOTH",
"225 132 LINE SMOOTH",
"225 95 OFFCURVE",
"158 82 OFFCURVE",
"109 78 CURVE",
"83 75 OFFCURVE",
"76 62 OFFCURVE",
"76 41 CURVE SMOOTH {name = hr00;}",
"76 26 OFFCURVE",
"87 0 OFFCURVE",
"110 0 CURVE SMOOTH"
);
}
);
width = 1392;
}
);
leftKerningGroup = h;
rightKerningGroup = n;
unicode = 0125;
},
{
color = 10;
glyphname = idotless;
lastChange = "2018-07-16 17:49:50 +0000";
layers = (
{
anchors = (
{
name = bottom;
position = "{331, 0}";
},
{
name = ogonek;
position = "{539, 10}";
},
{
name = top;
position = "{309, 994}";
}
);
layerId = "DD6F9F34-BC40-4E8F-B1D3-DF3B42A9710F";
paths = (
{
closed = 1;
nodes = (
"540 0 LINE SMOOTH",
"562 0 OFFCURVE",
"574 26 OFFCURVE",
"574 41 CURVE SMOOTH",
"574 71 OFFCURVE",
"566 75 OFFCURVE",
"538 78 CURVE SMOOTH",
"489 83 OFFCURVE",
"416 89 OFFCURVE",
"416 175 CURVE SMOOTH",
"416 957 LINE",
"413 989 OFFCURVE",
"397 997 OFFCURVE",
"386 997 CURVE SMOOTH",
"329 997 OFFCURVE",
"214 995 OFFCURVE",
"81 987 CURVE SMOOTH",
"65 986 OFFCURVE",
"57 959 OFFCURVE",
"57 943 CURVE SMOOTH",
"57 918 OFFCURVE",
"67 909 OFFCURVE",
"81 903 CURVE",
"135 889 OFFCURVE",
"230 902 OFFCURVE",
"230 778 CURVE SMOOTH",
"229 142 LINE SMOOTH",
"229 98 OFFCURVE",
"163 84 OFFCURVE",
"114 78 CURVE SMOOTH",
"88 75 OFFCURVE",
"81 62 OFFCURVE",
"81 41 CURVE SMOOTH",
"81 26 OFFCURVE",
"92 0 OFFCURVE",
"115 0 CURVE SMOOTH"
);
}
);
width = 600;
},
{
anchors = (
{
name = bottom;
position = "{382, 0}";
},
{
name = ogonek;
position = "{642, 10}";
},
{
name = top;
position = "{372, 994}";
}
);
layerId = "62CA62AF-CD91-478A-AB8B-28A62CC47DA0";
paths = (
{
closed = 1;
nodes = (
"666 0 LINE SMOOTH",
"688 0 OFFCURVE",
"700 26 OFFCURVE",
"700 41 CURVE SMOOTH",
"700 71 OFFCURVE",
"692 75 OFFCURVE",
"664 78 CURVE SMOOTH",
"615 83 OFFCURVE",
"542 88 OFFCURVE",
"542 165 CURVE SMOOTH",
"542 957 LINE SMOOTH",
"542 989 OFFCURVE",
"523 997 OFFCURVE",
"512 997 CURVE SMOOTH",
"431 997 OFFCURVE",
"267 995 OFFCURVE",
"77 983 CURVE SMOOTH",
"61 982 OFFCURVE",
"53 955 OFFCURVE",
"53 939 CURVE SMOOTH",
"53 914 OFFCURVE",
"63 905 OFFCURVE",
"77 899 CURVE",
"131 885 OFFCURVE",
"226 902 OFFCURVE",
"226 778 CURVE SMOOTH",
"225 132 LINE SMOOTH",
"225 95 OFFCURVE",
"159 82 OFFCURVE",
"110 78 CURVE SMOOTH",
"84 76 OFFCURVE",
"77 62 OFFCURVE",
"77 41 CURVE SMOOTH {name = hr00;}",
"77 26 OFFCURVE",
"88 0 OFFCURVE",
"111 0 CURVE SMOOTH"
);
}
);
width = 724;
}
);
leftKerningGroup = idotless;
rightKerningGroup = idotless;
unicode = 0131;
},
{
color = 10;
glyphname = iogonek;
lastChange = "2018-07-16 17:49:50 +0000";
layers = (
{
components = (
{
name = i;
}
);
layerId = "DD6F9F34-BC40-4E8F-B1D3-DF3B42A9710F";
paths = (
{
closed = 1;
nodes = (
"370 30 LINE",
"218 -6 OFFCURVE",
"105 -89 OFFCURVE",
"105 -194 CURVE SMOOTH",
"105 -299 OFFCURVE",
"194 -370 OFFCURVE",
"324 -370 CURVE SMOOTH",
"384 -370 OFFCURVE",
"470 -352 OFFCURVE",
"513 -323 CURVE SMOOTH",
"527 -314 OFFCURVE",
"533 -294 OFFCURVE",
"533 -277 CURVE SMOOTH",
"533 -258 OFFCURVE",
"526 -241 OFFCURVE",
"513 -243 CURVE SMOOTH",
"479 -249 OFFCURVE",
"463 -259 OFFCURVE",
"431 -259 CURVE SMOOTH",
"342 -259 OFFCURVE",
"291 -221 OFFCURVE",
"291 -160 CURVE SMOOTH",
"291 -84 OFFCURVE",
"328 -51 OFFCURVE",
"455 30 CURVE",
"426 80 LINE"
);
}
);
width = 600;
},
{
components = (
{
name = i;
}
);
layerId = "62CA62AF-CD91-478A-AB8B-28A62CC47DA0";
paths = (
{
closed = 1;
nodes = (
"359 0 LINE",
"207 -36 OFFCURVE",
"114 -119 OFFCURVE",
"114 -224 CURVE SMOOTH",
"114 -329 OFFCURVE",
"223 -407 OFFCURVE",
"353 -407 CURVE SMOOTH",
"413 -407 OFFCURVE",
"499 -389 OFFCURVE",
"542 -360 CURVE SMOOTH",
"556 -351 OFFCURVE",
"562 -327 OFFCURVE",
"562 -306 CURVE SMOOTH",
"562 -282 OFFCURVE",
"555 -261 OFFCURVE",
"542 -263 CURVE SMOOTH",
"508 -269 OFFCURVE",
"492 -279 OFFCURVE",
"460 -279 CURVE SMOOTH",
"371 -279 OFFCURVE",
"337 -233 OFFCURVE",
"337 -172 CURVE SMOOTH",
"337 -96 OFFCURVE",
"412 -32 OFFCURVE",
"508 0 CURVE",
"466 49 LINE"
);
}
);
width = 724;
}
);
leftKerningGroup = i;
rightKerningGroup = i;
unicode = 012F;
},
{
color = 9;
glyphname = jdotless;
lastChange = "2018-07-14 18:03:18 +0000";
layers = (
{
anchors = (
{
name = top;
position = "{302, 994}";
}
);
layerId = "DD6F9F34-BC40-4E8F-B1D3-DF3B42A9710F";
paths = (
{
closed = 1;
nodes = (
"295 -449 OFFCURVE",
"418 -187 OFFCURVE",
"418 88 CURVE SMOOTH",
"419 957 LINE",
"416 989 OFFCURVE",
"400 997 OFFCURVE",
"389 997 CURVE SMOOTH",
"332 997 OFFCURVE",
"207 995 OFFCURVE",
"74 987 CURVE SMOOTH",
"58 986 OFFCURVE",
"50 959 OFFCURVE",
"50 943 CURVE SMOOTH",
"50 918 OFFCURVE",
"60 909 OFFCURVE",
"74 903 CURVE",
"128 889 OFFCURVE",
"233 902 OFFCURVE",
"233 778 CURVE SMOOTH",
"232 56 LINE SMOOTH",
"231 -306 OFFCURVE",
"169 -343 OFFCURVE",
"102 -347 CURVE",
"48 -247 OFFCURVE",
"46 -199 OFFCURVE",
"6 -199 CURVE SMOOTH",
"-32 -199 OFFCURVE",
"-109 -235 OFFCURVE",
"-109 -310 CURVE SMOOTH",
"-109 -379 OFFCURVE",
"-61 -449 OFFCURVE",
"67 -449 CURVE SMOOTH"
);
}
);
width = 598;
},
{
anchors = (
{
name = top;
position = "{348, 994}";
}
);
layerId = "62CA62AF-CD91-478A-AB8B-28A62CC47DA0";
paths = (
{
closed = 1;
nodes = (
"469 -449 OFFCURVE",
"527 -187 OFFCURVE",
"527 88 CURVE SMOOTH",
"528 957 LINE SMOOTH",
"528 989 OFFCURVE",
"509 997 OFFCURVE",
"498 997 CURVE SMOOTH",
"417 997 OFFCURVE",
"241 995 OFFCURVE",
"53 983 CURVE SMOOTH",
"37 982 OFFCURVE",
"29 955 OFFCURVE",
"29 939 CURVE SMOOTH",
"29 914 OFFCURVE",
"39 905 OFFCURVE",
"53 899 CURVE",
"107 885 OFFCURVE",
"212 902 OFFCURVE",
"212 778 CURVE SMOOTH",
"211 -57 LINE SMOOTH",
"211 -268 OFFCURVE",
"171 -347 OFFCURVE",
"121 -347 CURVE",
"1 -140 OFFCURVE",
"-4 -116 OFFCURVE",
"-64 -116 CURVE SMOOTH {name = hr00;}",
"-133 -116 OFFCURVE",
"-192 -180 OFFCURVE",
"-192 -254 CURVE SMOOTH",
"-192 -336 OFFCURVE",
"-90 -449 OFFCURVE",
"83 -449 CURVE SMOOTH"
);
}
);
width = 709;
}
);
leftKerningGroup = j;
rightKerningGroup = j;
unicode = 0237;
},
{
color = 4;
glyphname = k;
lastChange = "2018-07-15 18:01:19 +0000";
layers = (
{
anchors = (
{
name = bottom;
position = "{529, 0}";
},
{
name = top;
position = "{529, 1889}";
}
);
layerId = "DD6F9F34-BC40-4E8F-B1D3-DF3B42A9710F";
paths = (
{
closed = 1;
nodes = (
"479 0 LINE SMOOTH",
"501 0 OFFCURVE",
"513 26 OFFCURVE",
"513 41 CURVE SMOOTH",
"513 71 OFFCURVE",
"505 75 OFFCURVE",
"477 78 CURVE SMOOTH",
"428 83 OFFCURVE",
"365 89 OFFCURVE",
"365 175 CURVE SMOOTH",
"365 416 LINE",
"454 496 LINE",
"560 388 OFFCURVE",
"709 137 OFFCURVE",
"789 0 CURVE",
"1073 0 LINE SMOOTH",
"1096 0 OFFCURVE",
"1107 26 OFFCURVE",
"1107 41 CURVE SMOOTH",
"1107 70 OFFCURVE",
"1096 75 OFFCURVE",
"1074 78 CURVE SMOOTH",
"1024 85 OFFCURVE",
"972 116 OFFCURVE",
"921 175 CURVE SMOOTH",
"804 312 OFFCURVE",
"666 519 OFFCURVE",
"570 601 CURVE",
"813 819 LINE",
"863 858 OFFCURVE",
"935 906 OFFCURVE",
"1000 906 CURVE SMOOTH",
"1022 906 OFFCURVE",
"1033 925 OFFCURVE",
"1033 949 CURVE SMOOTH",
"1033 964 OFFCURVE",
"1022 994 OFFCURVE",
"999 994 CURVE SMOOTH",
"592 994 LINE SMOOTH",
"569 994 OFFCURVE",
"558 964 OFFCURVE",
"558 949 CURVE SMOOTH",
"558 928 OFFCURVE",
"563 909 OFFCURVE",
"589 906 CURVE",
"640 903 OFFCURVE",
"730 891 OFFCURVE",
"730 863 CURVE SMOOTH",
"730 857 OFFCURVE",
"726 850 OFFCURVE",
"715 842 CURVE",
"365 523 LINE",
"365 1518 LINE",
"362 1550 OFFCURVE",
"346 1558 OFFCURVE",
"335 1558 CURVE SMOOTH",
"278 1557 OFFCURVE",
"163 1556 OFFCURVE",
"30 1548 CURVE SMOOTH",
"14 1547 OFFCURVE",
"6 1520 OFFCURVE",
"6 1504 CURVE SMOOTH",
"6 1479 OFFCURVE",
"16 1470 OFFCURVE",
"30 1464 CURVE",
"84 1450 OFFCURVE",
"179 1463 OFFCURVE",
"179 1339 CURVE SMOOTH",
"179 142 LINE SMOOTH",
"179 98 OFFCURVE",
"112 83 OFFCURVE",
"63 78 CURVE SMOOTH",
"37 75 OFFCURVE",
"30 62 OFFCURVE",
"30 41 CURVE SMOOTH",
"30 26 OFFCURVE",
"41 0 OFFCURVE",
"64 0 CURVE SMOOTH"
);
}
);
width = 1097;
},
{
anchors = (
{
name = bottom;
position = "{637, 0}";
},
{
name = top;
position = "{637, 1889}";
}
);
layerId = "62CA62AF-CD91-478A-AB8B-28A62CC47DA0";
paths = (
{
closed = 1;
nodes = (
"586 0 LINE SMOOTH",
"609 0 OFFCURVE",
"620 26 OFFCURVE",
"620 41 CURVE SMOOTH",
"620 71 OFFCURVE",
"612 75 OFFCURVE",
"584 78 CURVE SMOOTH",
"535 82 OFFCURVE",
"492 88 OFFCURVE",
"492 165 CURVE SMOOTH",
"492 374 LINE",
"580 452 LINE",
"678 355 OFFCURVE",
"821 0 OFFCURVE",
"933 0 CURVE SMOOTH",
"1259 0 LINE SMOOTH",
"1282 0 OFFCURVE",
"1293 26 OFFCURVE",
"1293 41 CURVE SMOOTH",
"1293 70 OFFCURVE",
"1282 75 OFFCURVE",
"1260 78 CURVE SMOOTH",
"1210 85 OFFCURVE",
"1167 143 OFFCURVE",
"1112 198 CURVE SMOOTH",
"989 321 OFFCURVE",
"868 550 OFFCURVE",
"773 621 CURVE",
"1019 837 LINE",
"1068 876 OFFCURVE",
"1143 906 OFFCURVE",
"1207 906 CURVE SMOOTH",
"1229 906 OFFCURVE",
"1240 925 OFFCURVE",
"1240 949 CURVE SMOOTH",
"1240 964 OFFCURVE",
"1229 994 OFFCURVE",
"1206 994 CURVE SMOOTH",
"749 994 LINE SMOOTH",
"726 994 OFFCURVE",
"715 964 OFFCURVE",
"715 949 CURVE SMOOTH",
"715 928 OFFCURVE",
"719 909 OFFCURVE",
"746 906 CURVE",
"799 903 OFFCURVE",
"880 884 OFFCURVE",
"880 857 CURVE SMOOTH",
"880 852 OFFCURVE",
"877 847 OFFCURVE",
"871 842 CURVE",
"492 484 LINE",
"492 1508 LINE SMOOTH",
"492 1540 OFFCURVE",
"473 1548 OFFCURVE",
"462 1548 CURVE SMOOTH",
"380 1547 OFFCURVE",
"216 1542 OFFCURVE",
"27 1534 CURVE SMOOTH",
"11 1533 OFFCURVE",
"3 1506 OFFCURVE",
"3 1490 CURVE SMOOTH",
"3 1465 OFFCURVE",
"13 1456 OFFCURVE",
"27 1450 CURVE",
"81 1436 OFFCURVE",
"176 1453 OFFCURVE",
"176 1329 CURVE SMOOTH",
"176 132 LINE SMOOTH",
"176 95 OFFCURVE",
"109 82 OFFCURVE",
"60 78 CURVE",
"34 75 OFFCURVE",
"27 62 OFFCURVE",
"27 41 CURVE SMOOTH {name = hr00;}",
"27 26 OFFCURVE",
"38 0 OFFCURVE",
"61 0 CURVE SMOOTH"
);
}
);
width = 1294;
}
);
leftKerningGroup = h;
rightKerningGroup = k;
unicode = 006B;
},
{
color = 4;
glyphname = kgreenlandic;
lastChange = "2018-07-12 15:53:51 +0000";
layers = (
{
layerId = "DD6F9F34-BC40-4E8F-B1D3-DF3B42A9710F";
paths = (
{
closed = 1;
nodes = (
"524 0 LINE SMOOTH",
"546 0 OFFCURVE",
"558 16 OFFCURVE",
"558 31 CURVE SMOOTH",
"558 61 OFFCURVE",
"550 65 OFFCURVE",
"522 68 CURVE SMOOTH",
"473 73 OFFCURVE",
"410 79 OFFCURVE",
"410 165 CURVE SMOOTH",
"410 434 LINE",
"477 495 LINE",
"563 374 OFFCURVE",
"650 253 OFFCURVE",
"736 132 CURVE",
"745 121 OFFCURVE",
"749 113 OFFCURVE",
"749 105 CURVE SMOOTH",
"749 81 OFFCURVE",
"712 71 OFFCURVE",
"680 68 CURVE SMOOTH",
"654 65 OFFCURVE",
"649 52 OFFCURVE",
"649 31 CURVE SMOOTH",
"649 16 OFFCURVE",
"660 0 OFFCURVE",
"683 0 CURVE SMOOTH",
"1100 0 LINE SMOOTH",
"1123 0 OFFCURVE",
"1134 16 OFFCURVE",
"1134 31 CURVE SMOOTH",
"1134 60 OFFCURVE",
"1123 65 OFFCURVE",
"1101 68 CURVE SMOOTH",
"1051 75 OFFCURVE",
"984 105 OFFCURVE",
"934 165 CURVE",
"823 313 OFFCURVE",
"712 462 OFFCURVE",
"601 610 CURVE",
"830 821 LINE SMOOTH",
"865 853 OFFCURVE",
"949 918 OFFCURVE",
"1017 918 CURVE SMOOTH",
"1039 918 OFFCURVE",
"1050 931 OFFCURVE",
"1050 955 CURVE SMOOTH",
"1050 970 OFFCURVE",
"1039 986 OFFCURVE",
"1016 986 CURVE SMOOTH",
"639 986 LINE SMOOTH",
"616 986 OFFCURVE",
"605 970 OFFCURVE",
"605 955 CURVE SMOOTH",
"605 934 OFFCURVE",
"610 921 OFFCURVE",
"636 918 CURVE SMOOTH",
"671 915 OFFCURVE",
"741 895 OFFCURVE",
"741 864 CURVE SMOOTH",
"741 858 OFFCURVE",
"738 851 OFFCURVE",
"732 844 CURVE",
"410 541 LINE",
"410 947 LINE",
"407 979 OFFCURVE",
"391 987 OFFCURVE",
"380 987 CURVE SMOOTH",
"325 986 OFFCURVE",
"214 985 OFFCURVE",
"85 977 CURVE SMOOTH",
"69 976 OFFCURVE",
"61 959 OFFCURVE",
"61 943 CURVE SMOOTH",
"61 918 OFFCURVE",
"71 909 OFFCURVE",
"85 903 CURVE",
"135 889 OFFCURVE",
"224 902 OFFCURVE",
"224 778 CURVE SMOOTH",
"224 132 LINE SMOOTH",
"224 88 OFFCURVE",
"167 73 OFFCURVE",
"118 68 CURVE SMOOTH",
"92 65 OFFCURVE",
"85 52 OFFCURVE",
"85 31 CURVE SMOOTH",
"85 16 OFFCURVE",
"96 0 OFFCURVE",
"119 0 CURVE SMOOTH"
);
}
);
width = 1115;
},
{
layerId = "62CA62AF-CD91-478A-AB8B-28A62CC47DA0";
paths = (
{
closed = 1;
nodes = (
"617 0 LINE SMOOTH",
"639 0 OFFCURVE",
"651 16 OFFCURVE",
"651 31 CURVE SMOOTH",
"651 61 OFFCURVE",
"643 65 OFFCURVE",
"615 68 CURVE SMOOTH",
"566 73 OFFCURVE",
"523 79 OFFCURVE",
"523 165 CURVE SMOOTH",
"523 400 LINE",
"595 463 LINE",
"662 391 OFFCURVE",
"749 262 OFFCURVE",
"820 142 CURVE SMOOTH",
"827 130 OFFCURVE",
"830 119 OFFCURVE",
"830 110 CURVE SMOOTH",
"830 92 OFFCURVE",
"819 80 OFFCURVE",
"804 78 CURVE SMOOTH",
"778 75 OFFCURVE",
"773 62 OFFCURVE",
"773 41 CURVE SMOOTH",
"773 26 OFFCURVE",
"784 0 OFFCURVE",
"807 0 CURVE SMOOTH",
"1291 0 LINE SMOOTH",
"1314 0 OFFCURVE",
"1325 26 OFFCURVE",
"1325 41 CURVE SMOOTH",
"1325 70 OFFCURVE",
"1314 75 OFFCURVE",
"1292 78 CURVE SMOOTH",
"1242 85 OFFCURVE",
"1204 139 OFFCURVE",
"1149 194 CURVE SMOOTH",
"1035 308 OFFCURVE",
"886 548 OFFCURVE",
"803 641 CURVE",
"1030 837 LINE",
"1079 876 OFFCURVE",
"1154 906 OFFCURVE",
"1218 906 CURVE SMOOTH",
"1240 906 OFFCURVE",
"1251 925 OFFCURVE",
"1251 949 CURVE SMOOTH",
"1251 964 OFFCURVE",
"1240 994 OFFCURVE",
"1217 994 CURVE SMOOTH",
"760 994 LINE SMOOTH",
"737 994 OFFCURVE",
"726 964 OFFCURVE",
"726 949 CURVE SMOOTH",
"726 928 OFFCURVE",
"730 909 OFFCURVE",
"757 906 CURVE SMOOTH",
"861 896 OFFCURVE",
"890 883 OFFCURVE",
"890 857 CURVE SMOOTH",
"890 847 OFFCURVE",
"880 839 OFFCURVE",
"869 829 CURVE SMOOTH",
"523 511 LINE",
"523 947 LINE",
"520 979 OFFCURVE",
"504 987 OFFCURVE",
"493 987 CURVE SMOOTH",
"414 986 OFFCURVE",
"254 985 OFFCURVE",
"68 977 CURVE SMOOTH",
"52 976 OFFCURVE",
"44 959 OFFCURVE",
"44 943 CURVE SMOOTH",
"44 918 OFFCURVE",
"54 909 OFFCURVE",
"68 903 CURVE",
"118 889 OFFCURVE",
"207 902 OFFCURVE",
"207 778 CURVE SMOOTH",
"207 132 LINE SMOOTH",
"207 88 OFFCURVE",
"150 73 OFFCURVE",
"101 68 CURVE SMOOTH",
"75 65 OFFCURVE",
"68 52 OFFCURVE",
"68 31 CURVE SMOOTH {name = hr00;}",
"68 16 OFFCURVE",
"79 0 OFFCURVE",
"102 0 CURVE SMOOTH"
);
}
);
width = 1316;
}
);
leftKerningGroup = h;
rightKerningGroup = k;
unicode = 0138;
},
{
color = 9;
glyphname = l;
lastChange = "2018-07-14 03:25:08 +0000";
layers = (
{
anchors = (
{
name = bottom;
position = "{278, 0}";
},
{
name = center;
position = "{278, 945}";
},
{
name = top;
position = "{278, 1316}";
},
{
name = topright;
position = "{546, 1016}";
}
);
layerId = "DD6F9F34-BC40-4E8F-B1D3-DF3B42A9710F";
paths = (
{
closed = 1;
nodes = (
"495 0 LINE SMOOTH",
"517 0 OFFCURVE",
"529 26 OFFCURVE",
"529 41 CURVE SMOOTH",
"529 71 OFFCURVE",
"521 75 OFFCURVE",
"493 78 CURVE SMOOTH",
"444 83 OFFCURVE",
"371 89 OFFCURVE",
"371 175 CURVE SMOOTH",
"371 1518 LINE",
"368 1550 OFFCURVE",
"352 1558 OFFCURVE",
"341 1558 CURVE SMOOTH",
"284 1557 OFFCURVE",
"159 1556 OFFCURVE",
"26 1548 CURVE SMOOTH",
"10 1547 OFFCURVE",
"2 1520 OFFCURVE",
"2 1504 CURVE SMOOTH",
"2 1479 OFFCURVE",
"12 1470 OFFCURVE",
"26 1464 CURVE",
"80 1450 OFFCURVE",
"185 1463 OFFCURVE",
"185 1339 CURVE SMOOTH",
"184 142 LINE SMOOTH",
"184 98 OFFCURVE",
"118 83 OFFCURVE",
"69 78 CURVE SMOOTH",
"43 75 OFFCURVE",
"36 62 OFFCURVE",
"36 41 CURVE SMOOTH",
"36 26 OFFCURVE",
"47 0 OFFCURVE",
"70 0 CURVE SMOOTH"
);
}
);
width = 586;
},
{
anchors = (
{
name = bottom;
position = "{341, 0}";
},
{
name = center;
position = "{341, 945}";
},
{
name = top;
position = "{341, 1305}";
},
{
name = topright;
position = "{678, 1016}";
}
);
layerId = "62CA62AF-CD91-478A-AB8B-28A62CC47DA0";
paths = (
{
closed = 1;
nodes = (
"623 0 LINE SMOOTH",
"646 0 OFFCURVE",
"657 26 OFFCURVE",
"657 41 CURVE SMOOTH",
"657 71 OFFCURVE",
"649 75 OFFCURVE",
"621 78 CURVE SMOOTH",
"572 82 OFFCURVE",
"499 88 OFFCURVE",
"499 165 CURVE SMOOTH",
"499 1508 LINE SMOOTH",
"499 1540 OFFCURVE",
"480 1548 OFFCURVE",
"469 1548 CURVE SMOOTH",
"386 1547 OFFCURVE",
"209 1542 OFFCURVE",
"24 1534 CURVE SMOOTH",
"9 1533 OFFCURVE",
"0 1506 OFFCURVE",
"0 1490 CURVE SMOOTH",
"0 1465 OFFCURVE",
"10 1456 OFFCURVE",
"24 1450 CURVE",
"81 1436 OFFCURVE",
"193 1453 OFFCURVE",
"193 1328 CURVE",
"192 132 LINE SMOOTH",
"192 95 OFFCURVE",
"126 82 OFFCURVE",
"77 78 CURVE SMOOTH",
"51 75 OFFCURVE",
"44 62 OFFCURVE",
"44 41 CURVE SMOOTH {name = hr00;}",
"44 26 OFFCURVE",
"55 0 OFFCURVE",
"78 0 CURVE SMOOTH"
);
}
);
width = 705;
}
);
leftKerningGroup = h;
rightKerningGroup = l;
unicode = 006C;
},
{
color = 9;
glyphname = lacute;
lastChange = "2018-07-14 03:25:08 +0000";
layers = (
{
anchors = (
{
name = bottom;
position = "{278, 0}";
}
);
components = (
{
name = acutecomb.case;
transform = "{1, 0, 0, 1, 278, 322}";
}
);
layerId = "DD6F9F34-BC40-4E8F-B1D3-DF3B42A9710F";
paths = (
{
closed = 1;
nodes = (
"495 0 LINE SMOOTH",
"517 0 OFFCURVE",
"529 26 OFFCURVE",
"529 41 CURVE SMOOTH",
"529 71 OFFCURVE",
"521 75 OFFCURVE",
"493 78 CURVE SMOOTH",
"444 83 OFFCURVE",
"371 89 OFFCURVE",
"371 175 CURVE SMOOTH",
"371 1379 LINE",
"368 1411 OFFCURVE",
"352 1419 OFFCURVE",
"341 1419 CURVE SMOOTH",
"284 1419 OFFCURVE",
"159 1417 OFFCURVE",
"26 1409 CURVE SMOOTH",
"10 1408 OFFCURVE",
"2 1381 OFFCURVE",
"2 1365 CURVE SMOOTH",
"2 1340 OFFCURVE",
"12 1331 OFFCURVE",
"26 1325 CURVE",
"80 1311 OFFCURVE",
"185 1324 OFFCURVE",
"185 1200 CURVE SMOOTH",
"184 142 LINE SMOOTH",
"184 98 OFFCURVE",
"118 83 OFFCURVE",
"69 78 CURVE SMOOTH",
"43 75 OFFCURVE",
"36 62 OFFCURVE",
"36 41 CURVE SMOOTH",
"36 26 OFFCURVE",
"47 0 OFFCURVE",
"70 0 CURVE SMOOTH"
);
}
);
width = 586;
},
{
anchors = (
{
name = bottom;
position = "{341, 0}";
}
);
components = (
{
name = acutecomb.case;
transform = "{1, 0, 0, 1, 268, 311}";
}
);
layerId = "62CA62AF-CD91-478A-AB8B-28A62CC47DA0";
paths = (
{
closed = 1;
nodes = (
"623 0 LINE SMOOTH",
"646 0 OFFCURVE",
"657 26 OFFCURVE",
"657 41 CURVE SMOOTH",
"657 71 OFFCURVE",
"649 75 OFFCURVE",
"621 78 CURVE SMOOTH",
"572 82 OFFCURVE",
"499 88 OFFCURVE",
"499 165 CURVE SMOOTH",
"499 1379 LINE SMOOTH",
"499 1411 OFFCURVE",
"480 1419 OFFCURVE",
"469 1419 CURVE SMOOTH",
"386 1419 OFFCURVE",
"209 1417 OFFCURVE",
"24 1405 CURVE SMOOTH",
"9 1404 OFFCURVE",
"0 1377 OFFCURVE",
"0 1361 CURVE SMOOTH",
"0 1336 OFFCURVE",
"10 1327 OFFCURVE",
"24 1321 CURVE",
"81 1307 OFFCURVE",
"193 1324 OFFCURVE",
"193 1199 CURVE",
"192 132 LINE SMOOTH",
"192 95 OFFCURVE",
"126 82 OFFCURVE",
"77 78 CURVE SMOOTH",
"51 75 OFFCURVE",
"44 62 OFFCURVE",
"44 41 CURVE SMOOTH {name = hr00;}",
"44 26 OFFCURVE",
"55 0 OFFCURVE",
"78 0 CURVE SMOOTH"
);
}
);
width = 705;
}
);
unicode = 013A;
},
